<svg xmlns="http://www.w3.org/2000/svg" xmlns:xlink="http://www.w3.org/1999/xlink" width="500" zoomAndPan="magnify" viewBox="0 0 375 374.999991" height="500" preserveAspectRatio="xMidYMid meet" version="1.0"><rect x="-37.5" width="450" fill="#ffffff" y="-37.499999" height="449.999989" fill-opacity="1"/><rect x="-37.5" width="450" fill="#ffffff" y="-37.499999" height="449.999989" fill-opacity="1"/><path fill="#000000" d="M 337.519531 80.28125 L 337.519531 93.984375 C 337.519531 95.457031 336.324219 96.652344 334.847656 96.652344 L 330.007812 96.652344 C 330.203125 91.039062 330.386719 82.945312 330.386719 77.613281 L 334.847656 77.613281 C 336.324219 77.613281 337.519531 78.808594 337.519531 80.28125 Z M 337.519531 80.28125 " fill-opacity="1" fill-rule="nonzero"/><path fill="#000000" d="M 108.273438 173.378906 C 108.195312 173.378906 108.117188 173.375 108.039062 173.367188 C 107.339844 173.367188 106.816406 172.746094 106.867188 172.175781 C 108.613281 151.710938 106.050781 138.429688 105.828125 121.546875 C 105.746094 115.769531 103.992188 109.652344 100.761719 103.851562 C 100.46875 103.324219 100.660156 102.65625 101.1875 102.363281 C 101.71875 102.070312 102.378906 102.261719 102.675781 102.789062 C 106.082031 108.902344 107.925781 115.375 108.015625 121.515625 C 108.230469 137.964844 110.75 151.324219 109.105469 171.644531 C 109.242188 171.824219 109.324219 172.042969 109.324219 172.28125 C 109.324219 172.886719 108.875 173.378906 108.273438 173.378906 Z M 108.273438 173.378906 " fill-opacity="1" fill-rule="nonzero"/><path fill="#000000" d="M 108.835938 173.394531 C 108.675781 173.394531 108.519531 173.390625 108.359375 173.367188 C 107.761719 173.277344 107.347656 172.722656 107.433594 172.125 C 107.519531 171.53125 108.089844 171.125 108.675781 171.203125 C 108.730469 171.210938 108.78125 171.207031 108.835938 171.207031 C 109.4375 171.207031 109.929688 171.695312 109.929688 172.300781 C 109.929688 172.902344 109.4375 173.394531 108.835938 173.394531 Z M 108.835938 173.394531 " fill-opacity="1" fill-rule="nonzero"/><path fill="#000000" d="M 206.835938 171.101562 C 206.246094 171.101562 205.761719 170.632812 205.742188 170.039062 C 205.726562 169.433594 206.203125 168.929688 206.804688 168.914062 L 240.402344 167.953125 C 272.160156 167.035156 276.046875 167.734375 279.839844 167.753906 C 290.390625 168.105469 301.296875 168.46875 311.433594 165.675781 C 323.265625 162.402344 324.796875 149.921875 326.121094 138.003906 C 328.234375 118.929688 328.867188 101.417969 329.242188 83.605469 C 329.597656 57.148438 328.976562 62.824219 330.261719 49.152344 C 331.511719 35.855469 332.929688 20.78125 326.785156 11.246094 C 320.988281 2.269531 304.582031 2.632812 296.683594 2.8125 C 268.871094 3.4375 240.289062 3.789062 212.644531 4.136719 C 145.695312 4.964844 138.320312 5.332031 121.78125 5.519531 C 112.433594 5.625 102.769531 5.738281 93.347656 6.367188 C 81.445312 7.160156 78.746094 13.078125 77.933594 23.710938 C 77.660156 27.421875 77.476562 30.429688 77.363281 33.179688 C 77.339844 33.785156 76.816406 34.285156 76.226562 34.226562 C 75.625 34.203125 75.152344 33.691406 75.179688 33.089844 C 75.292969 30.316406 75.476562 27.285156 75.75 23.550781 C 76.617188 12.253906 79.839844 5.078125 93.203125 4.183594 C 106.488281 3.296875 120.042969 3.4375 133.378906 3.164062 C 159.703125 2.605469 186.605469 2.269531 212.617188 1.949219 C 240.253906 1.605469 268.832031 1.25 296.636719 0.625 C 304.925781 0.4375 322.160156 0.0585938 328.621094 10.0625 C 337.269531 23.476562 331.96875 46.316406 331.582031 60.933594 C 331.582031 117.160156 328.492188 134.605469 328.203125 139.054688 C 327.03125 149.613281 325.425781 164.074219 312.015625 167.78125 C 300.648438 170.914062 288.421875 170.230469 276.429688 169.832031 C 261.554688 169.363281 249.066406 169.886719 206.867188 171.101562 C 206.859375 171.101562 206.847656 171.101562 206.835938 171.101562 Z M 206.835938 171.101562 " fill-opacity="1" fill-rule="nonzero"/><path fill="#000000" d="M 122.527344 23.433594 C 122.527344 23.777344 122.496094 24.117188 122.429688 24.453125 C 122.359375 24.789062 122.261719 25.117188 122.128906 25.433594 C 121.996094 25.75 121.835938 26.050781 121.644531 26.335938 C 121.453125 26.621094 121.234375 26.886719 120.992188 27.128906 C 120.746094 27.371094 120.484375 27.589844 120.195312 27.777344 C 119.910156 27.96875 119.605469 28.132812 119.289062 28.261719 C 118.972656 28.394531 118.640625 28.492188 118.304688 28.558594 C 117.964844 28.625 117.625 28.660156 117.28125 28.660156 C 116.9375 28.660156 116.59375 28.625 116.257812 28.558594 C 115.917969 28.492188 115.589844 28.394531 115.273438 28.261719 C 114.953125 28.132812 114.652344 27.96875 114.363281 27.777344 C 114.078125 27.589844 113.8125 27.371094 113.570312 27.128906 C 113.328125 26.886719 113.109375 26.621094 112.917969 26.335938 C 112.726562 26.050781 112.5625 25.75 112.433594 25.433594 C 112.300781 25.117188 112.199219 24.789062 112.132812 24.453125 C 112.066406 24.117188 112.03125 23.777344 112.03125 23.433594 C 112.03125 23.089844 112.066406 22.75 112.132812 22.414062 C 112.199219 22.078125 112.300781 21.75 112.433594 21.433594 C 112.5625 21.117188 112.726562 20.816406 112.917969 20.53125 C 113.109375 20.246094 113.328125 19.980469 113.570312 19.738281 C 113.8125 19.496094 114.078125 19.277344 114.363281 19.089844 C 114.652344 18.898438 114.953125 18.738281 115.273438 18.605469 C 115.589844 18.472656 115.917969 18.375 116.257812 18.308594 C 116.59375 18.242188 116.9375 18.207031 117.28125 18.207031 C 117.625 18.207031 117.964844 18.242188 118.304688 18.308594 C 118.640625 18.375 118.972656 18.472656 119.289062 18.605469 C 119.605469 18.738281 119.910156 18.898438 120.195312 19.089844 C 120.484375 19.277344 120.746094 19.496094 120.992188 19.738281 C 121.234375 19.980469 121.453125 20.246094 121.644531 20.53125 C 121.835938 20.816406 121.996094 21.117188 122.128906 21.433594 C 122.261719 21.75 122.359375 22.078125 122.429688 22.414062 C 122.496094 22.75 122.527344 23.089844 122.527344 23.433594 Z M 122.527344 23.433594 " fill-opacity="1" fill-rule="nonzero"/><path fill="#000000" d="M 145.570312 23.433594 C 145.570312 23.777344 145.535156 24.117188 145.46875 24.453125 C 145.402344 24.789062 145.300781 25.117188 145.167969 25.433594 C 145.039062 25.75 144.875 26.050781 144.683594 26.335938 C 144.492188 26.621094 144.277344 26.886719 144.03125 27.128906 C 143.789062 27.371094 143.523438 27.589844 143.238281 27.777344 C 142.949219 27.96875 142.648438 28.132812 142.328125 28.261719 C 142.011719 28.394531 141.683594 28.492188 141.34375 28.558594 C 141.007812 28.625 140.664062 28.660156 140.320312 28.660156 C 139.976562 28.660156 139.636719 28.625 139.296875 28.558594 C 138.960938 28.492188 138.632812 28.394531 138.3125 28.261719 C 137.996094 28.132812 137.691406 27.96875 137.40625 27.777344 C 137.121094 27.589844 136.855469 27.371094 136.609375 27.128906 C 136.367188 26.886719 136.148438 26.621094 135.957031 26.335938 C 135.765625 26.050781 135.605469 25.75 135.472656 25.433594 C 135.339844 25.117188 135.242188 24.789062 135.175781 24.453125 C 135.105469 24.117188 135.074219 23.777344 135.074219 23.433594 C 135.074219 23.089844 135.105469 22.75 135.175781 22.414062 C 135.242188 22.078125 135.339844 21.75 135.472656 21.433594 C 135.605469 21.117188 135.765625 20.816406 135.957031 20.53125 C 136.148438 20.246094 136.367188 19.980469 136.609375 19.738281 C 136.855469 19.496094 137.121094 19.277344 137.40625 19.089844 C 137.691406 18.898438 137.996094 18.738281 138.3125 18.605469 C 138.632812 18.472656 138.960938 18.375 139.296875 18.308594 C 139.636719 18.242188 139.976562 18.207031 140.320312 18.207031 C 140.664062 18.207031 141.007812 18.242188 141.34375 18.308594 C 141.683594 18.375 142.011719 18.472656 142.328125 18.605469 C 142.648438 18.738281 142.949219 18.898438 143.238281 19.089844 C 143.523438 19.277344 143.789062 19.496094 144.03125 19.738281 C 144.277344 19.980469 144.492188 20.246094 144.683594 20.53125 C 144.875 20.816406 145.039062 21.117188 145.167969 21.433594 C 145.300781 21.75 145.402344 22.078125 145.46875 22.414062 C 145.535156 22.75 145.570312 23.089844 145.570312 23.433594 Z M 145.570312 23.433594 " fill-opacity="1" fill-rule="nonzero"/><path fill="#047aff" d="M 166.328125 23.699219 C 166.328125 24.042969 166.292969 24.382812 166.226562 24.71875 C 166.160156 25.054688 166.058594 25.382812 165.925781 25.699219 C 165.796875 26.015625 165.632812 26.316406 165.441406 26.601562 C 165.25 26.886719 165.03125 27.152344 164.789062 27.394531 C 164.546875 27.636719 164.28125 27.855469 163.992188 28.042969 C 163.707031 28.234375 163.40625 28.394531 163.085938 28.527344 C 162.769531 28.660156 162.441406 28.757812 162.101562 28.824219 C 161.765625 28.890625 161.421875 28.925781 161.078125 28.925781 C 160.734375 28.925781 160.394531 28.890625 160.054688 28.824219 C 159.714844 28.757812 159.386719 28.660156 159.070312 28.527344 C 158.75 28.394531 158.449219 28.234375 158.164062 28.042969 C 157.875 27.855469 157.609375 27.636719 157.367188 27.394531 C 157.125 27.152344 156.90625 26.886719 156.714844 26.601562 C 156.523438 26.316406 156.363281 26.015625 156.230469 25.699219 C 156.097656 25.382812 156 25.054688 155.929688 24.71875 C 155.863281 24.382812 155.832031 24.042969 155.832031 23.699219 C 155.832031 23.355469 155.863281 23.015625 155.929688 22.679688 C 156 22.34375 156.097656 22.015625 156.230469 21.699219 C 156.363281 21.382812 156.523438 21.082031 156.714844 20.796875 C 156.90625 20.511719 157.125 20.246094 157.367188 20.003906 C 157.609375 19.761719 157.875 19.542969 158.164062 19.355469 C 158.449219 19.164062 158.75 19.003906 159.070312 18.871094 C 159.386719 18.738281 159.714844 18.640625 160.054688 18.574219 C 160.394531 18.507812 160.734375 18.472656 161.078125 18.472656 C 161.421875 18.472656 161.765625 18.507812 162.101562 18.574219 C 162.441406 18.640625 162.769531 18.738281 163.085938 18.871094 C 163.40625 19.003906 163.707031 19.164062 163.992188 19.355469 C 164.28125 19.542969 164.546875 19.761719 164.789062 20.003906 C 165.03125 20.246094 165.25 20.511719 165.441406 20.796875 C 165.632812 21.082031 165.796875 21.382812 165.925781 21.699219 C 166.058594 22.015625 166.160156 22.34375 166.226562 22.679688 C 166.292969 23.015625 166.328125 23.355469 166.328125 23.699219 Z M 166.328125 23.699219 " fill-opacity="1" fill-rule="nonzero"/><path fill="#000000" d="M 119.347656 44.59375 C 118.75 44.59375 118.261719 44.109375 118.253906 43.511719 C 118.25 42.90625 118.734375 42.414062 119.339844 42.40625 L 307.003906 40.710938 C 307.007812 40.710938 307.011719 40.710938 307.011719 40.710938 C 307.613281 40.710938 308.101562 41.191406 308.105469 41.792969 C 308.113281 42.398438 307.625 42.890625 307.023438 42.894531 L 119.359375 44.59375 C 119.355469 44.59375 119.351562 44.59375 119.347656 44.59375 Z M 119.347656 44.59375 " fill-opacity="1" fill-rule="nonzero"/><path fill="#047aff" d="M 292.046875 153.722656 L 233.625 153.722656 C 229.550781 153.722656 226.234375 150.410156 226.234375 146.335938 L 226.234375 115.996094 C 226.234375 111.921875 229.550781 108.609375 233.625 108.609375 L 292.046875 108.609375 C 296.121094 108.609375 299.4375 111.921875 299.4375 115.996094 L 299.4375 146.335938 C 299.4375 150.410156 296.121094 153.722656 292.046875 153.722656 Z M 233.625 110.796875 C 230.753906 110.796875 228.421875 113.128906 228.421875 115.996094 L 228.421875 146.335938 C 228.421875 149.203125 230.753906 151.535156 233.625 151.535156 L 292.046875 151.535156 C 294.917969 151.535156 297.25 149.203125 297.25 146.335938 L 297.25 115.996094 C 297.25 113.128906 294.917969 110.796875 292.046875 110.796875 Z M 233.625 110.796875 " fill-opacity="1" fill-rule="nonzero"/><path fill="#000000" d="M 262.964844 118.980469 C 256.554688 118.980469 251.359375 124.15625 251.359375 130.542969 C 251.359375 136.914062 256.554688 142.089844 262.964844 142.089844 C 269.375 142.089844 274.574219 136.914062 274.574219 130.542969 C 274.574219 124.15625 269.375 118.980469 262.964844 118.980469 Z M 259.371094 135.488281 L 259.371094 126.140625 L 270.039062 130.382812 Z M 259.371094 135.488281 " fill-opacity="1" fill-rule="nonzero"/><path fill="#047aff" d="M 144.621094 132.625 C 135.148438 132.292969 127.167969 132.007812 122.628906 131.855469 C 120.261719 131.765625 118.152344 133.515625 117.515625 136.085938 L 115.800781 142.992188 C 115.195312 145.125 114.527344 147.589844 113.828125 150.261719 C 109.273438 146.863281 104.933594 143.113281 102.28125 138.140625 L 91.625 92.046875 C 133.15625 124.148438 125.410156 117.917969 144.621094 132.625 Z M 144.621094 132.625 " fill-opacity="1" fill-rule="nonzero"/><path fill="#047aff" d="M 119.085938 315.78125 C 121.347656 308.71875 129.59375 302.808594 136.660156 301.238281 C 137.175781 301.125 137.6875 301.070312 138.199219 301.054688 C 138.539062 280.285156 128.769531 261.582031 112.144531 249.136719 C 112.144531 249.136719 112.144531 249.125 112.128906 249.136719 C 94.203125 235.835938 71.289062 232.511719 50.972656 238.277344 C 21.023438 246.761719 0.0390625 274.082031 2.125 304.929688 C 4.53125 340.558594 36.929688 367.46875 74.464844 364.945312 C 90.34375 363.882812 104.605469 357.730469 115.597656 348.285156 C 115.570312 347.277344 115.597656 346.273438 115.746094 345.28125 C 115.757812 345.457031 115.773438 345.644531 115.773438 345.835938 C 116.292969 343.855469 113.90625 352.972656 120.804688 326.621094 C 118.566406 323.515625 117.886719 319.53125 119.085938 315.78125 Z M 50.929688 329.449219 L 47.398438 277.171875 L 111.472656 296.707031 Z M 50.929688 329.449219 " fill-opacity="1" fill-rule="nonzero"/><path fill="#000000" d="M 168.800781 346.222656 C 168.199219 346.179688 167.746094 345.65625 167.789062 345.054688 L 168.34375 337.375 C 168.386719 336.769531 168.957031 336.324219 169.511719 336.363281 C 170.117188 336.40625 170.570312 336.929688 170.527344 337.53125 L 169.96875 345.210938 C 169.929688 345.785156 169.445312 346.261719 168.800781 346.222656 Z M 168.800781 346.222656 " fill-opacity="1" fill-rule="nonzero"/><path fill="#000000" d="M 190.816406 343.386719 L 190.25 337.558594 C 190.1875 336.957031 190.628906 336.421875 191.230469 336.363281 C 191.820312 336.292969 192.367188 336.746094 192.425781 337.347656 L 192.992188 343.179688 C 193.050781 343.777344 192.613281 344.3125 192.011719 344.371094 C 191.441406 344.4375 190.875 344.011719 190.816406 343.386719 Z M 190.816406 343.386719 " fill-opacity="1" fill-rule="nonzero"/><path fill="#000000" d="M 202.488281 349.097656 C 202.074219 351.417969 200.664062 353.40625 198.820312 354.453125 C 199.636719 354.796875 200.519531 355.144531 201.382812 355.300781 C 204.714844 355.902344 207.859375 353.703125 208.191406 351.046875 C 208.226562 350.785156 208.359375 350.566406 208.539062 350.398438 C 206.5625 350.179688 204.761719 349.8125 202.480469 348.839844 C 202.488281 348.925781 202.503906 349.007812 202.488281 349.097656 Z M 202.488281 349.097656 " fill-opacity="1" fill-rule="nonzero"/><path fill="#000000" d="M 192.273438 351.492188 C 193.507812 352.109375 194.761719 352.691406 196.035156 353.253906 C 196.175781 353.136719 196.339844 353.039062 196.53125 353.003906 C 198.351562 352.671875 199.949219 350.867188 200.335938 348.714844 C 200.386719 348.421875 200.554688 348.179688 200.777344 348.019531 C 199.769531 347.484375 198.792969 346.871094 197.855469 346.179688 C 196.792969 347.917969 193.882812 350.234375 192.273438 351.492188 Z M 192.273438 351.492188 " fill-opacity="1" fill-rule="nonzero"/><path fill="#000000" d="M 190.164062 350.371094 C 191.554688 349.324219 195.164062 346.480469 196.050781 344.953125 C 196.082031 344.898438 196.128906 344.867188 196.167969 344.820312 C 195.183594 343.949219 194.523438 342.957031 193.71875 342.339844 C 193.035156 341.816406 193.304688 341.835938 192.675781 342.457031 C 192.320312 342.800781 192.019531 343.203125 191.652344 343.539062 C 189.699219 345.339844 187.257812 346.25 184.566406 346.585938 C 186.332031 348.039062 188.207031 349.277344 190.164062 350.371094 Z M 190.164062 350.371094 " fill-opacity="1" fill-rule="nonzero"/><path fill="#000000" d="M 225.867188 368.109375 C 225.851562 368.226562 225.820312 368.328125 225.820312 368.445312 C 225.632812 368.445312 169.382812 371.566406 169.203125 371.59375 C 169.375 369.667969 169.246094 367.746094 168.835938 366.023438 C 169.074219 366.011719 224.820312 362.730469 224.875 362.703125 L 225.195312 362.6875 L 225.121094 361.636719 C 225.4375 362.738281 225.699219 363.671875 225.835938 365.339844 C 225.941406 366.585938 225.867188 367.738281 225.867188 368.109375 Z M 225.867188 368.109375 " fill-opacity="1" fill-rule="nonzero"/><path fill="#000000" d="M 224.757812 360.527344 C 224.492188 360.527344 209.347656 361.40625 168.210938 363.867188 C 167.648438 362.320312 166.902344 360.9375 165.832031 359.625 C 166.023438 355.617188 166.636719 351.59375 167.246094 347.671875 C 167.421875 346.59375 167.246094 345.703125 167.714844 344.753906 C 171.183594 345.964844 174.800781 346.375 178.375 346.621094 C 179.554688 346.695312 180.734375 346.753906 181.902344 346.738281 C 181.917969 347.03125 182.035156 347.308594 182.265625 347.527344 C 186.84375 351.578125 192.125 353.984375 197.578125 356.300781 C 199.28125 357.03125 200.707031 357.585938 202.492188 357.585938 C 206.316406 357.585938 209.910156 354.953125 210.367188 351.316406 C 210.394531 351.039062 210.320312 350.761719 210.160156 350.558594 C 211.414062 350.660156 212.683594 350.746094 213.921875 350.953125 C 218.476562 351.726562 222.59375 354.816406 224.757812 360.527344 Z M 224.757812 360.527344 " fill-opacity="1" fill-rule="nonzero"/><path fill="#000000" d="M 92.886719 193.882812 L 82.792969 193.882812 C 83.558594 192.609375 89.027344 193.753906 90.714844 193.804688 C 91.445312 193.835938 92.171875 193.867188 92.886719 193.882812 Z M 92.886719 193.882812 " fill-opacity="1" fill-rule="nonzero"/><path fill="#000000" d="M 109.402344 248.757812 C 110.804688 249.097656 111.996094 249.230469 112.902344 249.371094 C 112.667969 249.269531 110.398438 248.875 109.402344 248.757812 Z M 109.402344 248.757812 " fill-opacity="1" fill-rule="nonzero"/><path fill="#000000" d="M 139.753906 345.070312 C 139.152344 345.019531 138.707031 344.488281 138.757812 343.886719 L 139.867188 331.394531 C 139.921875 330.789062 140.449219 330.347656 141.054688 330.402344 C 141.65625 330.453125 142.097656 330.984375 142.046875 331.585938 L 140.9375 344.078125 C 140.886719 344.671875 140.363281 345.125 139.753906 345.070312 Z M 139.753906 345.070312 " fill-opacity="1" fill-rule="nonzero"/><path fill="#000000" d="M 116.605469 342.664062 C 116.019531 342.511719 115.671875 341.914062 115.824219 341.328125 L 118.753906 330.132812 C 118.910156 329.546875 119.515625 329.203125 120.089844 329.351562 C 120.675781 329.503906 121.023438 330.101562 120.871094 330.6875 L 117.941406 341.882812 C 117.789062 342.472656 117.1875 342.816406 116.605469 342.664062 Z M 116.605469 342.664062 " fill-opacity="1" fill-rule="nonzero"/><path fill="#000000" d="M 149.203125 351.621094 C 148.371094 353.828125 146.621094 355.523438 144.613281 356.21875 C 145.355469 356.703125 146.160156 357.207031 146.980469 357.515625 C 149.925781 358.632812 153.578125 357.3125 154.453125 354.570312 C 154.53125 354.320312 154.703125 354.128906 154.90625 353.996094 C 153.050781 353.445312 151.339844 352.757812 149.242188 351.367188 C 149.230469 351.453125 149.234375 351.535156 149.203125 351.621094 Z M 149.203125 351.621094 " fill-opacity="1" fill-rule="nonzero"/><path fill="#000000" d="M 138.71875 352.121094 C 139.820312 352.953125 140.949219 353.75 142.097656 354.535156 C 142.257812 354.445312 142.429688 354.378906 142.625 354.378906 C 142.632812 354.382812 142.636719 354.378906 142.640625 354.378906 C 144.484375 354.378906 146.382812 352.894531 147.152344 350.847656 C 147.257812 350.570312 147.464844 350.363281 147.714844 350.246094 C 146.824219 349.539062 145.980469 348.757812 145.183594 347.90625 C 143.820312 349.425781 140.527344 351.179688 138.71875 352.121094 Z M 138.71875 352.121094 " fill-opacity="1" fill-rule="nonzero"/><path fill="#000000" d="M 110.3125 361.820312 L 110.273438 360.824219 C 110.089844 362.539062 110.003906 364.261719 110.085938 365.996094 C 110.117188 366.535156 110.378906 367.074219 110.683594 367.484375 C 112.496094 367.714844 167.976562 374.792969 168.617188 374.875 C 168.636719 374.722656 169.414062 372.542969 169.242188 369.085938 C 169.0625 369.101562 110.167969 361.800781 110.3125 361.820312 Z M 110.3125 361.820312 " fill-opacity="1" fill-rule="nonzero"/><path fill="#000000" d="M 136.847656 350.632812 C 138.429688 349.847656 142.480469 347.710938 143.628906 346.375 C 143.671875 346.328125 143.726562 346.300781 143.773438 346.265625 C 142.835938 345.058594 142.515625 344.160156 141.816406 343.386719 C 141.234375 342.742188 141.496094 342.816406 140.765625 343.3125 C 140.359375 343.589844 139.980469 343.925781 139.570312 344.1875 C 137.296875 345.621094 134.734375 346.050781 132.039062 345.898438 C 133.507812 347.648438 135.125 349.203125 136.847656 350.632812 Z M 136.847656 350.632812 " fill-opacity="1" fill-rule="nonzero"/><path fill="#000000" d="M 110.460938 359.636719 C 111.011719 359.703125 119.121094 360.714844 120.050781 360.816406 C 118.84375 360.667969 144.113281 363.8125 169.003906 366.898438 C 168.074219 361.660156 165.050781 357.3125 160.117188 355.527344 C 158.925781 355.09375 157.699219 354.773438 156.480469 354.441406 C 156.589844 354.683594 156.625 354.960938 156.539062 355.234375 C 155.570312 358.277344 152.402344 360.109375 149.191406 360.109375 C 146.730469 360.109375 145.09375 359.160156 143.054688 357.8125 C 138.113281 354.546875 133.371094 351.21875 129.605469 346.398438 C 129.417969 346.152344 129.351562 345.855469 129.390625 345.570312 C 128.238281 345.363281 127.089844 345.097656 125.953125 344.800781 C 122.464844 343.910156 118.996094 342.859375 115.804688 341.039062 C 115.175781 341.882812 115.175781 342.789062 114.8125 343.824219 C 112.890625 349.238281 110.953125 354.84375 110.296875 360.574219 Z M 110.460938 359.636719 " fill-opacity="1" fill-rule="nonzero"/><path fill="#000000" d="M 188.476562 223.597656 C 184.074219 220.199219 179.027344 217.75 173.941406 215.476562 C 167.480469 212.574219 160.890625 209.9375 154.210938 207.546875 L 107.171875 207.546875 C 123.003906 212.648438 132.039062 215.078125 139.71875 220.230469 C 146.832031 224.980469 151.484375 231.671875 152.476562 238.570312 C 152.550781 239.167969 152.140625 239.71875 151.542969 239.808594 L 151.382812 239.808594 C 150.855469 239.808594 150.375 239.414062 150.304688 238.875 C 149.398438 232.589844 145.097656 226.453125 138.507812 222.039062 C 132.457031 217.984375 125.355469 215.695312 118.484375 213.496094 L 103.832031 208.757812 C 103.320312 208.597656 103 208.070312 103.085938 207.546875 L 70.191406 207.546875 C 67.347656 207.546875 65.042969 204.964844 65.042969 201.757812 L 65.042969 199.675781 C 65.042969 196.480469 67.347656 193.886719 70.191406 193.886719 L 86.464844 193.886719 C 72.429688 189.429688 56.515625 187.511719 42.121094 191.378906 C 39.832031 191.992188 37.585938 192.75 35.457031 193.742188 C 32.773438 195.023438 34.101562 202.632812 34.203125 204.90625 C 34.585938 216.246094 37.886719 225.027344 44.5 233.246094 C 47.429688 236.898438 51.601562 238.785156 55.988281 240.421875 C 73.085938 246.609375 77.390625 243.621094 90.066406 245.667969 C 109.410156 248.785156 109.246094 248.757812 109.402344 248.757812 C 110.394531 248.875 111.328125 248.949219 112.128906 249.136719 L 112.144531 249.136719 C 113.660156 249.457031 114.457031 250.3125 114.503906 252.125 C 114.882812 266.644531 113.820312 281.328125 113.484375 295.847656 C 113.207031 307.230469 112.929688 318.644531 112.652344 330.046875 C 125.210938 330.683594 141.222656 331.5 148.175781 331.855469 C 148.175781 331.855469 150.492188 264.5625 150.886719 253.148438 C 152.285156 253.367188 153.6875 253.585938 155.070312 253.816406 C 156.265625 254.023438 160.640625 254.078125 161.371094 255.027344 C 161.765625 255.539062 161.445312 256.964844 161.445312 257.5625 C 161.449219 258.089844 159.828125 337.304688 159.824219 337.453125 L 195.738281 337.453125 C 196.148438 337.582031 196.511719 337.917969 196.949219 337.917969 L 200.070312 258.46875 C 202.445312 244.386719 199.660156 232.203125 188.476562 223.597656 Z M 143.757812 323.53125 L 143.683594 323.53125 L 133.824219 322.917969 L 121.664062 322.160156 C 121.066406 322.117188 120.601562 321.589844 120.644531 320.992188 C 120.6875 320.394531 121.199219 319.945312 121.796875 319.972656 L 134.644531 320.773438 L 143.828125 321.34375 C 144.425781 321.386719 144.878906 321.898438 144.851562 322.496094 C 144.804688 323.078125 144.324219 323.53125 143.757812 323.53125 Z M 188.566406 325.703125 C 188.550781 325.703125 188.535156 325.703125 188.535156 325.703125 L 170.835938 325.117188 C 170.222656 325.105469 169.753906 324.59375 169.769531 323.996094 C 169.785156 323.398438 170.292969 322.902344 170.894531 322.933594 L 188.59375 323.515625 C 189.207031 323.53125 189.675781 324.039062 189.660156 324.636719 C 189.644531 325.234375 189.148438 325.703125 188.566406 325.703125 Z M 188.566406 325.703125 " fill-opacity="1" fill-rule="nonzero"/><path fill="#047aff" d="M 107.957031 172.269531 C 107.796875 174.183594 107.789062 176.261719 107.25 178.097656 C 106.734375 179.863281 105.992188 181.585938 105.457031 183.355469 C 104.929688 185.097656 104.402344 186.839844 103.871094 188.582031 C 103.445312 189.988281 103.003906 191.429688 102.125 192.609375 C 99.964844 195.511719 95.296875 194.710938 92.085938 194.738281 C 74.097656 194.910156 52.21875 195.117188 34.277344 195.289062 C 34.277344 190.570312 34.03125 185.917969 34.230469 181.203125 C 35.082031 160.085938 38.675781 139.15625 44.125 118.75 C 47.160156 107.371094 52 94.917969 63.171875 90.097656 C 64.019531 89.734375 64.886719 89.402344 65.796875 89.097656 C 65.628906 90.640625 65.449219 92.195312 65.28125 93.738281 C 69.136719 98.558594 75.507812 100.828125 81.289062 99.4375 C 82.871094 99.058594 84.3125 98 85.375 96.699219 C 86.433594 95.371094 86.285156 93.617188 86.449219 91.941406 C 86.542969 90.925781 86.679688 89.929688 86.800781 88.933594 C 90.03125 90.066406 92.960938 91.847656 95.269531 94.371094 C 101.929688 101.6875 106.785156 111.617188 106.921875 121.53125 C 107.140625 138.214844 109.707031 151.761719 107.957031 172.269531 Z M 107.957031 172.269531 " fill-opacity="1" fill-rule="nonzero"/><path fill="#000000" d="M 64.425781 94.421875 C 64.246094 94.195312 64.160156 93.910156 64.191406 93.621094 C 64.214844 93.449219 66.148438 76.398438 66.164062 76.226562 C 66.230469 75.628906 66.78125 75.199219 67.367188 75.253906 C 67.96875 75.316406 68.402344 75.855469 68.339844 76.457031 C 68.226562 77.539062 66.445312 93.15625 66.417969 93.398438 C 70.015625 97.628906 75.832031 99.621094 81.035156 98.371094 C 82.269531 98.078125 83.539062 97.214844 84.527344 96.007812 C 85.324219 95.007812 85.199219 93.503906 85.363281 91.832031 C 85.679688 88.273438 85.996094 87.691406 86.039062 83.628906 C 86.046875 83.03125 86.535156 82.550781 87.132812 82.550781 C 87.136719 82.550781 87.140625 82.550781 87.148438 82.550781 C 87.75 82.554688 88.234375 83.050781 88.226562 83.65625 C 88.179688 87.773438 87.746094 89.738281 87.539062 92.039062 C 87.367188 93.746094 87.535156 95.746094 86.226562 97.382812 C 84.917969 98.984375 83.257812 100.089844 81.546875 100.5 C 75.414062 101.972656 68.527344 99.550781 64.425781 94.421875 Z M 64.425781 94.421875 " fill-opacity="1" fill-rule="nonzero"/><path fill="#000000" d="M 66.453125 77.171875 C 63.980469 74.570312 62.328125 71.464844 61.417969 67.707031 C 58.394531 68.722656 54.726562 67.609375 53.113281 64.605469 C 52.3125 63.109375 52.089844 61.277344 52.449219 59.164062 C 53.636719 52.167969 59.964844 51.210938 63.820312 54.980469 C 64.253906 55.398438 64.261719 56.09375 63.839844 56.523438 C 63.417969 56.957031 62.726562 56.964844 62.292969 56.542969 C 61.273438 55.546875 59.851562 54.949219 58.660156 54.996094 C 56.253906 55.042969 55.007812 57.148438 54.605469 59.527344 C 54.328125 61.15625 54.472656 62.515625 55.042969 63.570312 C 55.613281 64.636719 56.675781 65.445312 57.882812 65.730469 C 59.222656 66.050781 60.667969 65.847656 61.570312 65.21875 C 62.210938 64.777344 63.117188 65.121094 63.269531 65.90625 L 62.332031 66.316406 L 62.347656 66.335938 L 63.3125 66.148438 C 64.070312 70.003906 65.617188 73.117188 68.039062 75.664062 C 68.457031 76.105469 68.4375 76.796875 68 77.210938 C 67.558594 77.628906 66.867188 77.609375 66.453125 77.171875 Z M 66.453125 77.171875 " fill-opacity="1" fill-rule="nonzero"/><path fill="#000000" d="M 82.867188 85.34375 C 80.054688 85.34375 77.179688 84.496094 74.625 83.273438 C 74.082031 83.015625 73.847656 82.363281 74.109375 81.816406 C 74.371094 81.273438 75.019531 81.039062 75.566406 81.300781 C 77.710938 82.324219 79.867188 82.949219 81.8125 83.113281 C 85.671875 83.421875 89.71875 81.984375 92.964844 79.140625 C 98.75 74.066406 101.613281 65.078125 101.945312 57.257812 C 102.222656 50.621094 100.050781 43.570312 96.28125 38.851562 C 95.90625 38.382812 95.984375 37.695312 96.457031 37.316406 C 96.925781 36.945312 97.613281 37.015625 97.992188 37.488281 C 102.074219 42.601562 104.425781 50.210938 104.128906 57.347656 C 103.773438 65.765625 100.652344 75.304688 94.40625 80.785156 C 91.054688 83.71875 86.914062 85.34375 82.867188 85.34375 Z M 82.867188 85.34375 " fill-opacity="1" fill-rule="nonzero"/><path fill="#000000" d="M 100.691406 56.734375 C 100.398438 56.46875 99.855469 56.34375 99.371094 56.246094 C 97.59375 55.898438 96.171875 55.816406 94.902344 55.996094 C 94.296875 56.085938 93.75 55.667969 93.664062 55.070312 C 93.578125 54.472656 93.992188 53.917969 94.589844 53.832031 C 96.113281 53.613281 97.765625 53.699219 99.796875 54.101562 C 100.570312 54.253906 101.449219 54.472656 102.15625 55.109375 C 102.605469 55.515625 102.640625 56.203125 102.234375 56.652344 C 101.832031 57.101562 101.136719 57.136719 100.691406 56.734375 Z M 100.691406 56.734375 " fill-opacity="1" fill-rule="nonzero"/><path fill="#000000" d="M 58.359375 62.429688 C 57.757812 62.378906 57.3125 61.851562 57.359375 61.25 C 57.417969 60.550781 57.519531 59.808594 57.871094 59.09375 C 59.046875 56.691406 62 56.84375 62.78125 58.703125 C 63.015625 59.261719 62.753906 59.902344 62.195312 60.136719 C 61.644531 60.367188 61.003906 60.109375 60.769531 59.558594 C 60.726562 59.515625 60.574219 59.457031 60.449219 59.484375 C 59.75 59.644531 59.597656 60.714844 59.539062 61.429688 C 59.488281 62.046875 58.9375 62.484375 58.359375 62.429688 Z M 60.773438 59.5625 Z M 60.773438 59.5625 " fill-opacity="1" fill-rule="nonzero"/><path fill="#000000" d="M 87.703125 68.203125 C 87.105469 68.132812 86.675781 67.589844 86.746094 66.988281 C 86.816406 66.390625 87.347656 65.972656 87.960938 66.03125 C 89.839844 66.25 90.460938 65.902344 90.652344 65.570312 C 91 64.960938 90.28125 63.75 89.867188 62.722656 C 89.082031 60.792969 89.128906 58.542969 89.996094 56.550781 C 90.234375 55.996094 90.886719 55.742188 91.433594 55.984375 C 91.988281 56.222656 92.242188 56.867188 92 57.421875 C 91.367188 58.878906 91.328125 60.511719 91.890625 61.902344 C 92.488281 63.351562 93.5 64.992188 92.550781 66.65625 C 91.613281 68.300781 89.578125 68.417969 87.703125 68.203125 Z M 87.703125 68.203125 " fill-opacity="1" fill-rule="nonzero"/><path fill="#000000" d="M 81.363281 55.855469 C 81.554688 55.894531 81.722656 55.996094 81.871094 56.164062 C 82.019531 56.335938 82.140625 56.5625 82.226562 56.839844 C 82.3125 57.121094 82.359375 57.433594 82.371094 57.777344 C 82.378906 58.125 82.351562 58.476562 82.285156 58.835938 C 82.21875 59.195312 82.117188 59.535156 81.980469 59.851562 C 81.847656 60.171875 81.6875 60.445312 81.507812 60.675781 C 81.328125 60.902344 81.136719 61.070312 80.933594 61.175781 C 80.734375 61.28125 80.539062 61.316406 80.347656 61.28125 C 80.160156 61.246094 79.992188 61.140625 79.84375 60.972656 C 79.691406 60.800781 79.574219 60.574219 79.488281 60.296875 C 79.402344 60.015625 79.355469 59.703125 79.34375 59.359375 C 79.332031 59.011719 79.363281 58.660156 79.429688 58.300781 C 79.496094 57.941406 79.597656 57.601562 79.730469 57.285156 C 79.867188 56.964844 80.023438 56.691406 80.207031 56.460938 C 80.386719 56.234375 80.578125 56.066406 80.78125 55.960938 C 80.980469 55.855469 81.175781 55.820312 81.363281 55.855469 Z M 81.363281 55.855469 " fill-opacity="1" fill-rule="nonzero"/><path fill="#000000" d="M 98.140625 58.964844 C 98.332031 59 98.5 59.105469 98.648438 59.273438 C 98.800781 59.445312 98.917969 59.667969 99.003906 59.949219 C 99.089844 60.226562 99.136719 60.539062 99.148438 60.886719 C 99.15625 61.230469 99.128906 61.585938 99.0625 61.945312 C 98.996094 62.304688 98.894531 62.640625 98.757812 62.960938 C 98.625 63.28125 98.46875 63.554688 98.285156 63.78125 C 98.105469 64.011719 97.914062 64.179688 97.710938 64.285156 C 97.511719 64.386719 97.316406 64.421875 97.128906 64.386719 C 96.9375 64.351562 96.769531 64.25 96.621094 64.078125 C 96.46875 63.910156 96.351562 63.683594 96.265625 63.40625 C 96.179688 63.125 96.132812 62.8125 96.121094 62.46875 C 96.113281 62.121094 96.140625 61.769531 96.207031 61.410156 C 96.273438 61.050781 96.375 60.710938 96.511719 60.390625 C 96.644531 60.074219 96.804688 59.800781 96.984375 59.570312 C 97.164062 59.339844 97.355469 59.175781 97.558594 59.070312 C 97.757812 58.964844 97.953125 58.929688 98.140625 58.964844 Z M 98.140625 58.964844 " fill-opacity="1" fill-rule="nonzero"/><path fill="#000000" d="M 73.851562 53.71875 C 73.507812 53.21875 73.632812 52.539062 74.132812 52.195312 C 77.121094 50.132812 81.335938 49.660156 84.859375 50.988281 C 85.425781 51.199219 85.710938 51.828125 85.5 52.394531 C 85.285156 52.960938 84.65625 53.242188 84.09375 53.035156 C 81.253906 51.96875 77.753906 52.355469 75.375 53.996094 C 74.875 54.339844 74.195312 54.214844 73.851562 53.71875 Z M 73.851562 53.71875 " fill-opacity="1" fill-rule="nonzero"/><path fill="#000000" d="M 41.988281 61.179688 C 42.855469 63.019531 44.28125 64.636719 46.003906 65.734375 C 48.894531 67.570312 53.386719 68.539062 56.695312 67.457031 C 54.519531 65.746094 53.363281 63.207031 53.488281 60.433594 C 53.753906 54.628906 59.617188 52.082031 63.707031 56.609375 C 67.996094 53.441406 71.074219 48.683594 72.199219 43.484375 C 75.582031 44.371094 79.085938 45 82.570312 44.695312 C 86.054688 44.386719 89.546875 43.066406 91.945312 40.527344 C 91.476562 41.023438 97.390625 45.6875 97.980469 46.078125 C 100.203125 47.539062 102.96875 49.128906 105.667969 49.257812 C 111.164062 49.523438 116.941406 45.730469 119.695312 41.191406 C 116.128906 40.160156 113.738281 36.761719 112.488281 33.28125 C 111.242188 29.796875 110.847656 26.058594 109.65625 22.554688 C 105.832031 11.304688 94.183594 5.652344 85.207031 14.097656 C 83.839844 15.386719 84.222656 15.449219 82.890625 13.964844 C 81.894531 12.855469 80.921875 11.804688 79.707031 10.914062 C 71.679688 5.007812 57.84375 6.246094 55.144531 15.746094 C 54.09375 19.453125 55.324219 22.839844 55.023438 26.460938 C 51.917969 25.679688 48.921875 25.699219 46.042969 27.285156 C 41.722656 29.660156 39.175781 34.742188 39.242188 38.199219 C 39.292969 40.808594 40.734375 43.234375 42.628906 45.03125 C 44.523438 46.832031 46.851562 48.097656 49.152344 49.34375 C 44.070312 48.832031 38.921875 54.691406 41.988281 61.179688 Z M 41.988281 61.179688 " fill-opacity="1" fill-rule="nonzero"/><path fill="#000000" d="M 81.3125 73.527344 C 80.882812 73.101562 80.878906 72.410156 81.304688 71.980469 C 81.730469 71.554688 82.421875 71.546875 82.851562 71.972656 C 84.035156 73.148438 86.105469 74.203125 87.609375 73.84375 C 88.191406 73.707031 88.789062 74.0625 88.929688 74.652344 C 89.070312 75.238281 88.707031 75.828125 88.121094 75.96875 C 85.753906 76.535156 83.019531 75.21875 81.3125 73.527344 Z M 81.3125 73.527344 " fill-opacity="1" fill-rule="nonzero"/><path fill="#047aff" d="M 111.019531 161.144531 C 108.289062 172.027344 105.558594 183.527344 104.117188 189.589844 C 103.507812 192.113281 101.476562 193.882812 99.136719 193.882812 L 98.015625 193.882812 C 93.035156 193.519531 88.875 193.167969 81.5625 190.980469 C 75.347656 189.101562 72.414062 188.261719 66.570312 181.488281 C 57.191406 170.605469 50.863281 157.15625 48.464844 143.023438 L 78.816406 113.6875 L 84.449219 155.886719 C 86.570312 156.550781 88.789062 156.972656 90.804688 157.941406 C 91.367188 158.03125 91.945312 158.121094 92.519531 158.214844 C 98.683594 159.195312 104.859375 160.164062 111.019531 161.144531 Z M 111.019531 161.144531 " fill-opacity="1" fill-rule="nonzero"/><path fill="#000000" d="M 110.910156 162.644531 L 89.777344 159.523438 C 89.289062 159.453125 88.910156 159.0625 88.851562 158.574219 L 86.40625 138.347656 C 86.328125 138.25 86.269531 138.15625 86.21875 138.085938 C 85.800781 137.652344 85.785156 136.917969 86.222656 136.496094 C 86.65625 136.078125 87.320312 136.050781 87.742188 136.488281 C 87.851562 136.601562 87.945312 136.734375 88.039062 136.871094 C 88.0625 136.90625 88.070312 136.917969 88.066406 136.917969 C 88.320312 137.097656 88.492188 137.375 88.53125 137.691406 L 90.921875 157.484375 L 111.226562 160.480469 C 111.824219 160.570312 112.238281 161.125 112.152344 161.722656 C 112.066406 162.292969 111.546875 162.730469 110.910156 162.644531 Z M 110.910156 162.644531 " fill-opacity="1" fill-rule="nonzero"/><path fill="#000000" d="M 94.777344 193.671875 C 89.292969 193.332031 83.621094 192.980469 78.164062 191.550781 C 71.976562 189.925781 66.886719 187.027344 63.441406 183.167969 C 57.144531 176.113281 56.09375 166.234375 55.507812 155.878906 C 55.472656 155.277344 55.933594 154.761719 56.535156 154.726562 C 57.128906 154.660156 57.65625 155.152344 57.691406 155.753906 C 58.257812 165.710938 59.246094 175.183594 65.074219 181.714844 C 68.230469 185.25 72.949219 187.921875 78.71875 189.433594 C 83.96875 190.8125 89.53125 191.15625 94.910156 191.484375 C 95.515625 191.523438 95.972656 192.042969 95.9375 192.644531 C 95.898438 193.257812 95.371094 193.707031 94.777344 193.671875 Z M 94.777344 193.671875 " fill-opacity="1" fill-rule="nonzero"/><path fill="#000000" d="M 191.921875 208.640625 L 70.191406 208.640625 C 66.75 208.640625 63.949219 205.554688 63.949219 201.757812 L 63.949219 199.675781 C 63.949219 195.878906 66.75 192.792969 70.191406 192.792969 L 99.136719 192.792969 C 100.953125 192.792969 102.5625 191.371094 103.042969 189.335938 C 113.007812 147.773438 111.464844 155.488281 116.445312 135.824219 C 117.21875 132.738281 119.734375 130.664062 122.667969 130.765625 C 123.992188 130.808594 210.175781 133.789062 210.390625 133.796875 C 210.539062 133.839844 213.179688 133.753906 215.082031 136.414062 C 216.386719 138.242188 216.773438 140.652344 216.105469 142.855469 L 197.839844 203.910156 C 197.015625 206.734375 194.636719 208.640625 191.921875 208.640625 Z M 70.191406 194.980469 C 67.957031 194.980469 66.136719 197.085938 66.136719 199.675781 L 66.136719 201.757812 C 66.136719 204.347656 67.957031 206.453125 70.191406 206.453125 L 191.921875 206.453125 C 193.65625 206.453125 195.191406 205.179688 195.742188 203.289062 L 214.011719 142.230469 C 214.886719 139.324219 213.109375 136.089844 210.3125 135.980469 C 210.066406 135.972656 122.828125 132.957031 122.589844 132.949219 C 120.765625 132.835938 119.085938 134.28125 118.570312 136.351562 C 114.066406 154.050781 114.09375 152.617188 106.335938 184.996094 L 105.171875 189.84375 C 104.453125 192.867188 101.972656 194.980469 99.136719 194.980469 Z M 70.191406 194.980469 " fill-opacity="1" fill-rule="nonzero"/><path fill="#000000" d="M 167.3125 163.957031 L 168.292969 168.601562 C 168.398438 169.09375 168.738281 169.457031 169.203125 169.570312 L 173.59375 170.640625 C 174.761719 170.925781 174.867188 172.585938 173.765625 173.449219 L 169.640625 176.691406 C 169.203125 177.035156 168.917969 177.554688 168.878906 178.085938 L 168.492188 183.078125 C 168.390625 184.410156 166.878906 185.316406 165.9375 184.613281 L 162.410156 181.96875 C 162.035156 181.691406 161.519531 181.648438 161.03125 181.863281 L 156.402344 183.878906 C 155.167969 184.417969 154.132812 183.316406 154.652344 182.015625 L 156.59375 177.140625 C 156.800781 176.625 156.765625 176.082031 156.503906 175.683594 L 154.03125 171.9375 C 153.371094 170.9375 154.238281 169.347656 155.5 169.25 L 160.230469 168.882812 C 160.730469 168.839844 161.226562 168.542969 161.554688 168.085938 L 164.652344 163.753906 C 165.480469 162.597656 167.054688 162.71875 167.3125 163.957031 Z M 167.3125 163.957031 " fill-opacity="1" fill-rule="nonzero"/><path fill="#000000" d="M 107.089844 145.011719 C 106.957031 142.289062 106.46875 139.589844 105.640625 137 C 105.453125 136.425781 105.769531 135.808594 106.34375 135.625 C 106.917969 135.441406 107.535156 135.753906 107.71875 136.328125 C 108.613281 139.105469 109.132812 141.992188 109.273438 144.90625 C 109.300781 145.507812 108.835938 146.023438 108.230469 146.050781 C 107.691406 146.09375 107.117188 145.648438 107.089844 145.011719 Z M 107.089844 145.011719 " fill-opacity="1" fill-rule="nonzero"/><path fill="#000000" d="M 271.808594 98.722656 C 271.574219 98.429688 271.160156 98.460938 270.785156 98.460938 L 232.40625 98.613281 C 231.527344 98.671875 230.5625 98.679688 229.871094 98.136719 C 229.175781 97.589844 228.976562 96.636719 228.894531 95.761719 C 228.738281 94.128906 228.445312 90.960938 229.613281 89.585938 C 230.875 88.101562 234.503906 87.523438 236.3125 87.035156 C 252.597656 82.628906 266.085938 88.824219 271.808594 98.722656 Z M 271.808594 98.722656 " fill-opacity="1" fill-rule="nonzero"/><path fill="#000000" d="M 280.328125 84.367188 C 282.863281 83.558594 285.429688 82.800781 288.070312 82.433594 C 289.570312 82.222656 293.429688 81.5 294.433594 82.921875 C 294.910156 83.601562 294.789062 85.285156 294.863281 86.078125 C 295.222656 89.871094 295.167969 93.742188 293.9375 97.359375 C 293.503906 98.636719 293.074219 99.09375 291.632812 99.433594 C 286.992188 100.519531 282.15625 99.257812 277.390625 99.171875 C 274.296875 99.117188 271.1875 99.558594 268.117188 99.171875 C 265.238281 99.171875 263.832031 97.222656 263.171875 94.800781 C 262.984375 94.101562 263.042969 93.863281 263.574219 93.382812 C 269.039062 88.410156 274.1875 86.324219 280.328125 84.367188 Z M 280.328125 84.367188 " fill-opacity="1" fill-rule="nonzero"/><path fill="#047aff" d="M 289.460938 100.089844 L 234.171875 100.089844 C 230.546875 100.089844 227.597656 97.144531 227.597656 93.519531 L 227.597656 59.933594 C 227.597656 56.308594 230.546875 53.363281 234.171875 53.363281 L 289.460938 53.363281 C 293.085938 53.363281 296.035156 56.308594 296.035156 59.933594 L 296.035156 93.519531 C 296.035156 97.144531 293.085938 100.089844 289.460938 100.089844 Z M 234.171875 55.546875 C 231.753906 55.546875 229.785156 57.515625 229.785156 59.933594 L 229.785156 93.519531 C 229.785156 95.9375 231.753906 97.90625 234.171875 97.90625 L 289.460938 97.90625 C 291.878906 97.90625 293.847656 95.9375 293.847656 93.519531 L 293.847656 59.933594 C 293.847656 57.515625 291.878906 55.546875 289.460938 55.546875 Z M 234.171875 55.546875 " fill-opacity="1" fill-rule="nonzero"/><path fill="#000000" d="M 272.234375 69.101562 C 270.882812 67.949219 269.554688 66.933594 268.15625 67.007812 C 267.570312 67.085938 267.035156 66.589844 266.996094 65.988281 C 266.957031 65.382812 267.417969 64.863281 268.019531 64.828125 C 269.882812 64.714844 271.410156 65.628906 272.820312 66.746094 C 273.613281 66.09375 274.699219 65.730469 275.871094 65.785156 C 277.25 65.851562 278.480469 66.4375 279.503906 67 C 280.035156 67.292969 280.226562 67.957031 279.9375 68.484375 C 279.644531 69.015625 278.976562 69.203125 278.449219 68.917969 C 277.644531 68.472656 276.699219 68.015625 275.765625 67.96875 C 274.96875 67.960938 274.195312 68.273438 273.898438 68.800781 C 273.738281 69.089844 273.460938 69.289062 273.136719 69.347656 C 272.804688 69.40625 272.476562 69.308594 272.234375 69.101562 Z M 272.234375 69.101562 " fill-opacity="1" fill-rule="nonzero"/><path fill="#047aff" d="M 251.417969 69.195312 C 251.417969 69.507812 251.390625 69.816406 251.328125 70.121094 C 251.265625 70.429688 251.175781 70.726562 251.054688 71.015625 C 250.9375 71.304688 250.789062 71.578125 250.613281 71.835938 C 250.441406 72.097656 250.242188 72.335938 250.019531 72.558594 C 249.796875 72.777344 249.558594 72.976562 249.296875 73.148438 C 249.035156 73.324219 248.761719 73.46875 248.46875 73.589844 C 248.179688 73.707031 247.882812 73.800781 247.574219 73.859375 C 247.265625 73.921875 246.957031 73.953125 246.640625 73.953125 C 246.328125 73.953125 246.019531 73.921875 245.710938 73.859375 C 245.402344 73.800781 245.105469 73.707031 244.8125 73.589844 C 244.523438 73.46875 244.25 73.324219 243.988281 73.148438 C 243.726562 72.976562 243.488281 72.777344 243.265625 72.558594 C 243.042969 72.335938 242.84375 72.097656 242.671875 71.835938 C 242.496094 71.578125 242.347656 71.304688 242.230469 71.015625 C 242.109375 70.726562 242.019531 70.429688 241.957031 70.121094 C 241.894531 69.816406 241.867188 69.507812 241.867188 69.195312 C 241.867188 68.882812 241.894531 68.574219 241.957031 68.265625 C 242.019531 67.960938 242.109375 67.664062 242.230469 67.375 C 242.347656 67.085938 242.496094 66.8125 242.671875 66.550781 C 242.84375 66.292969 243.042969 66.050781 243.265625 65.832031 C 243.488281 65.609375 243.726562 65.414062 243.988281 65.238281 C 244.25 65.066406 244.523438 64.917969 244.8125 64.800781 C 245.105469 64.679688 245.402344 64.589844 245.710938 64.527344 C 246.019531 64.46875 246.328125 64.4375 246.640625 64.4375 C 246.957031 64.4375 247.265625 64.46875 247.574219 64.527344 C 247.882812 64.589844 248.179688 64.679688 248.46875 64.800781 C 248.761719 64.917969 249.035156 65.066406 249.296875 65.238281 C 249.558594 65.414062 249.796875 65.609375 250.019531 65.832031 C 250.242188 66.050781 250.441406 66.292969 250.613281 66.550781 C 250.789062 66.8125 250.9375 67.085938 251.054688 67.375 C 251.175781 67.664062 251.265625 67.960938 251.328125 68.265625 C 251.390625 68.574219 251.417969 68.882812 251.417969 69.195312 Z M 251.417969 69.195312 " fill-opacity="1" fill-rule="nonzero"/><path fill="#000000" d="M 240.34375 299.703125 C 233.085938 298.804688 222.617188 296.796875 215.578125 289.792969 C 209.640625 283.886719 206.507812 274.730469 206.761719 264.011719 C 206.925781 257.175781 208.332031 250.402344 209.691406 243.847656 C 211.214844 236.523438 212.339844 232.039062 211.101562 228.496094 C 210.628906 227.140625 209.808594 226 208.800781 225.285156 C 205.242188 222.773438 199.855469 225.199219 194.941406 224.816406 C 190.40625 224.476562 186.179688 221.339844 184.171875 216.828125 C 183.226562 214.703125 183.832031 211.898438 183.230469 210.613281 C 182.667969 209.410156 179.617188 208.714844 177.976562 208.34375 L 177.207031 208.164062 C 176.621094 208.023438 176.257812 207.433594 176.398438 206.847656 C 176.539062 206.257812 177.128906 205.90625 177.71875 206.039062 C 180.285156 206.621094 184.113281 207.335938 185.214844 209.6875 C 186.089844 211.5625 185.433594 214.285156 186.171875 215.941406 C 187.832031 219.667969 191.421875 222.359375 195.105469 222.632812 C 199.816406 223.003906 205.613281 220.355469 210.0625 223.5 C 211.441406 224.476562 212.542969 225.992188 213.164062 227.773438 C 214.269531 230.941406 213.785156 234.3125 213.195312 237.492188 C 211.574219 246.222656 209.160156 255.160156 208.949219 264.0625 C 208.8125 269.921875 209.6875 280.851562 217.121094 288.242188 C 223.683594 294.773438 233.671875 296.671875 240.613281 297.535156 C 251.402344 298.871094 262.472656 298.445312 272.832031 297.78125 C 280.035156 297.320312 289.734375 295.1875 295 287.652344 C 298.980469 281.953125 299.726562 273.765625 296.992188 265.746094 C 294.640625 258.839844 290.324219 252.859375 284.566406 246 C 279.441406 239.90625 274.042969 232.003906 277.769531 224.917969 C 280.246094 220.210938 285.710938 218.460938 290.003906 218.394531 C 298.996094 218.324219 305.742188 223.433594 328.171875 226.050781 C 333.6875 226.691406 339.457031 226.964844 344.289062 224.632812 C 353.023438 220.421875 355.613281 208.722656 353.007812 200.296875 C 350.46875 192.097656 344.136719 185.1875 342.234375 176.480469 C 339.5625 164.289062 346.058594 152.4375 353.472656 141.449219 C 363.160156 127.097656 373.421875 110.894531 361.390625 98.183594 C 359.578125 96.269531 357.285156 94.871094 354.902344 93.492188 C 348.464844 89.765625 340.898438 86.160156 333.582031 87.65625 C 332.992188 87.777344 332.414062 87.398438 332.292969 86.804688 C 332.171875 86.214844 332.550781 85.636719 333.144531 85.515625 C 341.1875 83.871094 349.207031 87.667969 355.996094 91.597656 C 358.425781 93.003906 360.96875 94.554688 362.980469 96.679688 C 376.605469 111.078125 363.910156 129.890625 355.511719 142.339844 L 355.285156 142.671875 C 348.140625 153.257812 341.875 164.625 344.367188 176.011719 C 346.15625 184.175781 352.515625 191.300781 355.097656 199.648438 C 358.035156 209.144531 355.152344 221.824219 345.242188 226.605469 C 339.90625 229.175781 333.761719 228.902344 327.921875 228.222656 C 305.53125 225.613281 298.414062 220.507812 290.035156 220.578125 C 285.433594 220.652344 281.378906 222.753906 279.707031 225.933594 C 276.582031 231.867188 281.558594 239.023438 286.238281 244.59375 C 291.007812 250.273438 296.324219 257.003906 299.0625 265.042969 C 302.019531 273.71875 301.171875 282.636719 296.792969 288.90625 C 291.027344 297.15625 280.65625 299.472656 272.96875 299.964844 C 262.15625 300.65625 251.132812 301.046875 240.34375 299.703125 Z M 240.34375 299.703125 " fill-opacity="1" fill-rule="nonzero"/><path fill="#000000" d="M 211.578125 74.792969 L 115.542969 74.792969 C 114.941406 74.792969 114.449219 74.304688 114.449219 73.699219 C 114.449219 73.097656 114.941406 72.609375 115.542969 72.609375 L 211.578125 72.609375 C 212.183594 72.609375 212.671875 73.097656 212.671875 73.699219 C 212.671875 74.304688 212.183594 74.792969 211.578125 74.792969 Z M 211.578125 74.792969 " fill-opacity="1" fill-rule="nonzero"/><path fill="#000000" d="M 184.363281 87.972656 L 116.679688 87.972656 C 116.074219 87.972656 115.585938 87.484375 115.585938 86.882812 C 115.585938 86.277344 116.074219 85.789062 116.679688 85.789062 L 184.363281 85.789062 C 184.964844 85.789062 185.457031 86.277344 185.457031 86.882812 C 185.457031 87.484375 184.964844 87.972656 184.363281 87.972656 Z M 184.363281 87.972656 " fill-opacity="1" fill-rule="nonzero"/><path fill="#047aff" d="M 201.296875 115.988281 L 123.960938 115.988281 C 123.355469 115.988281 122.867188 115.5 122.867188 114.894531 C 122.867188 114.292969 123.355469 113.800781 123.960938 113.800781 L 201.296875 113.800781 C 201.902344 113.800781 202.390625 114.292969 202.390625 114.894531 C 202.390625 115.5 201.902344 115.988281 201.296875 115.988281 Z M 201.296875 115.988281 " fill-opacity="1" fill-rule="nonzero"/></svg>