<svg xmlns="http://www.w3.org/2000/svg" xmlns:xlink="http://www.w3.org/1999/xlink" width="500" zoomAndPan="magnify" viewBox="0 0 375 374.999991" height="500" preserveAspectRatio="xMidYMid meet" version="1.0"><defs><clipPath id="d7a1c3be0f"><path d="M 1 271 L 68 271 L 68 337.21875 L 1 337.21875 Z M 1 271 " clip-rule="nonzero"/></clipPath><clipPath id="9282585b89"><path d="M 79 271 L 146 271 L 146 337.21875 L 79 337.21875 Z M 79 271 " clip-rule="nonzero"/></clipPath><clipPath id="fe3720825d"><path d="M 155 271 L 222 271 L 222 337.21875 L 155 337.21875 Z M 155 271 " clip-rule="nonzero"/></clipPath><clipPath id="2db8630f6d"><path d="M 231 271 L 298 271 L 298 337.21875 L 231 337.21875 Z M 231 271 " clip-rule="nonzero"/></clipPath><clipPath id="d6d8d689a5"><path d="M 309 271 L 375 271 L 375 337.21875 L 309 337.21875 Z M 309 271 " clip-rule="nonzero"/></clipPath><clipPath id="e814339d24"><path d="M 1 271 L 68 271 L 68 337.21875 L 1 337.21875 Z M 1 271 " clip-rule="nonzero"/></clipPath><clipPath id="7e8805e48e"><path d="M 79 271 L 146 271 L 146 337.21875 L 79 337.21875 Z M 79 271 " clip-rule="nonzero"/></clipPath><clipPath id="382b6e4904"><path d="M 155 271 L 222 271 L 222 337.21875 L 155 337.21875 Z M 155 271 " clip-rule="nonzero"/></clipPath><clipPath id="80d97f84af"><path d="M 231 271 L 298 271 L 298 337.21875 L 231 337.21875 Z M 231 271 " clip-rule="nonzero"/></clipPath><clipPath id="3027db779d"><path d="M 309 271 L 375 271 L 375 337.21875 L 309 337.21875 Z M 309 271 " clip-rule="nonzero"/></clipPath></defs><rect x="-37.5" width="450" fill="#ffffff" y="-37.499999" height="449.999989" fill-opacity="1"/><rect x="-37.5" width="450" fill="#ffffff" y="-37.499999" height="449.999989" fill-opacity="1"/><path fill="#0e1e72" d="M 41.34375 134.796875 C 42.839844 135.492188 44.1875 136.082031 45.304688 136.523438 C 44.714844 134.796875 44.164062 133.113281 43.679688 131.511719 C 42.523438 127.699219 41.554688 124.035156 40.753906 120.601562 C 38.332031 119.441406 30.582031 114.789062 27.023438 101.710938 C 22.789062 86.082031 40.394531 67.652344 40.394531 67.652344 C 56.71875 98.316406 47.746094 114.386719 43.40625 119.296875 C 44.25 122.960938 45.304688 126.960938 46.589844 131.132812 C 47.074219 132.691406 47.597656 134.3125 48.1875 135.976562 C 48.695312 135.21875 49.222656 134.292969 49.769531 133.21875 C 46.902344 126.433594 44.125 109.207031 66.386719 85.175781 C 66.386719 85.175781 78.6875 107.5 70.597656 121.527344 C 62.511719 135.554688 51.707031 136.417969 51.707031 136.417969 C 51.683594 136.460938 51.578125 136.375 51.433594 136.207031 C 50.777344 137.34375 50.085938 138.355469 49.347656 139.242188 C 52.675781 148.171875 57.394531 158.195312 64.007812 167.464844 C 64.804688 166.746094 65.542969 165.90625 66.21875 164.957031 C 62.996094 159.859375 56.382812 142.105469 79.066406 114.453125 C 79.066406 114.453125 92.691406 135.996094 85.46875 150.488281 C 79.84375 161.753906 72.09375 165.167969 68.933594 166.136719 C 67.988281 167.570312 66.914062 168.789062 65.734375 169.800781 C 69.1875 174.371094 73.125 178.710938 77.589844 182.605469 C 78.203125 183.132812 78.265625 184.039062 77.738281 184.648438 C 77.527344 184.902344 77.253906 185.050781 76.957031 185.113281 C 76.539062 185.195312 76.054688 185.089844 75.695312 184.796875 C 70.933594 180.648438 66.765625 176.015625 63.121094 171.148438 C 62.34375 171.296875 61.078125 171.507812 59.5 171.632812 C 59.5 171.84375 59.476562 171.949219 59.4375 171.949219 C 59.4375 171.949219 51.054688 178.816406 35.507812 174.328125 C 19.964844 169.84375 13.332031 145.203125 13.332031 145.203125 C 46.820312 147.117188 56.445312 162.113281 58.804688 168.789062 C 59.710938 168.726562 60.53125 168.644531 61.203125 168.539062 C 54.632812 159.164062 49.914062 149.097656 46.589844 140.105469 C 45.449219 139.703125 42.988281 138.796875 40.015625 137.410156 C 36.984375 138.609375 28.769531 140.800781 17.292969 135.386719 C 2.652344 128.5 0 103.140625 0 103.140625 C 34.855469 110.765625 40.691406 128.773438 41.34375 134.796875 Z M 41.34375 134.796875 " fill-opacity="1" fill-rule="nonzero"/><path fill="#ffffff" d="M 204.886719 102.929688 C 204.886719 102.929688 209.160156 143.03125 209.773438 143.03125 C 210.382812 143.03125 215.523438 144.421875 216.070312 148.738281 C 216.636719 153.035156 208.949219 153.792969 208.949219 153.792969 C 208.949219 153.792969 202.96875 147.6875 203.011719 148.421875 C 203.054688 149.160156 199.179688 98.234375 199.179688 98.234375 Z M 204.886719 102.929688 " fill-opacity="1" fill-rule="nonzero"/><path fill="#000000" d="M 192.058594 153.773438 L 182.097656 153.773438 C 174.429688 153.773438 168.21875 147.558594 168.21875 139.894531 L 169.480469 124.773438 L 204.378906 124.078125 L 205.917969 139.894531 C 205.917969 147.558594 199.726562 153.773438 192.058594 153.773438 Z M 192.058594 153.773438 " fill-opacity="1" fill-rule="nonzero"/><path fill="#0e1e72" d="M 162.59375 147.328125 L 221.96875 271.78125 L 273.273438 271.78125 L 213.921875 147.328125 Z M 162.59375 147.328125 " fill-opacity="1" fill-rule="nonzero"/><path fill="#0e1e72" d="M 54.738281 177.488281 L 99.707031 271.78125 L 151.011719 271.78125 L 106.066406 177.488281 Z M 54.738281 177.488281 " fill-opacity="1" fill-rule="nonzero"/><path fill="#0e1e72" d="M 214.046875 147.328125 L 154.695312 271.78125 L 103.390625 271.78125 L 162.722656 147.328125 Z M 214.046875 147.328125 " fill-opacity="1" fill-rule="nonzero"/><path fill="#0e1e72" d="M 101.539062 177.488281 L 56.570312 271.78125 L 5.265625 271.78125 L 50.210938 177.488281 Z M 101.539062 177.488281 " fill-opacity="1" fill-rule="nonzero"/><path fill="#0e1e72" d="M 373.1875 145.203125 L 346.1875 131.300781 L 343.449219 137.007812 L 295.410156 237.746094 L 279.171875 271.78125 L 227.863281 271.78125 L 292.121094 137.007812 L 304.96875 110.113281 L 277.527344 96 L 353.496094 65.882812 Z M 373.1875 145.203125 " fill-opacity="1" fill-rule="nonzero"/><g clip-path="url(#d7a1c3be0f)"><path fill="#000000" d="M 1.726562 271.78125 L 67.398438 271.78125 L 67.398438 337.449219 L 1.726562 337.449219 Z M 1.726562 271.78125 " fill-opacity="1" fill-rule="nonzero"/></g><g clip-path="url(#9282585b89)"><path fill="#000000" d="M 79.464844 271.78125 L 145.136719 271.78125 L 145.136719 337.449219 L 79.464844 337.449219 Z M 79.464844 271.78125 " fill-opacity="1" fill-rule="nonzero"/></g><g clip-path="url(#fe3720825d)"><path fill="#000000" d="M 155.496094 271.78125 L 221.167969 271.78125 L 221.167969 337.449219 L 155.496094 337.449219 Z M 155.496094 271.78125 " fill-opacity="1" fill-rule="nonzero"/></g><g clip-path="url(#2db8630f6d)"><path fill="#000000" d="M 231.507812 271.78125 L 297.179688 271.78125 L 297.179688 337.449219 L 231.507812 337.449219 Z M 231.507812 271.78125 " fill-opacity="1" fill-rule="nonzero"/></g><g clip-path="url(#d6d8d689a5)"><path fill="#000000" d="M 309.332031 271.78125 L 375 271.78125 L 375 337.449219 L 309.332031 337.449219 Z M 309.332031 271.78125 " fill-opacity="1" fill-rule="nonzero"/></g><path fill="#047aff" d="M 44.859375 303.078125 C 44.546875 302.867188 44.230469 302.636719 43.914062 302.425781 C 48.25 299.496094 50.546875 295.476562 49.515625 290.144531 C 48.503906 284.964844 44.714844 281.46875 39.871094 279.722656 C 35.046875 277.953125 29.863281 277.910156 24.832031 278.4375 C 22.683594 278.667969 20.070312 277.785156 18.578125 279.847656 C 17.25 281.679688 17.691406 284.628906 17.691406 286.753906 C 17.671875 298.507812 17.671875 310.261719 17.671875 322.011719 C 17.671875 324.011719 17.269531 326.539062 18.765625 328.121094 C 19.480469 328.878906 20.472656 329.109375 21.292969 329.679688 C 22.515625 330.519531 23.398438 330.984375 24.9375 331.070312 C 29.949219 331.320312 35.339844 330.835938 40.121094 329.300781 C 45.34375 327.613281 50.042969 324.183594 51.222656 318.558594 C 52.421875 312.765625 49.640625 306.40625 44.859375 303.078125 Z M 26.304688 286.019531 C 31.148438 285.785156 41.597656 285.386719 41.996094 292.421875 C 42.164062 295.644531 37.761719 296.675781 35.320312 297.390625 C 32.117188 298.339844 28.792969 298.65625 25.484375 298.90625 C 25.335938 296.484375 25.441406 294.0625 25.441406 291.640625 C 25.421875 290.484375 24.707031 286.082031 26.304688 286.019531 Z M 41.132812 320.328125 C 38.816406 321.824219 36.140625 322.476562 33.425781 322.769531 C 31.972656 322.9375 30.519531 323.003906 29.066406 323.109375 C 28.390625 323.148438 26.433594 323.65625 25.777344 323.234375 C 25.019531 322.75 25.441406 320.980469 25.441406 320.199219 C 25.464844 318.578125 25.441406 316.980469 25.441406 315.355469 C 25.441406 313.96875 25.441406 312.597656 25.441406 311.207031 C 25.441406 310.386719 25.105469 308.324219 25.800781 307.816406 C 26.367188 307.417969 28.160156 307.5 28.8125 307.4375 C 30.097656 307.3125 31.382812 307.25 32.667969 307.269531 C 34.878906 307.3125 37.171875 307.648438 39.152344 308.636719 C 43.386719 310.828125 45.808594 317.292969 41.132812 320.328125 Z M 41.132812 320.328125 " fill-opacity="1" fill-rule="nonzero"/><path fill="#047aff" d="M 121.230469 307.058594 C 120.621094 305.984375 120.789062 306.046875 121.777344 305.4375 C 122.640625 304.890625 123.460938 304.300781 124.242188 303.648438 C 125.949219 302.234375 127.402344 300.53125 128.453125 298.59375 C 130.625 294.589844 130.75 289.808594 128.582031 285.765625 C 123.988281 277.257812 112.761719 276.960938 104.316406 278.035156 C 100.378906 278.542969 95.304688 279.996094 94.714844 284.671875 C 94.125 289.304688 94.417969 294.316406 94.480469 298.972656 C 94.566406 304.066406 94.691406 309.164062 94.820312 314.261719 C 94.882812 316.851562 94.964844 319.441406 95.007812 322.054688 C 95.050781 324.160156 94.691406 326.667969 95.261719 328.710938 C 95.828125 330.773438 98.019531 332.101562 100.125 331.425781 C 102.570312 330.625 102.863281 328.078125 102.820312 325.867188 C 102.71875 320.160156 102.464844 314.429688 102.464844 308.722656 C 105.351562 308.996094 108.277344 309.164062 111.183594 308.933594 C 112.449219 308.828125 112.953125 308.53125 113.730469 309.605469 C 114.46875 310.617188 114.953125 311.925781 115.523438 313.039062 C 116.933594 315.734375 118.34375 318.453125 119.691406 321.171875 C 120.914062 323.65625 121.757812 326.605469 123.335938 328.878906 C 124.726562 330.898438 127.632812 331.300781 129.339844 329.425781 C 131.234375 327.363281 129.90625 324.8125 128.9375 322.664062 C 126.558594 317.378906 124.09375 312.113281 121.230469 307.058594 Z M 115.605469 299.917969 C 112.953125 301.121094 110.003906 301.351562 107.117188 301.246094 C 106.128906 301.203125 103.664062 301.457031 102.757812 300.972656 C 101.832031 300.445312 102.191406 299.183594 102.210938 298.171875 C 102.253906 295.160156 102.296875 292.148438 102.335938 289.113281 C 102.335938 288.441406 102.0625 286.988281 102.507812 286.441406 C 103.054688 285.765625 105.222656 285.890625 106.023438 285.785156 C 108.507812 285.492188 110.613281 285.261719 113.078125 285.574219 C 115.648438 285.914062 118.40625 286.144531 120.429688 287.914062 C 125.421875 292.253906 119.902344 297.980469 115.605469 299.917969 Z M 115.605469 299.917969 " fill-opacity="1" fill-rule="nonzero"/><path fill="#047aff" d="M 282.351562 320.9375 C 282.308594 314.261719 282.289062 307.585938 282.265625 300.910156 C 282.246094 297.792969 282.246094 294.675781 282.222656 291.558594 C 282.222656 289.765625 282.203125 288 282.203125 286.207031 C 282.203125 284.839844 282.351562 283.300781 281.90625 281.996094 C 281.042969 279.445312 277.800781 278.476562 275.738281 280.3125 C 273.652344 282.183594 274.429688 286.125 274.453125 288.628906 C 274.472656 295.8125 274.515625 302.972656 274.515625 310.15625 C 270.597656 305.269531 267.292969 299.792969 263.710938 294.652344 C 261.941406 292.125 260.171875 289.621094 258.425781 287.09375 C 256.867188 284.882812 255.265625 281.765625 252.273438 281.46875 C 249.558594 281.195312 247.242188 282.734375 247.007812 285.511719 C 246.757812 288.609375 247.199219 291.851562 247.09375 294.96875 C 246.882812 301.371094 246.628906 307.773438 246.378906 314.175781 C 246.273438 317.1875 246.105469 320.199219 246.0625 323.234375 C 246.019531 325.761719 246.082031 328.816406 249.199219 329.425781 C 251.894531 329.953125 253.582031 327.71875 253.8125 325.296875 C 254.085938 322.371094 254.042969 319.378906 254.148438 316.429688 C 254.378906 310.089844 254.863281 303.730469 254.78125 297.390625 C 254.78125 296.886719 254.527344 296.085938 255.140625 296.210938 C 255.8125 296.339844 257.140625 299.035156 257.5625 299.667969 C 259.394531 302.300781 261.332031 304.847656 263.164062 307.480469 C 267.1875 313.230469 270.871094 319.210938 274.136719 325.425781 C 275.378906 327.785156 277.042969 330.859375 280.265625 329.617188 C 283.761719 328.203125 282.371094 323.78125 282.351562 320.9375 Z M 282.351562 320.9375 " fill-opacity="1" fill-rule="nonzero"/><path fill="#047aff" d="M 346.039062 282.605469 C 341.617188 280.414062 337.195312 280.394531 332.414062 280.015625 C 330.539062 279.867188 328.769531 278.773438 326.980469 279.847656 C 324.894531 281.109375 325.085938 283.679688 325.105469 285.808594 C 325.148438 295.875 325.230469 305.691406 325.210938 315.714844 C 325.210938 317.90625 325.210938 320.097656 325.191406 322.285156 C 325.167969 324.75 325.125 327.195312 327.335938 328.753906 C 329.066406 329.972656 331.277344 330.035156 333.296875 329.761719 C 336.035156 329.382812 338.773438 329.003906 341.449219 328.332031 C 345.914062 327.214844 350.273438 325.234375 353.453125 321.800781 C 356.550781 318.453125 358.363281 313.882812 359.015625 309.398438 C 360.507812 298.71875 355.898438 287.449219 346.039062 282.605469 Z M 350.316406 312.09375 C 347.640625 319.507812 339.871094 321.023438 332.917969 321.886719 C 332.582031 315.671875 332.855469 309.355469 332.835938 303.140625 C 332.835938 299.980469 332.835938 296.800781 332.835938 293.644531 C 332.835938 292.1875 332.773438 290.714844 332.835938 289.261719 C 332.898438 287.851562 333.109375 287.722656 334.5 287.808594 C 340.269531 288.207031 345.765625 290.082031 348.863281 295.304688 C 351.789062 300.234375 352.253906 306.722656 350.316406 312.09375 Z M 350.316406 312.09375 " fill-opacity="1" fill-rule="nonzero"/><path fill="#047aff" d="M 201.980469 307.226562 C 200.019531 301.835938 197.9375 296.507812 195.851562 291.15625 C 194.820312 288.503906 193.746094 285.871094 192.777344 283.195312 C 192.019531 281.109375 190.921875 278.816406 188.3125 278.984375 C 183.257812 279.300781 182.960938 287.199219 181.867188 290.757812 C 180.203125 296.191406 178.285156 301.539062 176.347656 306.890625 C 174.410156 312.21875 172.386719 317.527344 170.386719 322.832031 C 169.546875 325.085938 168.511719 327.804688 170.894531 329.53125 C 172.535156 330.730469 174.875 330.351562 176.136719 328.792969 C 177.652344 326.917969 178.308594 323.886719 179.128906 321.632812 C 179.359375 321 179.507812 320.03125 180.117188 319.675781 C 181.109375 319.085938 183.59375 319.652344 184.710938 319.675781 C 187.277344 319.714844 189.847656 319.800781 192.4375 319.863281 C 193.828125 319.90625 195.238281 319.886719 196.628906 319.632812 C 198.082031 319.378906 197.832031 319.464844 198.292969 320.9375 C 199.011719 323.171875 199.367188 326.519531 201.726562 327.699219 C 203.980469 328.835938 206.738281 327.382812 207.160156 324.917969 C 207.371094 323.65625 206.910156 322.476562 206.527344 321.296875 C 206.042969 319.714844 205.558594 318.136719 205.074219 316.558594 C 204.105469 313.441406 203.097656 310.324219 201.980469 307.226562 Z M 182.898438 311.753906 C 184.878906 306.070312 186.878906 300.402344 188.859375 294.714844 C 191.089844 300.53125 193.324219 306.34375 195.554688 312.15625 C 191.324219 312.03125 187.109375 311.882812 182.898438 311.753906 Z M 182.898438 311.753906 " fill-opacity="1" fill-rule="nonzero"/><g clip-path="url(#e814339d24)"><path fill="#000000" d="M 1.726562 271.78125 L 67.398438 271.78125 L 67.398438 337.449219 L 1.726562 337.449219 Z M 1.726562 271.78125 " fill-opacity="1" fill-rule="nonzero"/></g><g clip-path="url(#7e8805e48e)"><path fill="#000000" d="M 79.464844 271.78125 L 145.136719 271.78125 L 145.136719 337.449219 L 79.464844 337.449219 Z M 79.464844 271.78125 " fill-opacity="1" fill-rule="nonzero"/></g><g clip-path="url(#382b6e4904)"><path fill="#000000" d="M 155.496094 271.78125 L 221.167969 271.78125 L 221.167969 337.449219 L 155.496094 337.449219 Z M 155.496094 271.78125 " fill-opacity="1" fill-rule="nonzero"/></g><g clip-path="url(#80d97f84af)"><path fill="#000000" d="M 231.507812 271.78125 L 297.179688 271.78125 L 297.179688 337.449219 L 231.507812 337.449219 Z M 231.507812 271.78125 " fill-opacity="1" fill-rule="nonzero"/></g><g clip-path="url(#3027db779d)"><path fill="#000000" d="M 309.332031 271.78125 L 375 271.78125 L 375 337.449219 L 309.332031 337.449219 Z M 309.332031 271.78125 " fill-opacity="1" fill-rule="nonzero"/></g><path fill="#047aff" d="M 44.859375 303.078125 C 44.546875 302.867188 44.230469 302.636719 43.914062 302.425781 C 48.25 299.496094 50.546875 295.476562 49.515625 290.144531 C 48.503906 284.964844 44.714844 281.46875 39.871094 279.722656 C 35.046875 277.953125 29.863281 277.910156 24.832031 278.4375 C 22.683594 278.667969 20.070312 277.785156 18.578125 279.847656 C 17.25 281.679688 17.691406 284.628906 17.691406 286.753906 C 17.671875 298.507812 17.671875 310.261719 17.671875 322.011719 C 17.671875 324.011719 17.269531 326.539062 18.765625 328.121094 C 19.480469 328.878906 20.472656 329.109375 21.292969 329.679688 C 22.515625 330.519531 23.398438 330.984375 24.9375 331.070312 C 29.949219 331.320312 35.339844 330.835938 40.121094 329.300781 C 45.34375 327.613281 50.042969 324.183594 51.222656 318.558594 C 52.421875 312.765625 49.640625 306.40625 44.859375 303.078125 Z M 26.304688 286.019531 C 31.148438 285.785156 41.597656 285.386719 41.996094 292.421875 C 42.164062 295.644531 37.761719 296.675781 35.320312 297.390625 C 32.117188 298.339844 28.792969 298.65625 25.484375 298.90625 C 25.335938 296.484375 25.441406 294.0625 25.441406 291.640625 C 25.421875 290.484375 24.707031 286.082031 26.304688 286.019531 Z M 41.132812 320.328125 C 38.816406 321.824219 36.140625 322.476562 33.425781 322.769531 C 31.972656 322.9375 30.519531 323.003906 29.066406 323.109375 C 28.390625 323.148438 26.433594 323.65625 25.777344 323.234375 C 25.019531 322.75 25.441406 320.980469 25.441406 320.199219 C 25.464844 318.578125 25.441406 316.980469 25.441406 315.355469 C 25.441406 313.96875 25.441406 312.597656 25.441406 311.207031 C 25.441406 310.386719 25.105469 308.324219 25.800781 307.816406 C 26.367188 307.417969 28.160156 307.5 28.8125 307.4375 C 30.097656 307.3125 31.382812 307.25 32.667969 307.269531 C 34.878906 307.3125 37.171875 307.648438 39.152344 308.636719 C 43.386719 310.828125 45.808594 317.292969 41.132812 320.328125 Z M 41.132812 320.328125 " fill-opacity="1" fill-rule="nonzero"/><path fill="#047aff" d="M 121.230469 307.058594 C 120.621094 305.984375 120.789062 306.046875 121.777344 305.4375 C 122.640625 304.890625 123.460938 304.300781 124.242188 303.648438 C 125.949219 302.234375 127.402344 300.53125 128.453125 298.59375 C 130.625 294.589844 130.75 289.808594 128.582031 285.765625 C 123.988281 277.257812 112.761719 276.960938 104.316406 278.035156 C 100.378906 278.542969 95.304688 279.996094 94.714844 284.671875 C 94.125 289.304688 94.417969 294.316406 94.480469 298.972656 C 94.566406 304.066406 94.691406 309.164062 94.820312 314.261719 C 94.882812 316.851562 94.964844 319.441406 95.007812 322.054688 C 95.050781 324.160156 94.691406 326.667969 95.261719 328.710938 C 95.828125 330.773438 98.019531 332.101562 100.125 331.425781 C 102.570312 330.625 102.863281 328.078125 102.820312 325.867188 C 102.71875 320.160156 102.464844 314.429688 102.464844 308.722656 C 105.351562 308.996094 108.277344 309.164062 111.183594 308.933594 C 112.449219 308.828125 112.953125 308.53125 113.730469 309.605469 C 114.46875 310.617188 114.953125 311.925781 115.523438 313.039062 C 116.933594 315.734375 118.34375 318.453125 119.691406 321.171875 C 120.914062 323.65625 121.757812 326.605469 123.335938 328.878906 C 124.726562 330.898438 127.632812 331.300781 129.339844 329.425781 C 131.234375 327.363281 129.90625 324.8125 128.9375 322.664062 C 126.558594 317.378906 124.09375 312.113281 121.230469 307.058594 Z M 115.605469 299.917969 C 112.953125 301.121094 110.003906 301.351562 107.117188 301.246094 C 106.128906 301.203125 103.664062 301.457031 102.757812 300.972656 C 101.832031 300.445312 102.191406 299.183594 102.210938 298.171875 C 102.253906 295.160156 102.296875 292.148438 102.335938 289.113281 C 102.335938 288.441406 102.0625 286.988281 102.507812 286.441406 C 103.054688 285.765625 105.222656 285.890625 106.023438 285.785156 C 108.507812 285.492188 110.613281 285.261719 113.078125 285.574219 C 115.648438 285.914062 118.40625 286.144531 120.429688 287.914062 C 125.421875 292.253906 119.902344 297.980469 115.605469 299.917969 Z M 115.605469 299.917969 " fill-opacity="1" fill-rule="nonzero"/><path fill="#047aff" d="M 282.351562 320.9375 C 282.308594 314.261719 282.289062 307.585938 282.265625 300.910156 C 282.246094 297.792969 282.246094 294.675781 282.222656 291.558594 C 282.222656 289.765625 282.203125 288 282.203125 286.207031 C 282.203125 284.839844 282.351562 283.300781 281.90625 281.996094 C 281.042969 279.445312 277.800781 278.476562 275.738281 280.3125 C 273.652344 282.183594 274.429688 286.125 274.453125 288.628906 C 274.472656 295.8125 274.515625 302.972656 274.515625 310.15625 C 270.597656 305.269531 267.292969 299.792969 263.710938 294.652344 C 261.941406 292.125 260.171875 289.621094 258.425781 287.09375 C 256.867188 284.882812 255.265625 281.765625 252.273438 281.46875 C 249.558594 281.195312 247.242188 282.734375 247.007812 285.511719 C 246.757812 288.609375 247.199219 291.851562 247.09375 294.96875 C 246.882812 301.371094 246.628906 307.773438 246.378906 314.175781 C 246.273438 317.1875 246.105469 320.199219 246.0625 323.234375 C 246.019531 325.761719 246.082031 328.816406 249.199219 329.425781 C 251.894531 329.953125 253.582031 327.71875 253.8125 325.296875 C 254.085938 322.371094 254.042969 319.378906 254.148438 316.429688 C 254.378906 310.089844 254.863281 303.730469 254.78125 297.390625 C 254.78125 296.886719 254.527344 296.085938 255.140625 296.210938 C 255.8125 296.339844 257.140625 299.035156 257.5625 299.667969 C 259.394531 302.300781 261.332031 304.847656 263.164062 307.480469 C 267.1875 313.230469 270.871094 319.210938 274.136719 325.425781 C 275.378906 327.785156 277.042969 330.859375 280.265625 329.617188 C 283.761719 328.203125 282.371094 323.78125 282.351562 320.9375 Z M 282.351562 320.9375 " fill-opacity="1" fill-rule="nonzero"/><path fill="#047aff" d="M 346.039062 282.605469 C 341.617188 280.414062 337.195312 280.394531 332.414062 280.015625 C 330.539062 279.867188 328.769531 278.773438 326.980469 279.847656 C 324.894531 281.109375 325.085938 283.679688 325.105469 285.808594 C 325.148438 295.875 325.230469 305.691406 325.210938 315.714844 C 325.210938 317.90625 325.210938 320.097656 325.191406 322.285156 C 325.167969 324.75 325.125 327.195312 327.335938 328.753906 C 329.066406 329.972656 331.277344 330.035156 333.296875 329.761719 C 336.035156 329.382812 338.773438 329.003906 341.449219 328.332031 C 345.914062 327.214844 350.273438 325.234375 353.453125 321.800781 C 356.550781 318.453125 358.363281 313.882812 359.015625 309.398438 C 360.507812 298.71875 355.898438 287.449219 346.039062 282.605469 Z M 350.316406 312.09375 C 347.640625 319.507812 339.871094 321.023438 332.917969 321.886719 C 332.582031 315.671875 332.855469 309.355469 332.835938 303.140625 C 332.835938 299.980469 332.835938 296.800781 332.835938 293.644531 C 332.835938 292.1875 332.773438 290.714844 332.835938 289.261719 C 332.898438 287.851562 333.109375 287.722656 334.5 287.808594 C 340.269531 288.207031 345.765625 290.082031 348.863281 295.304688 C 351.789062 300.234375 352.253906 306.722656 350.316406 312.09375 Z M 350.316406 312.09375 " fill-opacity="1" fill-rule="nonzero"/><path fill="#047aff" d="M 201.980469 307.226562 C 200.019531 301.835938 197.9375 296.507812 195.851562 291.15625 C 194.820312 288.503906 193.746094 285.871094 192.777344 283.195312 C 192.019531 281.109375 190.921875 278.816406 188.3125 278.984375 C 183.257812 279.300781 182.960938 287.199219 181.867188 290.757812 C 180.203125 296.191406 178.285156 301.539062 176.347656 306.890625 C 174.410156 312.21875 172.386719 317.527344 170.386719 322.832031 C 169.546875 325.085938 168.511719 327.804688 170.894531 329.53125 C 172.535156 330.730469 174.875 330.351562 176.136719 328.792969 C 177.652344 326.917969 178.308594 323.886719 179.128906 321.632812 C 179.359375 321 179.507812 320.03125 180.117188 319.675781 C 181.109375 319.085938 183.59375 319.652344 184.710938 319.675781 C 187.277344 319.714844 189.847656 319.800781 192.4375 319.863281 C 193.828125 319.90625 195.238281 319.886719 196.628906 319.632812 C 198.082031 319.378906 197.832031 319.464844 198.292969 320.9375 C 199.011719 323.171875 199.367188 326.519531 201.726562 327.699219 C 203.980469 328.835938 206.738281 327.382812 207.160156 324.917969 C 207.371094 323.65625 206.910156 322.476562 206.527344 321.296875 C 206.042969 319.714844 205.558594 318.136719 205.074219 316.558594 C 204.105469 313.441406 203.097656 310.324219 201.980469 307.226562 Z M 182.898438 311.753906 C 184.878906 306.070312 186.878906 300.402344 188.859375 294.714844 C 191.089844 300.53125 193.324219 306.34375 195.554688 312.15625 C 191.324219 312.03125 187.109375 311.882812 182.898438 311.753906 Z M 182.898438 311.753906 " fill-opacity="1" fill-rule="nonzero"/><path fill="#ffffff" d="M 181.527344 139.789062 C 183.929688 140.230469 185.613281 142.398438 185.488281 144.820312 C 184.773438 157.984375 181.804688 196.992188 181.804688 196.992188 C 181.804688 196.992188 180.855469 210.785156 174.429688 210.113281 C 168.007812 209.4375 175.925781 197.664062 175.925781 197.664062 C 175.925781 197.664062 172.789062 158.847656 173.460938 152.972656 C 173.839844 149.707031 175.0625 145.789062 176.074219 142.925781 C 176.851562 140.695312 179.171875 139.347656 181.527344 139.789062 Z M 181.527344 139.789062 " fill-opacity="1" fill-rule="nonzero"/><path fill="#ffffff" d="M 192.398438 139.199219 C 189.996094 139.640625 188.3125 141.808594 188.4375 144.230469 C 189.152344 157.394531 192.121094 196.402344 192.121094 196.402344 C 192.121094 196.402344 193.070312 210.195312 199.496094 209.523438 C 205.917969 208.847656 198 197.074219 198 197.074219 C 198 197.074219 201.136719 158.257812 200.464844 152.382812 C 200.085938 149.117188 198.863281 145.203125 197.851562 142.335938 C 197.074219 140.082031 194.753906 138.757812 192.398438 139.199219 Z M 192.398438 139.199219 " fill-opacity="1" fill-rule="nonzero"/><path fill="#000000" d="M 170.914062 54.890625 C 170.765625 55.605469 163.835938 99.371094 163.835938 99.371094 C 163.835938 99.371094 195.15625 94.925781 194.925781 94.925781 C 194.691406 94.925781 192.964844 48.949219 192.523438 49.183594 C 192.082031 49.414062 170.914062 54.890625 170.914062 54.890625 Z M 170.914062 54.890625 " fill-opacity="1" fill-rule="nonzero"/><path fill="#000000" d="M 197.050781 52.507812 C 197.050781 52.507812 196.144531 41.769531 185.929688 42.1875 C 175.695312 42.609375 172.113281 49.625 170.933594 54.890625 C 169.753906 60.15625 170.238281 71.949219 181.148438 72.117188 C 192.082031 72.285156 197.050781 52.507812 197.050781 52.507812 Z M 197.050781 52.507812 " fill-opacity="1" fill-rule="nonzero"/><path fill="#ffffff" d="M 188.285156 82.457031 L 181.25 82.457031 L 181.25 69.082031 L 188.285156 69.082031 Z M 188.285156 82.457031 " fill-opacity="1" fill-rule="nonzero"/><path fill="#ffffff" d="M 197.050781 56.699219 C 196.945312 56.953125 197.386719 62.828125 195.492188 67.359375 C 194.609375 69.441406 193.238281 71.253906 191.089844 72.097656 C 189.996094 72.519531 188.691406 72.707031 187.152344 72.539062 C 187.152344 72.539062 179.570312 73.382812 176.472656 64.660156 C 176.472656 64.660156 173.292969 64.726562 172.515625 61.355469 C 171.734375 58.007812 174.15625 56.617188 175.949219 58.34375 C 175.949219 58.34375 177.105469 48.109375 186.289062 48.277344 C 195.492188 48.445312 197.050781 56.699219 197.050781 56.699219 Z M 197.050781 56.699219 " fill-opacity="1" fill-rule="nonzero"/><path fill="#000000" d="M 180.160156 58.300781 C 180.035156 58.152344 180.054688 57.921875 180.203125 57.796875 C 181.71875 56.488281 183.152344 57.164062 183.613281 57.394531 C 183.65625 57.417969 183.675781 57.417969 183.699219 57.4375 C 183.78125 57.4375 183.886719 57.480469 183.949219 57.5625 C 184.078125 57.710938 184.054688 57.945312 183.910156 58.070312 C 183.71875 58.238281 183.507812 58.132812 183.320312 58.046875 C 182.878906 57.839844 181.824219 57.355469 180.664062 58.34375 C 180.601562 58.40625 180.519531 58.429688 180.433594 58.429688 C 180.328125 58.429688 180.222656 58.386719 180.160156 58.300781 Z M 183.425781 57.523438 Z M 183.425781 57.523438 Z M 183.425781 57.523438 Z M 183.425781 57.523438 Z M 183.425781 57.523438 Z M 183.425781 57.523438 Z M 183.445312 57.523438 Z M 183.445312 57.523438 Z M 183.445312 57.523438 Z M 183.445312 57.523438 Z M 183.445312 57.523438 Z M 183.445312 57.523438 Z M 183.445312 57.523438 Z M 183.445312 57.523438 " fill-opacity="1" fill-rule="nonzero"/><path fill="#000000" d="M 195.070312 59.691406 C 195.136719 59.691406 195.21875 59.671875 195.28125 59.628906 C 195.449219 59.503906 195.472656 59.292969 195.367188 59.121094 C 195.304688 59.058594 194.019531 57.332031 191.742188 57.964844 C 191.554688 58.007812 191.449219 58.21875 191.492188 58.40625 C 191.535156 58.597656 191.742188 58.703125 191.933594 58.660156 C 193.746094 58.152344 194.777344 59.542969 194.796875 59.542969 C 194.859375 59.648438 194.964844 59.691406 195.070312 59.691406 Z M 195.070312 59.691406 " fill-opacity="1" fill-rule="nonzero"/><path fill="#000000" d="M 187.257812 67.253906 C 187.066406 67.230469 186.941406 67.042969 186.964844 66.851562 C 186.984375 66.664062 187.171875 66.515625 187.363281 66.535156 C 187.382812 66.535156 187.910156 66.578125 188.332031 65.734375 C 188.691406 65.042969 187.867188 63.757812 187.574219 63.273438 C 187.40625 63.019531 187.363281 62.933594 187.382812 62.789062 C 187.40625 62.597656 187.574219 62.449219 187.785156 62.472656 C 187.933594 62.492188 188.058594 62.597656 188.078125 62.722656 C 188.101562 62.765625 188.140625 62.828125 188.183594 62.894531 C 188.585938 63.523438 189.511719 65 188.984375 66.074219 C 188.4375 67.148438 187.679688 67.273438 187.382812 67.273438 C 187.320312 67.253906 187.277344 67.253906 187.257812 67.253906 Z M 188.101562 62.851562 Z M 188.101562 62.851562 Z M 188.101562 62.851562 " fill-opacity="1" fill-rule="nonzero"/><path fill="#000000" d="M 186.710938 69.925781 C 185.929688 69.90625 184.855469 69.546875 184.226562 67.96875 C 184.160156 67.777344 184.246094 67.570312 184.433594 67.503906 C 184.625 67.441406 184.835938 67.527344 184.898438 67.714844 C 185.214844 68.496094 185.679688 68.980469 186.269531 69.148438 C 187.109375 69.378906 187.996094 68.9375 188.140625 68.832031 C 188.246094 68.726562 188.394531 68.683594 188.542969 68.746094 C 188.730469 68.832031 188.796875 69.042969 188.710938 69.210938 C 188.585938 69.484375 187.636719 69.90625 186.753906 69.90625 C 186.753906 69.925781 186.730469 69.925781 186.710938 69.925781 Z M 188.078125 68.9375 Z M 188.078125 68.9375 Z M 188.078125 68.9375 " fill-opacity="1" fill-rule="nonzero"/><path fill="#000000" d="M 182.40625 59.636719 C 182.574219 59.652344 182.734375 59.707031 182.882812 59.800781 C 183.03125 59.890625 183.160156 60.015625 183.265625 60.164062 C 183.367188 60.316406 183.445312 60.488281 183.492188 60.675781 C 183.535156 60.867188 183.550781 61.058594 183.527344 61.257812 C 183.507812 61.453125 183.457031 61.640625 183.371094 61.816406 C 183.289062 61.992188 183.179688 62.140625 183.046875 62.269531 C 182.910156 62.394531 182.761719 62.488281 182.597656 62.546875 C 182.433594 62.609375 182.265625 62.628906 182.097656 62.609375 C 181.925781 62.59375 181.769531 62.539062 181.621094 62.449219 C 181.472656 62.355469 181.34375 62.234375 181.238281 62.082031 C 181.132812 61.929688 181.058594 61.761719 181.011719 61.570312 C 180.964844 61.382812 180.953125 61.1875 180.972656 60.992188 C 180.992188 60.792969 181.046875 60.609375 181.128906 60.433594 C 181.214844 60.257812 181.320312 60.105469 181.457031 59.980469 C 181.589844 59.851562 181.738281 59.757812 181.90625 59.699219 C 182.070312 59.640625 182.234375 59.617188 182.40625 59.636719 Z M 182.40625 59.636719 " fill-opacity="1" fill-rule="nonzero"/><path fill="#0e1e72" d="M 182.539062 60.703125 C 182.539062 60.867188 182.480469 61.003906 182.367188 61.121094 C 182.253906 61.234375 182.113281 61.292969 181.949219 61.292969 C 181.789062 61.292969 181.648438 61.234375 181.535156 61.121094 C 181.417969 61.003906 181.359375 60.867188 181.359375 60.703125 C 181.359375 60.539062 181.417969 60.402344 181.535156 60.285156 C 181.648438 60.171875 181.789062 60.113281 181.949219 60.113281 C 182.113281 60.113281 182.253906 60.171875 182.367188 60.285156 C 182.480469 60.402344 182.539062 60.539062 182.539062 60.703125 Z M 182.539062 60.703125 " fill-opacity="1" fill-rule="nonzero"/><path fill="#000000" d="M 193.023438 60.742188 C 193.191406 60.761719 193.351562 60.816406 193.5 60.90625 C 193.648438 61 193.777344 61.121094 193.882812 61.273438 C 193.988281 61.425781 194.0625 61.59375 194.109375 61.785156 C 194.15625 61.972656 194.167969 62.167969 194.148438 62.363281 C 194.128906 62.5625 194.074219 62.746094 193.992188 62.921875 C 193.90625 63.097656 193.796875 63.25 193.664062 63.375 C 193.53125 63.503906 193.378906 63.597656 193.214844 63.65625 C 193.050781 63.714844 192.886719 63.738281 192.714844 63.71875 C 192.546875 63.703125 192.386719 63.648438 192.238281 63.554688 C 192.089844 63.464844 191.960938 63.339844 191.855469 63.191406 C 191.75 63.039062 191.675781 62.867188 191.628906 62.679688 C 191.585938 62.488281 191.570312 62.296875 191.589844 62.097656 C 191.613281 61.902344 191.664062 61.714844 191.746094 61.539062 C 191.832031 61.363281 191.941406 61.214844 192.074219 61.085938 C 192.210938 60.960938 192.359375 60.867188 192.523438 60.804688 C 192.6875 60.746094 192.855469 60.726562 193.023438 60.742188 Z M 193.023438 60.742188 " fill-opacity="1" fill-rule="nonzero"/><path fill="#0e1e72" d="M 193.132812 61.796875 C 193.132812 61.960938 193.078125 62.097656 192.960938 62.214844 C 192.847656 62.328125 192.707031 62.386719 192.542969 62.386719 C 192.382812 62.386719 192.242188 62.328125 192.128906 62.214844 C 192.011719 62.097656 191.953125 61.960938 191.953125 61.796875 C 191.953125 61.636719 192.011719 61.496094 192.128906 61.378906 C 192.242188 61.265625 192.382812 61.207031 192.542969 61.207031 C 192.707031 61.207031 192.847656 61.265625 192.960938 61.378906 C 193.078125 61.496094 193.132812 61.636719 193.132812 61.796875 Z M 193.132812 61.796875 " fill-opacity="1" fill-rule="nonzero"/><path fill="#000000" d="M 175.96875 58.34375 L 175.96875 61.796875 C 175.96875 61.796875 178.304688 57.523438 178.390625 55.796875 L 184.035156 55.796875 L 185.929688 53.625 L 186.5 55.796875 L 189.59375 56.238281 L 190.5625 51.898438 L 191.953125 56.300781 L 197.050781 57.480469 C 197.050781 57.480469 198.90625 57.417969 197.050781 52.488281 C 195.199219 47.558594 189.554688 45.917969 184.710938 46.589844 C 179.863281 47.265625 175.949219 52.300781 175.96875 54.109375 C 175.988281 55.941406 175.96875 58.34375 175.96875 58.34375 Z M 175.96875 58.34375 " fill-opacity="1" fill-rule="nonzero"/><path fill="#0e1e72" d="M 202.191406 102.972656 C 202.167969 103.582031 202.148438 104.195312 202.148438 104.804688 C 201.917969 113.1875 203.03125 125.53125 203.03125 125.53125 L 171.902344 126.121094 C 171.902344 126.121094 171.589844 112.789062 170.722656 104.953125 L 170.722656 104.929688 C 169.648438 94.949219 168.765625 83.195312 170.367188 81.363281 C 172.894531 78.457031 175.527344 79.257812 177.484375 77.972656 C 177.738281 77.804688 177.96875 77.613281 178.203125 77.382812 C 180.203125 75.234375 180.8125 73.253906 180.8125 73.253906 C 181.042969 73.402344 185.613281 76.539062 189.175781 74.960938 C 189.175781 74.960938 188.183594 78.246094 191.300781 78.519531 C 192.25 78.605469 193.449219 78.625 194.734375 78.730469 C 197.179688 78.941406 199.851562 79.488281 201.199219 81.488281 C 201.199219 81.511719 201.222656 81.511719 201.222656 81.53125 C 201.496094 81.933594 201.707031 82.394531 201.851562 82.921875 C 202.484375 85.15625 202.421875 94.273438 202.191406 102.972656 Z M 202.191406 102.972656 " fill-opacity="1" fill-rule="nonzero"/><path fill="#047aff" d="M 183.761719 99.390625 C 183.191406 88.546875 177.632812 78.246094 177.484375 77.972656 C 175.527344 79.238281 172.894531 78.457031 170.367188 81.363281 L 170.722656 104.953125 L 168.21875 128.878906 L 182.035156 127.445312 C 182.035156 127.445312 182.183594 126.394531 182.390625 124.625 C 183.003906 119.316406 184.203125 107.648438 183.761719 99.390625 Z M 183.761719 99.390625 " fill-opacity="1" fill-rule="nonzero"/><path fill="#047aff" d="M 211.183594 98.382812 L 201.199219 81.425781 C 201.199219 81.425781 201.199219 81.449219 201.179688 81.488281 C 199.832031 79.488281 197.15625 78.941406 194.714844 78.730469 C 194.714844 78.730469 193.449219 86.292969 193.449219 96.550781 C 193.449219 103.773438 194.1875 116.011719 194.714844 122.601562 C 194.945312 125.359375 195.136719 127.128906 195.21875 127.128906 C 195.535156 127.128906 205.265625 127.128906 205.265625 127.128906 L 202.253906 104.996094 C 207.773438 106.238281 211.183594 98.382812 211.183594 98.382812 Z M 211.183594 98.382812 " fill-opacity="1" fill-rule="nonzero"/><path fill="#000000" d="M 185.046875 80.921875 C 183.824219 80.921875 182.707031 80.625 181.84375 80.226562 C 181.171875 79.910156 180.414062 79.382812 180.351562 78.878906 C 180.328125 78.753906 180.433594 78.625 180.558594 78.625 C 180.6875 78.605469 180.8125 78.710938 180.8125 78.835938 C 180.835938 79.003906 181.171875 79.425781 182.035156 79.828125 C 183.742188 80.648438 186.476562 80.921875 189.007812 79.300781 C 189.109375 79.238281 189.257812 79.257812 189.320312 79.363281 C 189.386719 79.46875 189.363281 79.617188 189.257812 79.679688 C 187.867188 80.585938 186.394531 80.921875 185.046875 80.921875 Z M 185.046875 80.921875 " fill-opacity="1" fill-rule="nonzero"/><path fill="#ffffff" d="M 195.492188 119.84375 C 195.492188 119.84375 196.652344 120.6875 195.851562 121.675781 C 195.050781 122.664062 194.585938 122.117188 194.585938 122.117188 C 194.585938 122.117188 194.945312 124.371094 192.542969 123.699219 C 192.542969 123.699219 192.902344 125.191406 190.542969 124.667969 C 188.183594 124.140625 185.320312 123.191406 185.320312 123.191406 C 185.320312 123.191406 182.496094 125.046875 180.980469 124.433594 C 179.464844 123.824219 178.769531 123.214844 178.558594 123.277344 C 178.371094 123.339844 164.175781 124.140625 161.203125 118.769531 C 158.234375 113.398438 161.753906 98.214844 161.753906 98.214844 L 171.167969 101.035156 C 171.167969 101.035156 169.3125 110.976562 168.324219 114.347656 L 181.613281 117.609375 C 181.613281 117.609375 187.449219 114.261719 189.386719 114.894531 C 190.5 115.25 192.671875 116.324219 194.292969 117.1875 C 195.472656 117.820312 196.378906 118.304688 196.378906 118.304688 C 196.378906 118.304688 196.398438 118.367188 196.441406 118.472656 C 196.566406 118.8125 196.714844 119.757812 195.492188 119.84375 Z M 195.492188 119.84375 " fill-opacity="1" fill-rule="nonzero"/><path fill="#000000" d="M 189.152344 117.378906 C 189.175781 117.441406 189.238281 117.503906 189.300781 117.546875 C 191.46875 118.621094 194.753906 120.265625 194.964844 120.371094 C 195.09375 120.453125 195.261719 120.433594 195.367188 120.304688 C 195.472656 120.179688 195.429688 119.992188 195.304688 119.886719 C 195.28125 119.863281 195.199219 119.800781 189.554688 117.019531 C 189.40625 116.957031 189.238281 117 189.152344 117.148438 C 189.132812 117.230469 189.132812 117.316406 189.152344 117.378906 Z M 189.152344 117.378906 " fill-opacity="1" fill-rule="nonzero"/><path fill="#000000" d="M 188.816406 119.402344 C 188.835938 119.464844 188.878906 119.527344 188.941406 119.546875 C 190.964844 120.6875 194.039062 122.390625 194.1875 122.496094 C 194.3125 122.582031 194.480469 122.558594 194.566406 122.433594 C 194.648438 122.308594 194.628906 122.140625 194.503906 122.035156 C 194.480469 122.011719 194.417969 121.96875 189.195312 119.042969 C 189.070312 118.957031 188.878906 119.023438 188.816406 119.148438 C 188.796875 119.230469 188.796875 119.316406 188.816406 119.402344 Z M 188.816406 119.402344 " fill-opacity="1" fill-rule="nonzero"/><path fill="#000000" d="M 188.394531 121.71875 C 188.417969 121.78125 188.457031 121.824219 188.519531 121.863281 C 189.828125 122.6875 191.785156 123.929688 191.890625 123.992188 C 192.019531 124.078125 192.1875 124.054688 192.292969 123.929688 C 192.375 123.800781 192.355469 123.632812 192.226562 123.550781 C 192.164062 123.507812 190.078125 122.179688 188.835938 121.402344 C 188.710938 121.316406 188.519531 121.359375 188.4375 121.484375 C 188.375 121.550781 188.375 121.632812 188.394531 121.71875 Z M 188.394531 121.71875 " fill-opacity="1" fill-rule="nonzero"/><path fill="#047aff" d="M 178.980469 94.148438 C 178.832031 95.558594 178.515625 97.160156 178.136719 98.738281 C 177.992188 99.351562 177.820312 99.980469 177.675781 100.570312 C 177.273438 102.023438 176.851562 103.371094 176.496094 104.445312 C 176.242188 105.207031 176.03125 105.816406 175.863281 106.238281 C 175.714844 106.636719 175.609375 106.871094 175.570312 106.890625 C 175.464844 106.972656 172.703125 106.742188 169.460938 106.40625 C 166.660156 106.132812 163.480469 105.773438 161.308594 105.5 C 159.792969 105.3125 158.761719 105.140625 158.675781 105.078125 C 158.613281 105.015625 158.570312 104.59375 158.59375 103.898438 C 158.613281 102.992188 158.742188 101.582031 158.992188 99.8125 C 159.078125 99.183594 159.183594 98.527344 159.308594 97.8125 C 159.5 96.695312 159.730469 95.476562 160.023438 94.148438 C 160.152344 93.515625 160.300781 92.882812 160.46875 92.230469 C 160.613281 91.621094 160.761719 91.011719 160.929688 90.378906 C 161.164062 89.472656 161.476562 88.628906 161.859375 87.828125 C 162.132812 87.261719 162.449219 86.714844 162.785156 86.1875 C 163.457031 85.175781 164.238281 84.269531 165.039062 83.492188 C 165.542969 83.007812 166.070312 82.5625 166.574219 82.164062 C 169.523438 79.910156 172.410156 79.027344 172.410156 79.027344 L 172.429688 79.027344 C 174.726562 79.027344 176.601562 82.5 177.757812 86.058594 C 177.992188 86.734375 178.179688 87.410156 178.347656 88.082031 C 178.707031 89.515625 178.9375 90.863281 179.023438 91.875 C 179.023438 92 179.042969 92.105469 179.042969 92.230469 C 179.066406 92.820312 179.042969 93.453125 178.980469 94.148438 Z M 178.980469 94.148438 " fill-opacity="1" fill-rule="nonzero"/></svg>