<svg xmlns="http://www.w3.org/2000/svg" xmlns:xlink="http://www.w3.org/1999/xlink" width="500" zoomAndPan="magnify" viewBox="0 0 375 374.999991" height="500" preserveAspectRatio="xMidYMid meet" version="1.0"><defs><clipPath id="4184d6d651"><path d="M 30.46875 150 L 88 150 L 88 166 L 30.46875 166 Z M 30.46875 150 " clip-rule="nonzero"/></clipPath><clipPath id="5e8beb5bf4"><path d="M 288 150 L 344.71875 150 L 344.71875 166 L 288 166 Z M 288 150 " clip-rule="nonzero"/></clipPath></defs><rect x="-37.5" width="450" fill="#ffffff" y="-37.499999" height="449.999989" fill-opacity="1"/><rect x="-37.5" width="450" fill="#ffffff" y="-37.499999" height="449.999989" fill-opacity="1"/><path fill="#000000" d="M 281.058594 156.699219 C 281.058594 155.171875 281.023438 153.644531 280.949219 152.117188 C 280.871094 150.589844 280.761719 149.066406 280.609375 147.542969 C 280.460938 146.023438 280.273438 144.503906 280.046875 142.992188 C 279.824219 141.480469 279.5625 139.976562 279.265625 138.476562 C 278.964844 136.976562 278.632812 135.484375 278.257812 134.003906 C 277.886719 132.519531 277.480469 131.046875 277.035156 129.582031 C 276.589844 128.121094 276.113281 126.667969 275.597656 125.230469 C 275.082031 123.792969 274.53125 122.363281 273.945312 120.953125 C 273.359375 119.539062 272.742188 118.144531 272.085938 116.761719 C 271.433594 115.378906 270.746094 114.015625 270.023438 112.667969 C 269.304688 111.316406 268.550781 109.988281 267.761719 108.675781 C 266.976562 107.367188 266.160156 106.074219 265.308594 104.804688 C 264.457031 103.53125 263.578125 102.28125 262.667969 101.054688 C 261.753906 99.828125 260.816406 98.621094 259.84375 97.441406 C 258.875 96.257812 257.875 95.101562 256.847656 93.96875 C 255.820312 92.835938 254.765625 91.730469 253.683594 90.648438 C 252.601562 89.566406 251.496094 88.511719 250.363281 87.488281 C 249.230469 86.460938 248.070312 85.460938 246.886719 84.492188 C 245.707031 83.523438 244.5 82.582031 243.273438 81.671875 C 242.042969 80.761719 240.792969 79.878906 239.519531 79.03125 C 238.25 78.183594 236.957031 77.363281 235.644531 76.578125 C 234.332031 75.792969 233.003906 75.039062 231.652344 74.320312 C 230.304688 73.597656 228.9375 72.910156 227.554688 72.257812 C 226.171875 71.605469 224.773438 70.984375 223.363281 70.398438 C 221.949219 69.8125 220.523438 69.265625 219.082031 68.75 C 217.640625 68.234375 216.1875 67.753906 214.726562 67.3125 C 213.261719 66.867188 211.789062 66.460938 210.304688 66.089844 C 208.820312 65.714844 207.328125 65.382812 205.828125 65.082031 C 204.328125 64.785156 202.820312 64.523438 201.308594 64.300781 C 199.796875 64.074219 198.277344 63.886719 196.753906 63.738281 C 195.234375 63.589844 193.707031 63.476562 192.179688 63.402344 C 190.652344 63.328125 189.125 63.289062 187.59375 63.289062 C 186.0625 63.289062 184.535156 63.328125 183.007812 63.402344 C 181.480469 63.476562 179.953125 63.589844 178.433594 63.738281 C 176.910156 63.886719 175.390625 64.074219 173.878906 64.300781 C 172.367188 64.523438 170.859375 64.785156 169.359375 65.082031 C 167.859375 65.382812 166.367188 65.714844 164.882812 66.089844 C 163.398438 66.460938 161.925781 66.867188 160.460938 67.3125 C 159 67.753906 157.546875 68.234375 156.105469 68.75 C 154.664062 69.265625 153.238281 69.8125 151.824219 70.398438 C 150.414062 70.984375 149.015625 71.605469 147.632812 72.257812 C 146.25 72.910156 144.882812 73.597656 143.535156 74.320312 C 142.183594 75.039062 140.855469 75.792969 139.542969 76.578125 C 138.230469 77.363281 136.9375 78.183594 135.667969 79.03125 C 134.394531 79.878906 133.144531 80.761719 131.914062 81.671875 C 130.6875 82.582031 129.480469 83.523438 128.300781 84.492188 C 127.117188 85.460938 125.957031 86.460938 124.824219 87.488281 C 123.691406 88.511719 122.585938 89.566406 121.503906 90.648438 C 120.421875 91.730469 119.367188 92.835938 118.339844 93.96875 C 117.3125 95.101562 116.3125 96.257812 115.34375 97.441406 C 114.371094 98.621094 113.433594 99.828125 112.519531 101.054688 C 111.609375 102.28125 110.730469 103.53125 109.878906 104.804688 C 109.027344 106.074219 108.210938 107.367188 107.425781 108.675781 C 106.636719 109.988281 105.882812 111.316406 105.164062 112.667969 C 104.441406 114.015625 103.753906 115.378906 103.101562 116.761719 C 102.445312 118.144531 101.828125 119.539062 101.242188 120.953125 C 100.65625 122.363281 100.105469 123.792969 99.589844 125.230469 C 99.074219 126.667969 98.597656 128.121094 98.152344 129.582031 C 97.707031 131.046875 97.300781 132.519531 96.929688 134.003906 C 96.554688 135.484375 96.222656 136.976562 95.921875 138.476562 C 95.625 139.976562 95.363281 141.480469 95.140625 142.992188 C 94.914062 144.503906 94.726562 146.023438 94.578125 147.542969 C 94.425781 149.066406 94.316406 150.589844 94.238281 152.117188 C 94.164062 153.644531 94.128906 155.171875 94.128906 156.699219 C 94.128906 184.117188 109.535156 211.433594 123.128906 235.519531 C 131.066406 248.292969 137.585938 261.757812 142.679688 275.914062 L 139.648438 275.914062 C 139.316406 275.921875 138.988281 275.96875 138.664062 276.042969 C 138.34375 276.121094 138.03125 276.226562 137.726562 276.363281 C 137.425781 276.5 137.140625 276.667969 136.871094 276.859375 C 136.601562 277.054688 136.355469 277.273438 136.128906 277.515625 C 135.902344 277.757812 135.699219 278.019531 135.527344 278.304688 C 135.351562 278.585938 135.207031 278.882812 135.089844 279.191406 C 134.972656 279.503906 134.886719 279.820312 134.835938 280.148438 C 134.78125 280.476562 134.761719 280.804688 134.773438 281.136719 C 134.785156 281.46875 134.828125 281.796875 134.902344 282.121094 C 134.980469 282.441406 135.085938 282.753906 135.226562 283.058594 C 135.363281 283.359375 135.527344 283.644531 135.722656 283.914062 C 135.917969 284.183594 136.132812 284.429688 136.378906 284.65625 C 136.621094 284.882812 136.882812 285.082031 137.164062 285.257812 C 137.445312 285.433594 137.742188 285.578125 138.054688 285.695312 C 138.367188 285.808594 138.683594 285.894531 139.011719 285.949219 C 139.339844 286 139.667969 286.023438 140 286.011719 L 140.355469 286.011719 L 144.449219 285.707031 C 144.449219 286.363281 144.449219 287.070312 144.449219 287.726562 L 144.449219 290.757812 L 140.558594 291.058594 C 140.226562 291.070312 139.898438 291.117188 139.574219 291.191406 C 139.253906 291.269531 138.941406 291.375 138.640625 291.511719 C 138.335938 291.652344 138.050781 291.816406 137.78125 292.011719 C 137.511719 292.203125 137.265625 292.421875 137.039062 292.664062 C 136.8125 292.90625 136.613281 293.171875 136.4375 293.453125 C 136.265625 293.734375 136.117188 294.03125 136.003906 294.339844 C 135.886719 294.652344 135.800781 294.96875 135.75 295.296875 C 135.695312 295.625 135.675781 295.953125 135.6875 296.285156 C 135.699219 296.617188 135.742188 296.945312 135.816406 297.265625 C 135.894531 297.589844 136 297.902344 136.136719 298.203125 C 136.277344 298.503906 136.441406 298.789062 136.636719 299.058594 C 136.828125 299.328125 137.046875 299.578125 137.289062 299.804688 C 137.53125 300.027344 137.792969 300.230469 138.078125 300.402344 C 138.359375 300.578125 138.65625 300.722656 138.964844 300.839844 C 139.277344 300.957031 139.59375 301.042969 139.921875 301.09375 C 140.25 301.148438 140.578125 301.167969 140.910156 301.160156 L 144.449219 301.160156 L 144.449219 306.207031 L 141.667969 306.207031 C 141.335938 306.21875 141.011719 306.261719 140.6875 306.339844 C 140.363281 306.414062 140.050781 306.523438 139.75 306.660156 C 139.449219 306.796875 139.164062 306.964844 138.894531 307.15625 C 138.625 307.351562 138.378906 307.570312 138.152344 307.8125 C 137.925781 308.054688 137.722656 308.316406 137.550781 308.601562 C 137.375 308.882812 137.230469 309.179688 137.113281 309.488281 C 137 309.800781 136.914062 310.117188 136.859375 310.445312 C 136.808594 310.773438 136.785156 311.101562 136.796875 311.433594 C 136.808594 311.765625 136.851562 312.089844 136.929688 312.414062 C 137.003906 312.738281 137.113281 313.050781 137.25 313.351562 C 137.386719 313.652344 137.550781 313.9375 137.746094 314.207031 C 137.941406 314.476562 138.160156 314.722656 138.402344 314.949219 C 138.644531 315.175781 138.90625 315.378906 139.1875 315.550781 C 139.46875 315.726562 139.765625 315.871094 140.078125 315.988281 C 140.386719 316.105469 140.707031 316.1875 141.035156 316.242188 C 141.363281 316.296875 141.691406 316.316406 142.023438 316.304688 L 144.449219 316.304688 L 144.449219 321.355469 L 142.730469 321.355469 C 142.398438 321.367188 142.070312 321.410156 141.75 321.488281 C 141.425781 321.566406 141.113281 321.671875 140.8125 321.808594 C 140.511719 321.949219 140.226562 322.113281 139.957031 322.308594 C 139.6875 322.5 139.441406 322.71875 139.214844 322.960938 C 138.992188 323.207031 138.789062 323.46875 138.617188 323.75 C 138.441406 324.03125 138.296875 324.328125 138.179688 324.636719 C 138.066406 324.949219 137.980469 325.265625 137.925781 325.59375 C 137.875 325.921875 137.851562 326.25 137.863281 326.582031 C 137.875 326.910156 137.921875 327.238281 137.996094 327.5625 C 138.074219 327.882812 138.179688 328.195312 138.316406 328.496094 C 138.453125 328.796875 138.617188 329.085938 138.8125 329.351562 C 139.007812 329.621094 139.222656 329.871094 139.464844 330.097656 C 139.707031 330.320312 139.96875 330.523438 140.25 330.695312 C 140.535156 330.871094 140.828125 331.015625 141.140625 331.132812 C 141.449219 331.25 141.769531 331.335938 142.097656 331.390625 C 142.421875 331.441406 142.753906 331.464844 143.082031 331.453125 L 144.398438 331.453125 L 144.398438 334.585938 C 146.417969 347.359375 156.421875 355.386719 168.546875 359.273438 C 168.847656 360.304688 169.226562 361.300781 169.683594 362.269531 C 170.144531 363.234375 170.675781 364.160156 171.28125 365.042969 C 171.886719 365.925781 172.558594 366.757812 173.296875 367.535156 C 174.035156 368.308594 174.828125 369.023438 175.679688 369.671875 C 176.53125 370.324219 177.429688 370.902344 178.371094 371.410156 C 179.316406 371.914062 180.292969 372.34375 181.304688 372.699219 C 182.316406 373.050781 183.351562 373.320312 184.40625 373.507812 C 185.460938 373.695312 186.523438 373.796875 187.59375 373.816406 C 188.648438 373.78125 189.695312 373.664062 190.730469 373.460938 C 191.765625 373.261719 192.78125 372.984375 193.773438 372.625 C 194.765625 372.265625 195.722656 371.832031 196.648438 371.324219 C 197.570312 370.816406 198.449219 370.238281 199.285156 369.589844 C 200.117188 368.945312 200.894531 368.238281 201.617188 367.46875 C 202.34375 366.699219 203 365.878906 203.59375 365.007812 C 204.1875 364.136719 204.710938 363.226562 205.164062 362.273438 C 205.613281 361.320312 205.988281 360.335938 206.285156 359.324219 C 208.726562 358.695312 211.070312 357.804688 213.316406 356.65625 C 215.558594 355.507812 217.652344 354.128906 219.589844 352.519531 C 221.527344 350.910156 223.269531 349.105469 224.808594 347.109375 C 226.347656 345.117188 227.652344 342.976562 228.71875 340.695312 L 235.4375 340.1875 C 235.769531 340.164062 236.09375 340.105469 236.410156 340.015625 C 236.730469 339.925781 237.035156 339.808594 237.332031 339.660156 C 237.625 339.507812 237.90625 339.332031 238.164062 339.128906 C 238.425781 338.925781 238.664062 338.699219 238.878906 338.445312 C 239.09375 338.195312 239.285156 337.925781 239.445312 337.640625 C 239.609375 337.351562 239.742188 337.050781 239.847656 336.734375 C 239.949219 336.421875 240.023438 336.101562 240.0625 335.773438 C 240.101562 335.445312 240.109375 335.117188 240.085938 334.785156 C 240.0625 334.453125 240.007812 334.128906 239.921875 333.808594 C 239.835938 333.484375 239.71875 333.175781 239.570312 332.878906 C 239.421875 332.582031 239.246094 332.300781 239.042969 332.039062 C 238.839844 331.773438 238.609375 331.535156 238.359375 331.316406 C 238.109375 331.097656 237.839844 330.90625 237.550781 330.742188 C 237.261719 330.574219 236.957031 330.441406 236.644531 330.335938 C 236.328125 330.230469 236.003906 330.15625 235.675781 330.117188 C 235.34375 330.074219 235.011719 330.066406 234.679688 330.089844 L 230.386719 330.394531 L 230.386719 325.34375 L 234.328125 325.042969 C 234.65625 325.015625 234.980469 324.957031 235.300781 324.867188 C 235.617188 324.78125 235.925781 324.660156 236.21875 324.511719 C 236.515625 324.363281 236.792969 324.183594 237.054688 323.980469 C 237.3125 323.777344 237.550781 323.550781 237.765625 323.300781 C 237.984375 323.046875 238.171875 322.777344 238.335938 322.492188 C 238.496094 322.203125 238.628906 321.902344 238.734375 321.589844 C 238.839844 321.273438 238.910156 320.953125 238.949219 320.625 C 238.992188 320.296875 239 319.96875 238.976562 319.636719 C 238.953125 319.308594 238.898438 318.980469 238.8125 318.660156 C 238.722656 318.339844 238.605469 318.027344 238.457031 317.730469 C 238.308594 317.433594 238.132812 317.152344 237.929688 316.890625 C 237.726562 316.625 237.5 316.386719 237.25 316.167969 C 236.996094 315.949219 236.726562 315.757812 236.4375 315.59375 C 236.148438 315.429688 235.847656 315.292969 235.53125 315.1875 C 235.214844 315.082031 234.890625 315.011719 234.5625 314.96875 C 234.230469 314.925781 233.902344 314.917969 233.570312 314.941406 L 230.386719 314.941406 L 230.386719 309.894531 L 233.214844 309.894531 C 233.554688 309.882812 233.886719 309.839844 234.21875 309.765625 C 234.546875 309.6875 234.867188 309.578125 235.175781 309.4375 C 235.480469 309.296875 235.773438 309.128906 236.046875 308.929688 C 236.320312 308.730469 236.570312 308.503906 236.800781 308.253906 C 237.027344 308.003906 237.230469 307.734375 237.40625 307.445312 C 237.578125 307.15625 237.722656 306.851562 237.835938 306.53125 C 237.949219 306.210938 238.027344 305.886719 238.074219 305.550781 C 238.125 305.214844 238.136719 304.878906 238.117188 304.542969 C 238.09375 304.210938 238.039062 303.882812 237.953125 303.5625 C 237.863281 303.242188 237.746094 302.929688 237.597656 302.632812 C 237.453125 302.335938 237.277344 302.054688 237.070312 301.792969 C 236.867188 301.53125 236.640625 301.289062 236.390625 301.070312 C 236.136719 300.851562 235.867188 300.660156 235.578125 300.496094 C 235.289062 300.332031 234.988281 300.195312 234.671875 300.089844 C 234.355469 299.984375 234.035156 299.914062 233.703125 299.871094 C 233.375 299.832031 233.042969 299.820312 232.710938 299.84375 L 230.640625 299.84375 L 230.640625 294.796875 L 232.304688 294.796875 C 232.636719 294.769531 232.960938 294.714844 233.277344 294.625 C 233.597656 294.535156 233.902344 294.414062 234.199219 294.265625 C 234.496094 294.117188 234.773438 293.941406 235.03125 293.734375 C 235.292969 293.53125 235.53125 293.304688 235.746094 293.054688 C 235.960938 292.804688 236.152344 292.535156 236.3125 292.246094 C 236.476562 291.957031 236.609375 291.65625 236.714844 291.34375 C 236.816406 291.03125 236.890625 290.707031 236.929688 290.378906 C 236.96875 290.050781 236.976562 289.722656 236.953125 289.394531 C 236.933594 289.0625 236.878906 288.734375 236.789062 288.414062 C 236.703125 288.09375 236.585938 287.785156 236.4375 287.484375 C 236.289062 287.1875 236.113281 286.90625 235.910156 286.644531 C 235.707031 286.382812 235.480469 286.140625 235.226562 285.921875 C 234.976562 285.703125 234.707031 285.511719 234.417969 285.347656 C 234.128906 285.183594 233.824219 285.046875 233.511719 284.945312 C 233.195312 284.839844 232.871094 284.765625 232.542969 284.722656 C 232.210938 284.683594 231.878906 284.671875 231.546875 284.699219 L 230.890625 284.699219 C 232.253906 270.410156 242.308594 251.828125 253.070312 232.234375 C 266.761719 207.191406 281.058594 181.035156 281.058594 156.699219 Z M 187.59375 363.71875 C 185.699219 363.726562 184.015625 363.140625 182.542969 361.949219 C 184.160156 361.949219 185.773438 361.949219 187.59375 361.949219 C 189.261719 361.949219 190.878906 361.949219 192.644531 361.949219 C 191.171875 363.136719 189.484375 363.722656 187.59375 363.71875 Z M 215.382812 331.554688 L 189.414062 333.421875 C 189.082031 333.433594 188.753906 333.476562 188.429688 333.554688 C 188.105469 333.628906 187.792969 333.738281 187.492188 333.875 C 187.191406 334.011719 186.90625 334.179688 186.636719 334.371094 C 186.367188 334.566406 186.117188 334.785156 185.890625 335.027344 C 185.664062 335.269531 185.464844 335.53125 185.289062 335.8125 C 185.117188 336.097656 184.96875 336.390625 184.855469 336.703125 C 184.738281 337.015625 184.652344 337.332031 184.601562 337.660156 C 184.546875 337.988281 184.527344 338.316406 184.539062 338.648438 C 184.546875 338.980469 184.59375 339.308594 184.667969 339.628906 C 184.746094 339.953125 184.851562 340.265625 184.988281 340.566406 C 185.128906 340.871094 185.292969 341.15625 185.488281 341.425781 C 185.679688 341.695312 185.898438 341.941406 186.140625 342.167969 C 186.382812 342.394531 186.648438 342.59375 186.929688 342.769531 C 187.210938 342.941406 187.507812 343.089844 187.820312 343.203125 C 188.128906 343.320312 188.449219 343.40625 188.777344 343.457031 C 189.105469 343.511719 189.433594 343.53125 189.765625 343.519531 L 190.121094 343.519531 L 207.804688 342.15625 C 204.691406 343.800781 201.425781 345.03125 198.003906 345.84375 C 194.582031 346.65625 191.109375 347.027344 187.59375 346.953125 C 175.519531 346.953125 161.878906 342.460938 159.90625 332.714844 L 159.90625 330.445312 L 215.480469 326.40625 Z M 215.382812 316.40625 L 159.804688 320.445312 L 159.804688 315.398438 L 215.382812 311.359375 Z M 215.382812 301.257812 L 159.804688 305.296875 L 159.804688 300.25 L 215.382812 296.210938 Z M 215.382812 286.113281 L 159.804688 290.152344 L 159.804688 287.980469 C 159.804688 286.96875 159.804688 285.910156 159.804688 284.898438 L 185.773438 282.929688 C 186.105469 282.90625 186.429688 282.847656 186.746094 282.757812 C 187.066406 282.667969 187.371094 282.550781 187.667969 282.402344 C 187.964844 282.25 188.242188 282.074219 188.5 281.871094 C 188.761719 281.667969 189 281.4375 189.214844 281.1875 C 189.429688 280.9375 189.621094 280.667969 189.78125 280.378906 C 189.945312 280.09375 190.078125 279.792969 190.183594 279.476562 C 190.285156 279.164062 190.359375 278.84375 190.398438 278.515625 C 190.4375 278.1875 190.445312 277.859375 190.421875 277.527344 C 190.402344 277.195312 190.347656 276.871094 190.257812 276.546875 C 190.171875 276.226562 190.054688 275.917969 189.90625 275.621094 C 189.757812 275.324219 189.582031 275.042969 189.378906 274.777344 C 189.175781 274.515625 188.949219 274.273438 188.695312 274.058594 C 188.445312 273.839844 188.175781 273.648438 187.886719 273.484375 C 187.597656 273.316406 187.292969 273.183594 186.980469 273.078125 C 186.664062 272.972656 186.339844 272.898438 186.011719 272.859375 C 185.679688 272.816406 185.347656 272.808594 185.015625 272.832031 L 158.039062 274.800781 C 154.402344 260.058594 145.609375 244.503906 136.3125 227.996094 C 123.027344 204.515625 109.285156 180.128906 109.285156 156.699219 C 109.285156 155.417969 109.316406 154.140625 109.378906 152.859375 C 109.441406 151.582031 109.535156 150.304688 109.660156 149.027344 C 109.785156 147.753906 109.945312 146.484375 110.132812 145.214844 C 110.320312 143.949219 110.539062 142.6875 110.789062 141.429688 C 111.039062 140.175781 111.320312 138.925781 111.628906 137.683594 C 111.941406 136.441406 112.285156 135.207031 112.65625 133.980469 C 113.027344 132.753906 113.429688 131.539062 113.863281 130.332031 C 114.292969 129.128906 114.753906 127.933594 115.246094 126.75 C 115.734375 125.566406 116.253906 124.394531 116.800781 123.238281 C 117.351562 122.078125 117.925781 120.9375 118.53125 119.804688 C 119.132812 118.675781 119.765625 117.5625 120.425781 116.464844 C 121.082031 115.367188 121.769531 114.285156 122.480469 113.21875 C 123.195312 112.152344 123.929688 111.105469 124.695312 110.078125 C 125.457031 109.050781 126.246094 108.039062 127.058594 107.050781 C 127.871094 106.058594 128.710938 105.089844 129.570312 104.140625 C 130.429688 103.191406 131.3125 102.265625 132.21875 101.359375 C 133.125 100.453125 134.054688 99.570312 135.003906 98.710938 C 135.953125 97.851562 136.921875 97.015625 137.914062 96.203125 C 138.90625 95.390625 139.914062 94.601562 140.945312 93.839844 C 141.972656 93.074219 143.019531 92.335938 144.085938 91.625 C 145.152344 90.914062 146.234375 90.230469 147.335938 89.570312 C 148.433594 88.914062 149.546875 88.28125 150.679688 87.675781 C 151.808594 87.074219 152.953125 86.5 154.113281 85.949219 C 155.269531 85.402344 156.441406 84.882812 157.625 84.394531 C 158.808594 83.902344 160.003906 83.441406 161.210938 83.011719 C 162.417969 82.578125 163.636719 82.179688 164.863281 81.804688 C 166.089844 81.433594 167.324219 81.09375 168.566406 80.78125 C 169.808594 80.46875 171.058594 80.191406 172.316406 79.941406 C 173.574219 79.691406 174.835938 79.472656 176.101562 79.285156 C 177.371094 79.09375 178.640625 78.9375 179.917969 78.8125 C 181.195312 78.6875 182.472656 78.59375 183.75 78.53125 C 185.03125 78.46875 186.3125 78.4375 187.59375 78.4375 C 188.875 78.4375 190.15625 78.46875 191.4375 78.53125 C 192.714844 78.59375 193.992188 78.6875 195.269531 78.8125 C 196.542969 78.9375 197.816406 79.09375 199.085938 79.285156 C 200.351562 79.472656 201.613281 79.691406 202.871094 79.941406 C 204.128906 80.191406 205.378906 80.46875 206.621094 80.78125 C 207.863281 81.09375 209.097656 81.433594 210.324219 81.804688 C 211.550781 82.179688 212.769531 82.578125 213.976562 83.011719 C 215.183594 83.441406 216.378906 83.902344 217.5625 84.394531 C 218.746094 84.882812 219.917969 85.402344 221.074219 85.949219 C 222.234375 86.5 223.378906 87.074219 224.507812 87.675781 C 225.640625 88.28125 226.753906 88.914062 227.851562 89.570312 C 228.953125 90.230469 230.035156 90.914062 231.101562 91.625 C 232.164062 92.335938 233.214844 93.074219 234.242188 93.839844 C 235.273438 94.601562 236.28125 95.390625 237.273438 96.203125 C 238.265625 97.015625 239.234375 97.851562 240.183594 98.710938 C 241.132812 99.570312 242.0625 100.453125 242.96875 101.359375 C 243.875 102.265625 244.757812 103.191406 245.617188 104.140625 C 246.476562 105.089844 247.316406 106.058594 248.128906 107.050781 C 248.941406 108.039062 249.730469 109.050781 250.492188 110.078125 C 251.257812 111.105469 251.992188 112.152344 252.707031 113.21875 C 253.417969 114.285156 254.101562 115.367188 254.761719 116.464844 C 255.421875 117.5625 256.050781 118.675781 256.65625 119.804688 C 257.261719 120.9375 257.835938 122.078125 258.386719 123.238281 C 258.933594 124.394531 259.453125 125.566406 259.941406 126.75 C 260.433594 127.933594 260.894531 129.128906 261.324219 130.332031 C 261.757812 131.539062 262.160156 132.753906 262.53125 133.980469 C 262.902344 135.207031 263.246094 136.441406 263.558594 137.683594 C 263.867188 138.925781 264.148438 140.175781 264.398438 141.429688 C 264.648438 142.6875 264.867188 143.949219 265.054688 145.214844 C 265.242188 146.484375 265.402344 147.753906 265.527344 149.027344 C 265.652344 150.304688 265.746094 151.582031 265.808594 152.859375 C 265.871094 154.140625 265.902344 155.417969 265.902344 156.699219 C 265.902344 176.898438 252.566406 201.488281 239.683594 225.066406 C 227.65625 247.03125 216.339844 267.78125 215.53125 285.910156 Z M 215.382812 286.113281 " fill-opacity="1" fill-rule="nonzero"/><path fill="#000000" d="M 195.171875 49.808594 L 195.171875 8.605469 C 195.171875 8.109375 195.125 7.617188 195.027344 7.128906 C 194.929688 6.640625 194.785156 6.167969 194.59375 5.707031 C 194.40625 5.246094 194.171875 4.8125 193.894531 4.398438 C 193.617188 3.984375 193.304688 3.601562 192.953125 3.25 C 192.601562 2.898438 192.21875 2.585938 191.804688 2.308594 C 191.390625 2.03125 190.953125 1.796875 190.492188 1.609375 C 190.035156 1.417969 189.558594 1.273438 189.070312 1.175781 C 188.585938 1.082031 188.089844 1.03125 187.59375 1.03125 C 187.097656 1.03125 186.601562 1.082031 186.117188 1.175781 C 185.628906 1.273438 185.152344 1.417969 184.695312 1.609375 C 184.234375 1.796875 183.796875 2.03125 183.382812 2.308594 C 182.96875 2.585938 182.585938 2.898438 182.234375 3.25 C 181.882812 3.601562 181.570312 3.984375 181.292969 4.398438 C 181.015625 4.8125 180.78125 5.246094 180.59375 5.707031 C 180.402344 6.167969 180.257812 6.640625 180.160156 7.128906 C 180.0625 7.617188 180.015625 8.109375 180.015625 8.605469 L 180.015625 49.859375 C 180.015625 50.355469 180.0625 50.847656 180.160156 51.335938 C 180.257812 51.824219 180.402344 52.296875 180.59375 52.757812 C 180.78125 53.214844 181.015625 53.652344 181.292969 54.066406 C 181.570312 54.480469 181.882812 54.863281 182.234375 55.214844 C 182.585938 55.566406 182.96875 55.878906 183.382812 56.15625 C 183.796875 56.429688 184.234375 56.664062 184.695312 56.855469 C 185.152344 57.046875 185.628906 57.1875 186.117188 57.285156 C 186.601562 57.382812 187.097656 57.433594 187.59375 57.433594 C 188.089844 57.433594 188.585938 57.382812 189.070312 57.285156 C 189.558594 57.1875 190.035156 57.046875 190.492188 56.855469 C 190.953125 56.664062 191.390625 56.429688 191.804688 56.15625 C 192.21875 55.878906 192.601562 55.566406 192.953125 55.214844 C 193.304688 54.863281 193.617188 54.480469 193.894531 54.066406 C 194.171875 53.652344 194.40625 53.214844 194.59375 52.757812 C 194.785156 52.296875 194.929688 51.824219 195.027344 51.335938 C 195.125 50.847656 195.171875 50.355469 195.171875 49.859375 Z M 195.171875 49.808594 " fill-opacity="1" fill-rule="nonzero"/><path fill="#000000" d="M 133.535156 72.023438 C 133.863281 72.023438 134.1875 72 134.511719 71.953125 C 134.835938 71.910156 135.15625 71.84375 135.472656 71.757812 C 135.789062 71.671875 136.097656 71.566406 136.402344 71.441406 C 136.703125 71.3125 136.996094 71.167969 137.28125 71.003906 C 137.5625 70.839844 137.835938 70.660156 138.09375 70.460938 C 138.355469 70.261719 138.601562 70.042969 138.832031 69.8125 C 139.066406 69.582031 139.28125 69.335938 139.480469 69.078125 C 139.683594 68.820312 139.863281 68.546875 140.03125 68.265625 C 140.195312 67.980469 140.339844 67.691406 140.46875 67.386719 C 140.59375 67.085938 140.703125 66.777344 140.789062 66.460938 C 140.875 66.144531 140.941406 65.824219 140.988281 65.5 C 141.03125 65.175781 141.058594 64.851562 141.058594 64.523438 C 141.0625 64.195312 141.046875 63.871094 141.007812 63.546875 C 140.96875 63.21875 140.90625 62.898438 140.828125 62.582031 C 140.746094 62.265625 140.644531 61.953125 140.523438 61.648438 C 140.402344 61.34375 140.261719 61.050781 140.101562 60.765625 L 119.488281 24.964844 C 119.242188 24.535156 118.953125 24.132812 118.625 23.757812 C 118.296875 23.382812 117.933594 23.042969 117.539062 22.742188 C 117.144531 22.4375 116.722656 22.175781 116.277344 21.957031 C 115.832031 21.734375 115.367188 21.5625 114.886719 21.433594 C 114.40625 21.304688 113.917969 21.222656 113.417969 21.191406 C 112.921875 21.15625 112.429688 21.171875 111.933594 21.238281 C 111.441406 21.304688 110.957031 21.414062 110.488281 21.574219 C 110.015625 21.734375 109.5625 21.9375 109.132812 22.1875 C 108.699219 22.4375 108.296875 22.726562 107.921875 23.054688 C 107.550781 23.382812 107.210938 23.742188 106.90625 24.136719 C 106.605469 24.53125 106.34375 24.953125 106.121094 25.398438 C 105.902344 25.84375 105.726562 26.308594 105.597656 26.789062 C 105.46875 27.269531 105.386719 27.757812 105.355469 28.253906 C 105.324219 28.75 105.339844 29.246094 105.402344 29.738281 C 105.46875 30.230469 105.582031 30.714844 105.742188 31.1875 C 105.902344 31.65625 106.105469 32.109375 106.355469 32.539062 L 126.964844 68.238281 C 127.300781 68.8125 127.703125 69.335938 128.171875 69.804688 C 128.644531 70.277344 129.167969 70.679688 129.742188 71.011719 C 130.320312 71.34375 130.929688 71.59375 131.570312 71.765625 C 132.214844 71.9375 132.867188 72.023438 133.535156 72.023438 Z M 133.535156 72.023438 " fill-opacity="1" fill-rule="nonzero"/><path fill="#000000" d="M 100.59375 107.972656 C 100.824219 107.550781 101.011719 107.105469 101.15625 106.644531 C 101.300781 106.183594 101.402344 105.714844 101.457031 105.234375 C 101.511719 104.753906 101.519531 104.273438 101.480469 103.789062 C 101.445312 103.308594 101.359375 102.832031 101.234375 102.367188 C 101.105469 101.902344 100.933594 101.453125 100.71875 101.019531 C 100.503906 100.585938 100.25 100.175781 99.957031 99.792969 C 99.664062 99.40625 99.339844 99.054688 98.976562 98.730469 C 98.617188 98.410156 98.230469 98.125 97.816406 97.875 L 62.097656 77.273438 C 61.664062 77.027344 61.214844 76.824219 60.742188 76.664062 C 60.269531 76.503906 59.789062 76.390625 59.292969 76.324219 C 58.800781 76.261719 58.304688 76.246094 57.808594 76.277344 C 57.3125 76.308594 56.824219 76.390625 56.34375 76.519531 C 55.859375 76.648438 55.398438 76.824219 54.949219 77.042969 C 54.503906 77.265625 54.082031 77.527344 53.6875 77.828125 C 53.292969 78.132812 52.933594 78.46875 52.605469 78.84375 C 52.277344 79.21875 51.988281 79.621094 51.738281 80.050781 C 51.488281 80.484375 51.285156 80.933594 51.125 81.40625 C 50.964844 81.875 50.851562 82.359375 50.789062 82.851562 C 50.722656 83.347656 50.707031 83.839844 50.742188 84.335938 C 50.773438 84.832031 50.855469 85.324219 50.984375 85.804688 C 51.113281 86.285156 51.285156 86.746094 51.507812 87.191406 C 51.726562 87.640625 51.988281 88.058594 52.292969 88.453125 C 52.59375 88.847656 52.933594 89.210938 53.308594 89.539062 C 53.683594 89.867188 54.085938 90.15625 54.515625 90.402344 L 90.238281 111.003906 C 90.664062 111.234375 91.105469 111.421875 91.566406 111.566406 C 92.027344 111.710938 92.5 111.808594 92.980469 111.863281 C 93.460938 111.917969 93.941406 111.929688 94.425781 111.890625 C 94.90625 111.851562 95.378906 111.769531 95.847656 111.640625 C 96.3125 111.515625 96.761719 111.34375 97.195312 111.128906 C 97.628906 110.914062 98.039062 110.660156 98.425781 110.367188 C 98.808594 110.074219 99.164062 109.75 99.484375 109.390625 C 99.808594 109.03125 100.09375 108.640625 100.339844 108.226562 Z M 100.59375 107.972656 " fill-opacity="1" fill-rule="nonzero"/><g clip-path="url(#4184d6d651)"><path fill="#000000" d="M 38.453125 165.839844 L 79.726562 165.839844 C 80.226562 165.839844 80.71875 165.789062 81.207031 165.691406 C 81.695312 165.597656 82.167969 165.453125 82.628906 165.261719 C 83.089844 165.070312 83.523438 164.839844 83.9375 164.5625 C 84.351562 164.285156 84.734375 163.972656 85.085938 163.621094 C 85.4375 163.269531 85.753906 162.886719 86.03125 162.472656 C 86.304688 162.058594 86.539062 161.621094 86.730469 161.164062 C 86.921875 160.703125 87.0625 160.230469 87.160156 159.742188 C 87.257812 159.253906 87.304688 158.761719 87.304688 158.265625 C 87.304688 157.769531 87.257812 157.273438 87.160156 156.789062 C 87.0625 156.300781 86.921875 155.824219 86.730469 155.367188 C 86.539062 154.90625 86.304688 154.46875 86.03125 154.058594 C 85.753906 153.644531 85.4375 153.261719 85.085938 152.910156 C 84.734375 152.558594 84.351562 152.242188 83.9375 151.96875 C 83.523438 151.691406 83.089844 151.457031 82.628906 151.265625 C 82.167969 151.078125 81.695312 150.933594 81.207031 150.835938 C 80.71875 150.738281 80.226562 150.691406 79.726562 150.691406 L 38.453125 150.691406 C 37.953125 150.691406 37.460938 150.738281 36.972656 150.835938 C 36.484375 150.933594 36.011719 151.078125 35.550781 151.265625 C 35.089844 151.457031 34.65625 151.691406 34.242188 151.96875 C 33.828125 152.242188 33.445312 152.558594 33.09375 152.910156 C 32.742188 153.261719 32.425781 153.644531 32.148438 154.058594 C 31.875 154.46875 31.640625 154.90625 31.449219 155.367188 C 31.257812 155.824219 31.117188 156.300781 31.019531 156.789062 C 30.921875 157.273438 30.871094 157.769531 30.871094 158.265625 C 30.871094 158.761719 30.921875 159.253906 31.019531 159.742188 C 31.117188 160.230469 31.257812 160.703125 31.449219 161.164062 C 31.640625 161.621094 31.875 162.058594 32.148438 162.472656 C 32.425781 162.886719 32.742188 163.269531 33.09375 163.621094 C 33.445312 163.972656 33.828125 164.285156 34.242188 164.5625 C 34.65625 164.839844 35.089844 165.070312 35.550781 165.261719 C 36.011719 165.453125 36.484375 165.597656 36.972656 165.691406 C 37.460938 165.789062 37.953125 165.839844 38.453125 165.839844 Z M 38.453125 165.839844 " fill-opacity="1" fill-rule="nonzero"/></g><path fill="#000000" d="M 52.042969 236.730469 C 52.289062 237.144531 52.574219 237.53125 52.898438 237.890625 C 53.21875 238.253906 53.574219 238.578125 53.960938 238.871094 C 54.34375 239.164062 54.753906 239.417969 55.1875 239.632812 C 55.621094 239.847656 56.070312 240.015625 56.535156 240.144531 C 57.003906 240.273438 57.476562 240.355469 57.960938 240.394531 C 58.441406 240.429688 58.921875 240.421875 59.402344 240.367188 C 59.882812 240.3125 60.355469 240.214844 60.816406 240.070312 C 61.277344 239.925781 61.722656 239.738281 62.144531 239.507812 L 97.867188 218.90625 C 98.296875 218.65625 98.699219 218.371094 99.074219 218.042969 C 99.449219 217.714844 99.789062 217.351562 100.089844 216.957031 C 100.394531 216.5625 100.65625 216.140625 100.875 215.695312 C 101.097656 215.25 101.269531 214.785156 101.398438 214.304688 C 101.527344 213.824219 101.609375 213.335938 101.644531 212.839844 C 101.675781 212.34375 101.660156 211.847656 101.59375 211.355469 C 101.53125 210.863281 101.417969 210.378906 101.257812 209.910156 C 101.097656 209.4375 100.894531 208.984375 100.644531 208.554688 C 100.394531 208.125 100.105469 207.722656 99.777344 207.347656 C 99.449219 206.972656 99.089844 206.632812 98.695312 206.332031 C 98.300781 206.027344 97.878906 205.765625 97.433594 205.546875 C 96.984375 205.328125 96.523438 205.152344 96.042969 205.023438 C 95.5625 204.894531 95.070312 204.8125 94.574219 204.78125 C 94.078125 204.746094 93.582031 204.765625 93.089844 204.828125 C 92.59375 204.894531 92.113281 205.003906 91.640625 205.164062 C 91.171875 205.324219 90.71875 205.53125 90.289062 205.777344 L 54.820312 226.378906 C 54.390625 226.628906 53.984375 226.914062 53.613281 227.242188 C 53.238281 227.570312 52.898438 227.933594 52.59375 228.328125 C 52.292969 228.722656 52.027344 229.140625 51.808594 229.589844 C 51.589844 230.035156 51.414062 230.5 51.285156 230.980469 C 51.15625 231.460938 51.074219 231.949219 51.042969 232.445312 C 51.007812 232.941406 51.027344 233.4375 51.089844 233.929688 C 51.15625 234.421875 51.269531 234.90625 51.429688 235.375 C 51.589844 235.847656 51.792969 236.300781 52.042969 236.730469 Z M 52.042969 236.730469 " fill-opacity="1" fill-rule="nonzero"/><path fill="#000000" d="M 277.976562 218.300781 L 313.898438 238.953125 C 314.332031 239.199219 314.78125 239.402344 315.253906 239.5625 C 315.726562 239.71875 316.207031 239.832031 316.699219 239.894531 C 317.191406 239.960938 317.6875 239.976562 318.183594 239.941406 C 318.679688 239.910156 319.167969 239.828125 319.648438 239.699219 C 320.128906 239.570312 320.59375 239.394531 321.039062 239.175781 C 321.484375 238.953125 321.902344 238.691406 322.296875 238.390625 C 322.691406 238.085938 323.054688 237.75 323.378906 237.375 C 323.707031 237 323.996094 236.597656 324.246094 236.167969 C 324.492188 235.738281 324.699219 235.285156 324.859375 234.816406 C 325.015625 234.34375 325.128906 233.863281 325.195312 233.371094 C 325.257812 232.878906 325.277344 232.382812 325.242188 231.886719 C 325.210938 231.390625 325.132812 230.902344 325.003906 230.421875 C 324.875 229.945312 324.699219 229.480469 324.480469 229.035156 C 324.261719 228.589844 324 228.167969 323.699219 227.773438 C 323.394531 227.378906 323.058594 227.019531 322.683594 226.691406 C 322.3125 226.363281 321.910156 226.074219 321.476562 225.824219 L 285.757812 205.222656 C 285.328125 204.972656 284.875 204.769531 284.40625 204.609375 C 283.933594 204.449219 283.449219 204.339844 282.957031 204.273438 C 282.464844 204.207031 281.96875 204.191406 281.472656 204.226562 C 280.976562 204.257812 280.484375 204.339844 280.003906 204.46875 C 279.523438 204.597656 279.058594 204.769531 278.613281 204.992188 C 278.167969 205.210938 277.746094 205.472656 277.351562 205.777344 C 276.957031 206.078125 276.59375 206.417969 276.265625 206.792969 C 275.9375 207.167969 275.652344 207.570312 275.402344 208 C 275.152344 208.429688 274.949219 208.882812 274.789062 209.351562 C 274.628906 209.824219 274.515625 210.308594 274.453125 210.800781 C 274.386719 211.292969 274.371094 211.789062 274.402344 212.285156 C 274.4375 212.78125 274.515625 213.269531 274.644531 213.75 C 274.773438 214.230469 274.949219 214.695312 275.171875 215.140625 C 275.390625 215.585938 275.652344 216.007812 275.957031 216.402344 C 276.257812 216.796875 276.597656 217.15625 276.972656 217.484375 C 277.347656 217.8125 277.75 218.101562 278.179688 218.351562 Z M 277.976562 218.300781 " fill-opacity="1" fill-rule="nonzero"/><g clip-path="url(#5e8beb5bf4)"><path fill="#000000" d="M 344.972656 157.660156 C 344.972656 157.160156 344.921875 156.667969 344.824219 156.179688 C 344.730469 155.695312 344.585938 155.21875 344.394531 154.761719 C 344.203125 154.300781 343.96875 153.863281 343.695312 153.449219 C 343.417969 153.039062 343.101562 152.65625 342.75 152.304688 C 342.398438 151.953125 342.015625 151.636719 341.601562 151.363281 C 341.191406 151.085938 340.753906 150.851562 340.292969 150.660156 C 339.832031 150.472656 339.359375 150.328125 338.871094 150.230469 C 338.382812 150.132812 337.890625 150.085938 337.394531 150.085938 L 296.117188 150.085938 C 295.617188 150.085938 295.125 150.132812 294.636719 150.230469 C 294.148438 150.328125 293.675781 150.472656 293.214844 150.660156 C 292.757812 150.851562 292.320312 151.085938 291.90625 151.363281 C 291.492188 151.636719 291.109375 151.953125 290.757812 152.304688 C 290.40625 152.65625 290.089844 153.039062 289.816406 153.449219 C 289.539062 153.863281 289.304688 154.300781 289.113281 154.761719 C 288.925781 155.21875 288.78125 155.695312 288.683594 156.179688 C 288.585938 156.667969 288.539062 157.160156 288.539062 157.660156 C 288.539062 158.15625 288.585938 158.648438 288.683594 159.136719 C 288.78125 159.625 288.925781 160.097656 289.113281 160.558594 C 289.304688 161.015625 289.539062 161.453125 289.816406 161.867188 C 290.089844 162.28125 290.40625 162.664062 290.757812 163.015625 C 291.109375 163.367188 291.492188 163.679688 291.90625 163.957031 C 292.320312 164.234375 292.757812 164.464844 293.214844 164.65625 C 293.675781 164.847656 294.148438 164.992188 294.636719 165.085938 C 295.125 165.183594 295.617188 165.234375 296.117188 165.234375 L 337.394531 165.234375 C 337.890625 165.234375 338.382812 165.183594 338.871094 165.085938 C 339.359375 164.992188 339.832031 164.847656 340.292969 164.65625 C 340.753906 164.464844 341.191406 164.234375 341.601562 163.957031 C 342.015625 163.679688 342.398438 163.367188 342.75 163.015625 C 343.101562 162.664062 343.417969 162.28125 343.695312 161.867188 C 343.96875 161.453125 344.203125 161.015625 344.394531 160.558594 C 344.585938 160.097656 344.730469 159.625 344.824219 159.136719 C 344.921875 158.648438 344.972656 158.15625 344.972656 157.660156 Z M 344.972656 157.660156 " fill-opacity="1" fill-rule="nonzero"/></g><path fill="#000000" d="M 281.464844 111.257812 C 282.820312 111.261719 284.082031 110.925781 285.253906 110.246094 L 320.972656 89.542969 C 321.40625 89.296875 321.808594 89.007812 322.183594 88.679688 C 322.554688 88.351562 322.894531 87.992188 323.199219 87.597656 C 323.5 87.203125 323.761719 86.78125 323.984375 86.335938 C 324.203125 85.886719 324.378906 85.425781 324.507812 84.945312 C 324.636719 84.464844 324.71875 83.976562 324.75 83.480469 C 324.78125 82.980469 324.765625 82.488281 324.703125 81.992188 C 324.636719 81.5 324.523438 81.019531 324.363281 80.546875 C 324.203125 80.074219 324 79.625 323.75 79.195312 C 323.503906 78.761719 323.214844 78.359375 322.886719 77.984375 C 322.558594 77.613281 322.195312 77.273438 321.800781 76.96875 C 321.40625 76.667969 320.984375 76.40625 320.539062 76.183594 C 320.09375 75.964844 319.628906 75.789062 319.148438 75.660156 C 318.667969 75.53125 318.179688 75.453125 317.683594 75.417969 C 317.183594 75.386719 316.691406 75.402344 316.195312 75.46875 C 315.703125 75.53125 315.21875 75.644531 314.75 75.804688 C 314.277344 75.964844 313.824219 76.167969 313.394531 76.417969 L 277.675781 97.019531 C 276.953125 97.433594 276.3125 97.957031 275.761719 98.582031 C 275.210938 99.210938 274.777344 99.90625 274.457031 100.679688 C 274.136719 101.449219 273.949219 102.25 273.894531 103.082031 C 273.839844 103.917969 273.917969 104.734375 274.136719 105.542969 C 274.351562 106.347656 274.691406 107.097656 275.15625 107.789062 C 275.621094 108.484375 276.183594 109.085938 276.847656 109.59375 C 277.507812 110.101562 278.234375 110.488281 279.027344 110.753906 C 279.816406 111.023438 280.628906 111.15625 281.464844 111.15625 Z M 281.464844 111.257812 " fill-opacity="1" fill-rule="nonzero"/><path fill="#000000" d="M 241.753906 71.722656 C 242.417969 71.722656 243.074219 71.636719 243.714844 71.464844 C 244.359375 71.292969 244.96875 71.039062 245.546875 70.707031 C 246.121094 70.375 246.644531 69.972656 247.117188 69.503906 C 247.585938 69.035156 247.988281 68.511719 248.320312 67.933594 L 268.933594 32.234375 C 269.183594 31.804688 269.386719 31.355469 269.546875 30.882812 C 269.707031 30.410156 269.820312 29.929688 269.886719 29.4375 C 269.949219 28.941406 269.964844 28.449219 269.933594 27.949219 C 269.902344 27.453125 269.820312 26.964844 269.691406 26.484375 C 269.5625 26.003906 269.386719 25.542969 269.167969 25.09375 C 268.945312 24.648438 268.683594 24.230469 268.382812 23.832031 C 268.078125 23.4375 267.738281 23.078125 267.363281 22.75 C 266.992188 22.421875 266.585938 22.132812 266.15625 21.886719 C 265.726562 21.636719 265.273438 21.433594 264.800781 21.273438 C 264.332031 21.113281 263.847656 21 263.355469 20.933594 C 262.859375 20.871094 262.367188 20.855469 261.867188 20.886719 C 261.371094 20.921875 260.882812 21 260.402344 21.128906 C 259.921875 21.257812 259.457031 21.433594 259.011719 21.652344 C 258.566406 21.875 258.144531 22.136719 257.75 22.4375 C 257.355469 22.742188 256.992188 23.082031 256.664062 23.453125 C 256.335938 23.828125 256.046875 24.230469 255.800781 24.664062 L 235.1875 60.359375 C 234.851562 60.9375 234.601562 61.546875 234.429688 62.1875 C 234.257812 62.828125 234.171875 63.484375 234.171875 64.148438 C 234.171875 64.8125 234.257812 65.46875 234.429688 66.109375 C 234.601562 66.75 234.855469 67.359375 235.1875 67.9375 C 235.519531 68.511719 235.921875 69.035156 236.390625 69.503906 C 236.863281 69.976562 237.386719 70.375 237.964844 70.707031 C 238.539062 71.039062 239.148438 71.292969 239.792969 71.464844 C 240.433594 71.636719 241.089844 71.722656 241.753906 71.722656 Z M 241.753906 71.722656 " fill-opacity="1" fill-rule="nonzero"/><path fill="#000000" d="M 187.59375 138.269531 C 186.992188 138.273438 186.390625 138.304688 185.789062 138.367188 C 185.1875 138.429688 184.59375 138.523438 184.003906 138.644531 C 183.410156 138.761719 182.828125 138.914062 182.25 139.089844 C 181.675781 139.269531 181.109375 139.476562 180.550781 139.707031 C 179.996094 139.941406 179.453125 140.203125 178.921875 140.488281 C 178.390625 140.777344 177.875 141.085938 177.375 141.425781 C 176.875 141.761719 176.394531 142.125 175.929688 142.507812 C 175.464844 142.890625 175.019531 143.300781 174.597656 143.726562 C 174.171875 144.15625 173.769531 144.601562 173.386719 145.070312 C 173.007812 145.539062 172.652344 146.023438 172.316406 146.527344 C 171.984375 147.03125 171.675781 147.546875 171.394531 148.082031 C 171.113281 148.613281 170.859375 149.160156 170.628906 149.714844 C 170.398438 150.273438 170.199219 150.84375 170.027344 151.421875 C 169.855469 151.996094 169.710938 152.582031 169.59375 153.175781 C 169.480469 153.765625 169.394531 154.363281 169.335938 154.960938 C 169.28125 155.5625 169.253906 156.164062 169.253906 156.765625 C 169.257812 157.371094 169.289062 157.972656 169.347656 158.570312 C 169.410156 159.171875 169.5 159.765625 169.621094 160.355469 C 169.742188 160.949219 169.890625 161.53125 170.066406 162.109375 C 170.242188 162.683594 170.449219 163.25 170.679688 163.804688 C 170.914062 164.363281 171.171875 164.90625 171.457031 165.4375 C 171.746094 165.96875 172.054688 166.484375 172.390625 166.984375 C 172.730469 167.484375 173.089844 167.964844 173.472656 168.429688 C 173.855469 168.898438 174.261719 169.339844 174.691406 169.765625 C 175.117188 170.191406 175.566406 170.59375 176.035156 170.976562 C 176.5 171.359375 176.984375 171.714844 177.488281 172.046875 C 177.992188 172.382812 178.507812 172.691406 179.039062 172.972656 C 179.574219 173.257812 180.117188 173.511719 180.675781 173.742188 C 181.234375 173.972656 181.800781 174.171875 182.378906 174.347656 C 182.957031 174.519531 183.542969 174.664062 184.132812 174.78125 C 184.726562 174.898438 185.320312 174.984375 185.921875 175.042969 C 186.523438 175.101562 187.125 175.128906 187.726562 175.128906 C 188.332031 175.128906 188.933594 175.097656 189.535156 175.039062 C 190.132812 174.976562 190.730469 174.886719 191.320312 174.769531 C 191.914062 174.652344 192.496094 174.503906 193.074219 174.328125 C 193.652344 174.152344 194.21875 173.949219 194.773438 173.714844 C 195.332031 173.484375 195.875 173.226562 196.40625 172.941406 C 196.941406 172.65625 197.457031 172.347656 197.957031 172.011719 C 198.457031 171.675781 198.941406 171.316406 199.40625 170.933594 C 199.875 170.550781 200.320312 170.144531 200.746094 169.71875 C 201.171875 169.292969 201.578125 168.847656 201.957031 168.378906 C 202.339844 167.914062 202.699219 167.429688 203.035156 166.929688 C 203.371094 166.425781 203.679688 165.910156 203.964844 165.378906 C 204.246094 164.847656 204.503906 164.300781 204.734375 163.746094 C 204.964844 163.1875 205.167969 162.621094 205.34375 162.042969 C 205.519531 161.464844 205.664062 160.882812 205.78125 160.289062 C 205.898438 159.699219 205.988281 159.105469 206.046875 158.503906 C 206.105469 157.902344 206.136719 157.300781 206.136719 156.699219 C 206.136719 156.09375 206.105469 155.488281 206.046875 154.886719 C 205.988281 154.285156 205.898438 153.6875 205.777344 153.089844 C 205.660156 152.496094 205.511719 151.910156 205.335938 151.332031 C 205.160156 150.753906 204.953125 150.183594 204.722656 149.625 C 204.488281 149.0625 204.230469 148.519531 203.941406 147.984375 C 203.65625 147.449219 203.34375 146.933594 203.007812 146.429688 C 202.667969 145.925781 202.308594 145.441406 201.921875 144.972656 C 201.535156 144.507812 201.128906 144.058594 200.699219 143.632812 C 200.269531 143.203125 199.820312 142.800781 199.347656 142.417969 C 198.878906 142.035156 198.390625 141.675781 197.886719 141.339844 C 197.382812 141.007812 196.863281 140.695312 196.328125 140.414062 C 195.789062 140.128906 195.242188 139.875 194.683594 139.644531 C 194.121094 139.414062 193.550781 139.210938 192.96875 139.039062 C 192.386719 138.867188 191.800781 138.722656 191.207031 138.605469 C 190.609375 138.492188 190.011719 138.40625 189.40625 138.347656 C 188.804688 138.292969 188.199219 138.265625 187.59375 138.269531 Z M 187.59375 164.980469 C 187.046875 164.972656 186.507812 164.914062 185.972656 164.800781 C 185.4375 164.6875 184.917969 164.523438 184.414062 164.308594 C 183.914062 164.09375 183.4375 163.832031 182.984375 163.523438 C 182.535156 163.214844 182.117188 162.867188 181.734375 162.476562 C 181.351562 162.085938 181.011719 161.660156 180.714844 161.203125 C 180.414062 160.746094 180.164062 160.261719 179.960938 159.757812 C 179.757812 159.25 179.605469 158.726562 179.503906 158.191406 C 179.402344 157.652344 179.355469 157.113281 179.359375 156.566406 C 179.363281 156.019531 179.421875 155.480469 179.535156 154.945312 C 179.648438 154.410156 179.808594 153.890625 180.023438 153.386719 C 180.238281 152.886719 180.5 152.410156 180.808594 151.957031 C 181.113281 151.503906 181.464844 151.089844 181.855469 150.707031 C 182.242188 150.324219 182.667969 149.980469 183.125 149.683594 C 183.582031 149.382812 184.0625 149.128906 184.570312 148.925781 C 185.078125 148.722656 185.597656 148.566406 186.136719 148.464844 C 186.671875 148.363281 187.214844 148.3125 187.761719 148.320312 C 188.308594 148.324219 188.847656 148.378906 189.386719 148.492188 C 189.921875 148.601562 190.441406 148.765625 190.941406 148.976562 C 191.445312 149.191406 191.925781 149.449219 192.375 149.757812 C 192.828125 150.0625 193.246094 150.410156 193.628906 150.800781 C 194.015625 151.1875 194.355469 151.613281 194.65625 152.066406 C 194.957031 152.523438 195.210938 153.003906 195.417969 153.511719 C 195.625 154.019531 195.777344 154.539062 195.882812 155.074219 C 195.984375 155.613281 196.035156 156.152344 196.03125 156.699219 C 196.03125 157.25 195.976562 157.796875 195.867188 158.335938 C 195.761719 158.878906 195.597656 159.402344 195.386719 159.910156 C 195.175781 160.421875 194.914062 160.902344 194.605469 161.359375 C 194.296875 161.816406 193.945312 162.238281 193.554688 162.625 C 193.160156 163.015625 192.734375 163.359375 192.273438 163.664062 C 191.8125 163.964844 191.328125 164.21875 190.816406 164.425781 C 190.304688 164.632812 189.777344 164.785156 189.234375 164.886719 C 188.691406 164.988281 188.144531 165.039062 187.59375 165.03125 Z M 187.59375 164.980469 " fill-opacity="1" fill-rule="nonzero"/><path fill="#000000" d="M 233.0625 143.925781 L 224.222656 143.925781 C 223.746094 142.53125 223.191406 141.167969 222.554688 139.835938 L 228.820312 133.574219 C 229.054688 133.339844 229.261719 133.085938 229.445312 132.808594 C 229.628906 132.535156 229.78125 132.246094 229.90625 131.941406 C 230.035156 131.632812 230.128906 131.320312 230.191406 130.996094 C 230.257812 130.671875 230.289062 130.34375 230.289062 130.015625 C 230.289062 129.683594 230.257812 129.355469 230.191406 129.03125 C 230.128906 128.710938 230.035156 128.394531 229.90625 128.089844 C 229.78125 127.785156 229.628906 127.492188 229.445312 127.21875 C 229.261719 126.945312 229.054688 126.6875 228.820312 126.453125 L 217.90625 115.546875 C 217.671875 115.316406 217.417969 115.109375 217.144531 114.925781 C 216.867188 114.742188 216.578125 114.585938 216.273438 114.460938 C 215.964844 114.335938 215.652344 114.242188 215.328125 114.175781 C 215.003906 114.113281 214.675781 114.082031 214.34375 114.082031 C 214.015625 114.082031 213.6875 114.113281 213.363281 114.175781 C 213.039062 114.242188 212.722656 114.335938 212.417969 114.460938 C 212.113281 114.585938 211.824219 114.742188 211.546875 114.925781 C 211.273438 115.109375 211.019531 115.316406 210.785156 115.546875 L 204.519531 121.808594 C 203.1875 121.175781 201.824219 120.621094 200.425781 120.144531 L 200.425781 111.257812 C 200.425781 110.925781 200.394531 110.597656 200.328125 110.269531 C 200.265625 109.945312 200.167969 109.628906 200.042969 109.324219 C 199.914062 109.019531 199.757812 108.726562 199.574219 108.453125 C 199.390625 108.175781 199.179688 107.921875 198.945312 107.6875 C 198.710938 107.453125 198.457031 107.242188 198.179688 107.058594 C 197.90625 106.875 197.613281 106.71875 197.308594 106.589844 C 197 106.464844 196.683594 106.367188 196.359375 106.304688 C 196.035156 106.238281 195.707031 106.207031 195.375 106.207031 L 179.863281 106.207031 C 179.53125 106.207031 179.203125 106.238281 178.878906 106.304688 C 178.554688 106.367188 178.238281 106.464844 177.929688 106.589844 C 177.625 106.71875 177.332031 106.875 177.058594 107.058594 C 176.78125 107.242188 176.527344 107.453125 176.292969 107.6875 C 176.058594 107.921875 175.847656 108.175781 175.664062 108.453125 C 175.480469 108.726562 175.324219 109.019531 175.195312 109.324219 C 175.070312 109.628906 174.972656 109.945312 174.910156 110.269531 C 174.84375 110.597656 174.8125 110.925781 174.8125 111.257812 L 174.8125 120.144531 C 173.433594 120.621094 172.085938 121.175781 170.769531 121.808594 L 164.453125 115.496094 C 164.21875 115.265625 163.964844 115.058594 163.691406 114.875 C 163.414062 114.691406 163.125 114.535156 162.820312 114.410156 C 162.511719 114.285156 162.199219 114.191406 161.875 114.125 C 161.550781 114.0625 161.222656 114.03125 160.894531 114.03125 C 160.5625 114.03125 160.234375 114.0625 159.910156 114.125 C 159.585938 114.191406 159.273438 114.285156 158.964844 114.410156 C 158.660156 114.535156 158.371094 114.691406 158.09375 114.875 C 157.820312 115.058594 157.566406 115.265625 157.332031 115.496094 L 146.417969 126.402344 C 146.183594 126.636719 145.976562 126.894531 145.792969 127.167969 C 145.609375 127.441406 145.457031 127.734375 145.332031 128.039062 C 145.203125 128.34375 145.109375 128.660156 145.046875 128.984375 C 144.980469 129.304688 144.949219 129.632812 144.949219 129.964844 C 144.949219 130.292969 144.980469 130.621094 145.046875 130.945312 C 145.109375 131.269531 145.203125 131.582031 145.332031 131.890625 C 145.457031 132.195312 145.609375 132.484375 145.792969 132.761719 C 145.976562 133.035156 146.183594 133.289062 146.417969 133.523438 L 152.785156 139.886719 C 152.152344 141.183594 151.597656 142.511719 151.117188 143.875 L 142.125 143.875 C 141.792969 143.875 141.464844 143.90625 141.136719 143.972656 C 140.8125 144.035156 140.496094 144.132812 140.191406 144.257812 C 139.882812 144.386719 139.59375 144.542969 139.316406 144.726562 C 139.039062 144.910156 138.785156 145.117188 138.550781 145.351562 C 138.316406 145.589844 138.105469 145.84375 137.921875 146.117188 C 137.738281 146.394531 137.582031 146.683594 137.457031 146.992188 C 137.328125 147.296875 137.234375 147.613281 137.167969 147.9375 C 137.105469 148.265625 137.070312 148.59375 137.070312 148.921875 L 137.070312 164.375 C 137.070312 164.707031 137.105469 165.035156 137.167969 165.359375 C 137.234375 165.683594 137.328125 166 137.457031 166.308594 C 137.582031 166.613281 137.738281 166.902344 137.921875 167.179688 C 138.105469 167.457031 138.316406 167.710938 138.550781 167.945312 C 138.785156 168.179688 139.039062 168.386719 139.316406 168.574219 C 139.59375 168.757812 139.882812 168.914062 140.191406 169.039062 C 140.496094 169.167969 140.8125 169.261719 141.136719 169.328125 C 141.464844 169.390625 141.792969 169.421875 142.125 169.421875 L 151.167969 169.421875 C 151.632812 170.765625 152.171875 172.078125 152.785156 173.363281 L 146.367188 179.773438 C 146.132812 180.007812 145.925781 180.261719 145.742188 180.539062 C 145.558594 180.8125 145.40625 181.105469 145.28125 181.410156 C 145.152344 181.714844 145.058594 182.027344 144.996094 182.351562 C 144.929688 182.675781 144.898438 183.003906 144.898438 183.335938 C 144.898438 183.664062 144.929688 183.992188 144.996094 184.316406 C 145.058594 184.640625 145.152344 184.953125 145.28125 185.257812 C 145.40625 185.566406 145.558594 185.855469 145.742188 186.128906 C 145.925781 186.40625 146.132812 186.660156 146.367188 186.894531 L 157.28125 197.851562 C 157.515625 198.082031 157.769531 198.292969 158.042969 198.472656 C 158.320312 198.65625 158.609375 198.8125 158.914062 198.9375 C 159.222656 199.0625 159.535156 199.160156 159.859375 199.222656 C 160.183594 199.285156 160.511719 199.320312 160.84375 199.320312 C 161.171875 199.320312 161.5 199.285156 161.824219 199.222656 C 162.148438 199.160156 162.464844 199.0625 162.769531 198.9375 C 163.074219 198.8125 163.363281 198.65625 163.640625 198.472656 C 163.914062 198.292969 164.167969 198.082031 164.402344 197.851562 L 170.820312 191.4375 C 172.105469 192.050781 173.417969 192.589844 174.761719 193.054688 L 174.761719 202.144531 C 174.761719 202.472656 174.792969 202.800781 174.859375 203.128906 C 174.921875 203.453125 175.019531 203.769531 175.144531 204.074219 C 175.273438 204.382812 175.429688 204.671875 175.613281 204.949219 C 175.796875 205.222656 176.007812 205.480469 176.242188 205.714844 C 176.476562 205.949219 176.730469 206.15625 177.007812 206.339844 C 177.28125 206.523438 177.574219 206.679688 177.878906 206.808594 C 178.1875 206.933594 178.503906 207.03125 178.828125 207.09375 C 179.152344 207.160156 179.480469 207.191406 179.8125 207.191406 L 195.273438 207.191406 C 195.605469 207.191406 195.933594 207.160156 196.257812 207.09375 C 196.585938 207.03125 196.898438 206.933594 197.207031 206.808594 C 197.511719 206.679688 197.804688 206.523438 198.078125 206.339844 C 198.355469 206.15625 198.609375 205.949219 198.84375 205.714844 C 199.082031 205.480469 199.289062 205.222656 199.472656 204.949219 C 199.660156 204.671875 199.8125 204.382812 199.941406 204.074219 C 200.066406 203.769531 200.164062 203.453125 200.226562 203.128906 C 200.292969 202.800781 200.324219 202.472656 200.324219 202.144531 L 200.324219 193.15625 C 201.6875 192.675781 203.019531 192.121094 204.316406 191.488281 L 210.683594 197.851562 C 210.917969 198.082031 211.171875 198.292969 211.445312 198.472656 C 211.722656 198.65625 212.011719 198.8125 212.316406 198.9375 C 212.625 199.0625 212.9375 199.160156 213.261719 199.222656 C 213.585938 199.285156 213.914062 199.320312 214.246094 199.320312 C 214.574219 199.320312 214.902344 199.285156 215.226562 199.222656 C 215.550781 199.160156 215.867188 199.0625 216.171875 198.9375 C 216.476562 198.8125 216.765625 198.65625 217.042969 198.472656 C 217.316406 198.292969 217.570312 198.082031 217.804688 197.851562 L 228.769531 186.996094 C 229.003906 186.761719 229.210938 186.507812 229.394531 186.230469 C 229.578125 185.957031 229.730469 185.664062 229.855469 185.359375 C 229.984375 185.054688 230.078125 184.742188 230.140625 184.417969 C 230.207031 184.09375 230.238281 183.765625 230.238281 183.433594 C 230.238281 183.105469 230.207031 182.777344 230.140625 182.453125 C 230.078125 182.128906 229.984375 181.816406 229.855469 181.511719 C 229.730469 181.203125 229.578125 180.914062 229.394531 180.640625 C 229.210938 180.363281 229.003906 180.109375 228.769531 179.875 L 222.453125 173.5625 C 223.089844 172.25 223.644531 170.902344 224.121094 169.523438 L 233.0625 169.523438 C 233.394531 169.523438 233.722656 169.492188 234.050781 169.425781 C 234.375 169.363281 234.691406 169.265625 234.996094 169.140625 C 235.304688 169.011719 235.59375 168.859375 235.871094 168.671875 C 236.148438 168.488281 236.402344 168.28125 236.636719 168.046875 C 236.871094 167.8125 237.082031 167.554688 237.265625 167.28125 C 237.449219 167.003906 237.605469 166.714844 237.730469 166.40625 C 237.859375 166.101562 237.953125 165.785156 238.019531 165.460938 C 238.082031 165.136719 238.117188 164.808594 238.117188 164.476562 L 238.117188 148.972656 C 238.117188 148.644531 238.082031 148.3125 238.019531 147.988281 C 237.953125 147.664062 237.859375 147.347656 237.730469 147.042969 C 237.605469 146.734375 237.449219 146.445312 237.265625 146.167969 C 237.082031 145.894531 236.871094 145.636719 236.636719 145.402344 C 236.402344 145.167969 236.148438 144.960938 235.871094 144.777344 C 235.59375 144.59375 235.304688 144.4375 234.996094 144.308594 C 234.691406 144.183594 234.375 144.085938 234.050781 144.023438 C 233.722656 143.957031 233.394531 143.925781 233.0625 143.925781 Z M 228.011719 159.375 L 220.382812 159.375 C 219.800781 159.359375 219.234375 159.441406 218.683594 159.621094 C 218.132812 159.800781 217.625 160.070312 217.164062 160.421875 C 216.707031 160.777344 216.316406 161.199219 216.003906 161.683594 C 215.6875 162.171875 215.464844 162.699219 215.332031 163.261719 C 214.601562 166.277344 213.421875 169.105469 211.792969 171.746094 C 211.515625 172.246094 211.332031 172.78125 211.234375 173.34375 C 211.140625 173.910156 211.140625 174.472656 211.238281 175.039062 C 211.332031 175.601562 211.519531 176.132812 211.796875 176.632812 C 212.074219 177.136719 212.425781 177.574219 212.855469 177.957031 L 217.90625 183.359375 L 214.117188 187.148438 L 208.863281 181.945312 C 208.480469 181.539062 208.039062 181.203125 207.542969 180.941406 C 207.050781 180.683594 206.523438 180.507812 205.972656 180.421875 C 205.417969 180.335938 204.867188 180.339844 204.3125 180.4375 C 203.761719 180.53125 203.242188 180.714844 202.75 180.988281 C 200.128906 182.605469 197.316406 183.769531 194.3125 184.46875 C 193.75 184.605469 193.222656 184.828125 192.734375 185.140625 C 192.246094 185.457031 191.824219 185.84375 191.46875 186.304688 C 191.117188 186.765625 190.847656 187.269531 190.667969 187.820312 C 190.488281 188.375 190.40625 188.941406 190.421875 189.519531 L 190.421875 197.09375 L 184.917969 197.09375 L 184.917969 189.316406 C 184.929688 188.738281 184.847656 188.171875 184.667969 187.621094 C 184.488281 187.066406 184.222656 186.5625 183.867188 186.101562 C 183.515625 185.640625 183.09375 185.253906 182.605469 184.941406 C 182.117188 184.625 181.589844 184.402344 181.027344 184.269531 C 177.980469 183.625 175.117188 182.511719 172.4375 180.9375 C 171.953125 180.636719 171.4375 180.425781 170.882812 180.300781 C 170.328125 180.179688 169.769531 180.148438 169.207031 180.210938 C 168.644531 180.277344 168.105469 180.429688 167.59375 180.675781 C 167.082031 180.921875 166.625 181.242188 166.222656 181.644531 L 160.917969 186.996094 L 157.28125 183.359375 L 162.789062 177.855469 C 163.152344 177.453125 163.441406 177 163.660156 176.503906 C 163.878906 176.003906 164.011719 175.484375 164.0625 174.945312 C 164.113281 174.402344 164.074219 173.867188 163.953125 173.335938 C 163.828125 172.808594 163.625 172.3125 163.34375 171.847656 C 161.730469 169.242188 160.566406 166.445312 159.855469 163.464844 C 159.722656 162.902344 159.5 162.375 159.183594 161.886719 C 158.871094 161.398438 158.480469 160.980469 158.023438 160.625 C 157.5625 160.269531 157.054688 160.003906 156.503906 159.824219 C 155.953125 159.644531 155.386719 159.5625 154.804688 159.578125 L 147.175781 159.578125 L 147.175781 154.023438 L 154.90625 154.023438 C 155.484375 154.039062 156.050781 153.957031 156.605469 153.777344 C 157.15625 153.597656 157.664062 153.332031 158.121094 152.976562 C 158.582031 152.621094 158.96875 152.203125 159.285156 151.714844 C 159.601562 151.226562 159.824219 150.699219 159.957031 150.136719 C 160.605469 147.09375 161.71875 144.234375 163.292969 141.550781 C 163.5625 141.0625 163.746094 140.539062 163.84375 139.988281 C 163.941406 139.4375 163.945312 138.886719 163.859375 138.332031 C 163.769531 137.78125 163.597656 137.257812 163.335938 136.761719 C 163.074219 136.265625 162.738281 135.828125 162.332031 135.441406 L 157.28125 130.039062 L 161.070312 126.253906 L 166.324219 131.453125 C 166.726562 131.859375 167.1875 132.183594 167.703125 132.433594 C 168.21875 132.683594 168.761719 132.839844 169.332031 132.902344 C 169.902344 132.96875 170.464844 132.9375 171.023438 132.808594 C 171.582031 132.679688 172.105469 132.464844 172.589844 132.160156 C 175.222656 130.519531 178.054688 129.339844 181.078125 128.625 C 181.640625 128.492188 182.167969 128.269531 182.65625 127.953125 C 183.144531 127.640625 183.566406 127.25 183.917969 126.792969 C 184.273438 126.332031 184.539062 125.828125 184.71875 125.273438 C 184.898438 124.722656 184.980469 124.15625 184.964844 123.578125 L 184.964844 116.304688 L 190.320312 116.304688 L 190.320312 123.878906 C 190.304688 124.460938 190.386719 125.027344 190.566406 125.578125 C 190.75 126.128906 191.015625 126.636719 191.371094 127.09375 C 191.722656 127.554688 192.144531 127.941406 192.632812 128.257812 C 193.121094 128.570312 193.648438 128.796875 194.210938 128.929688 C 197.253906 129.636719 200.101562 130.8125 202.75 132.464844 C 203.246094 132.738281 203.773438 132.921875 204.332031 133.015625 C 204.890625 133.113281 205.449219 133.117188 206.007812 133.023438 C 206.566406 132.933594 207.09375 132.753906 207.59375 132.484375 C 208.089844 132.214844 208.53125 131.871094 208.914062 131.453125 L 214.269531 126.402344 L 218.058594 130.191406 L 212.855469 135.339844 C 212.445312 135.734375 212.109375 136.183594 211.851562 136.691406 C 211.589844 137.199219 211.421875 137.734375 211.34375 138.296875 C 211.265625 138.859375 211.28125 139.421875 211.394531 139.980469 C 211.507812 140.539062 211.707031 141.0625 211.996094 141.550781 C 213.644531 144.203125 214.824219 147.046875 215.53125 150.085938 C 215.667969 150.648438 215.890625 151.175781 216.207031 151.664062 C 216.519531 152.152344 216.90625 152.570312 217.367188 152.925781 C 217.828125 153.28125 218.332031 153.546875 218.886719 153.726562 C 219.4375 153.90625 220.003906 153.988281 220.585938 153.972656 L 228.011719 153.972656 Z M 228.011719 159.375 " fill-opacity="1" fill-rule="nonzero"/></svg>