<svg xmlns="http://www.w3.org/2000/svg" xmlns:xlink="http://www.w3.org/1999/xlink" width="500" zoomAndPan="magnify" viewBox="0 0 375 374.999991" height="500" preserveAspectRatio="xMidYMid meet" version="1.0"><defs><clipPath id="9389805679"><path d="M 352 318 L 371.765625 318 L 371.765625 375 L 352 375 Z M 352 318 " clip-rule="nonzero"/></clipPath></defs><rect x="-37.5" width="450" fill="#ffffff" y="-37.499999" height="449.999989" fill-opacity="1"/><rect x="-37.5" width="450" fill="#ffffff" y="-37.499999" height="449.999989" fill-opacity="1"/><path fill="#253036" d="M 168.816406 176.6875 L 210.160156 176.6875 L 210.160156 373.59375 L 168.816406 373.59375 Z M 168.816406 176.6875 " fill-opacity="1" fill-rule="nonzero"/><path fill="#253036" d="M 17.503906 10.546875 C 17.503906 4.722656 22.230469 0 28.058594 0 L 341.238281 0 C 347.070312 0 351.796875 4.722656 351.796875 10.546875 L 351.796875 197.785156 C 351.796875 203.609375 347.070312 208.332031 341.238281 208.332031 L 28.058594 208.332031 C 22.230469 208.332031 17.503906 203.609375 17.503906 197.785156 Z M 17.503906 10.546875 " fill-opacity="1" fill-rule="nonzero"/><path fill="#759df5" d="M 26.300781 11.425781 C 26.300781 9.972656 27.480469 8.789062 28.941406 8.789062 L 340.359375 8.789062 C 341.816406 8.789062 343 9.972656 343 11.425781 L 343 196.027344 C 343 197.484375 341.816406 198.664062 340.359375 198.664062 L 28.941406 198.664062 C 27.480469 198.664062 26.300781 197.484375 26.300781 196.027344 Z M 26.300781 11.425781 " fill-opacity="1" fill-rule="nonzero"/><path fill="#3e77f4" d="M 148.582031 38.523438 C 148.582031 37.066406 149.761719 35.886719 151.21875 35.886719 L 184.078125 35.886719 C 185.539062 35.886719 186.71875 37.066406 186.71875 38.523438 L 186.71875 71.355469 C 186.71875 72.8125 185.539062 73.996094 184.078125 73.996094 L 151.21875 73.996094 C 149.761719 73.996094 148.582031 72.8125 148.582031 71.355469 Z M 148.582031 38.523438 " fill-opacity="1" fill-rule="nonzero"/><path fill="#f2f2f2" d="M 156.308594 53.734375 C 156.996094 53.046875 158.113281 53.046875 158.800781 53.734375 L 164.296875 59.226562 L 178.792969 44.742188 C 179.480469 44.054688 180.59375 44.054688 181.28125 44.742188 C 181.96875 45.429688 181.96875 46.542969 181.28125 47.230469 L 164.296875 64.199219 L 156.308594 56.21875 C 155.625 55.53125 155.625 54.417969 156.308594 53.734375 Z M 156.308594 53.734375 " fill-opacity="1" fill-rule="evenodd"/><path fill="#3e77f4" d="M 148.582031 91.265625 C 148.582031 89.808594 149.761719 88.628906 151.21875 88.628906 L 184.078125 88.628906 C 185.539062 88.628906 186.71875 89.808594 186.71875 91.265625 L 186.71875 124.101562 C 186.71875 125.554688 185.539062 126.738281 184.078125 126.738281 L 151.21875 126.738281 C 149.761719 126.738281 148.582031 125.554688 148.582031 124.101562 Z M 148.582031 91.265625 " fill-opacity="1" fill-rule="nonzero"/><path fill="#f2f2f2" d="M 156.308594 106.476562 C 156.996094 105.789062 158.113281 105.789062 158.800781 106.476562 L 164.296875 111.96875 L 178.792969 97.484375 C 179.480469 96.796875 180.59375 96.796875 181.28125 97.484375 C 181.96875 98.171875 181.96875 99.285156 181.28125 99.972656 L 164.296875 116.941406 L 156.308594 108.960938 C 155.625 108.273438 155.625 107.164062 156.308594 106.476562 Z M 156.308594 106.476562 " fill-opacity="1" fill-rule="evenodd"/><path fill="#3e77f4" d="M 148.582031 144.007812 C 148.582031 142.550781 149.761719 141.371094 151.21875 141.371094 L 184.078125 141.371094 C 185.539062 141.371094 186.71875 142.550781 186.71875 144.007812 L 186.71875 176.84375 C 186.71875 178.300781 185.539062 179.480469 184.078125 179.480469 L 151.21875 179.480469 C 149.761719 179.480469 148.582031 178.300781 148.582031 176.84375 Z M 148.582031 144.007812 " fill-opacity="1" fill-rule="nonzero"/><path fill="#f2f2f2" d="M 156.308594 159.21875 C 156.996094 158.53125 158.113281 158.53125 158.800781 159.21875 L 164.296875 164.710938 L 178.792969 150.226562 C 179.480469 149.542969 180.59375 149.542969 181.28125 150.226562 C 181.96875 150.914062 181.96875 152.027344 181.28125 152.714844 L 164.296875 169.683594 L 156.308594 161.703125 C 155.625 161.019531 155.625 159.90625 156.308594 159.21875 Z M 156.308594 159.21875 " fill-opacity="1" fill-rule="evenodd"/><path fill="#253036" d="M 197.84375 38.679688 C 197.84375 37.222656 199.027344 36.039062 200.484375 36.039062 L 302.53125 36.039062 C 303.988281 36.039062 305.171875 37.222656 305.171875 38.679688 C 305.171875 40.132812 303.988281 41.316406 302.53125 41.316406 L 200.484375 41.316406 C 199.027344 41.316406 197.84375 40.132812 197.84375 38.679688 Z M 197.84375 38.679688 " fill-opacity="1" fill-rule="nonzero"/><path fill="#253036" d="M 197.84375 91.421875 C 197.84375 89.964844 199.027344 88.785156 200.484375 88.785156 L 302.53125 88.785156 C 303.988281 88.785156 305.171875 89.964844 305.171875 91.421875 C 305.171875 92.878906 303.988281 94.058594 302.53125 94.058594 L 200.484375 94.058594 C 199.027344 94.058594 197.84375 92.878906 197.84375 91.421875 Z M 197.84375 91.421875 " fill-opacity="1" fill-rule="nonzero"/><path fill="#253036" d="M 197.84375 144.164062 C 197.84375 142.707031 199.027344 141.527344 200.484375 141.527344 L 302.53125 141.527344 C 303.988281 141.527344 305.171875 142.707031 305.171875 144.164062 C 305.171875 145.621094 303.988281 146.800781 302.53125 146.800781 L 200.484375 146.800781 C 199.027344 146.800781 197.84375 145.621094 197.84375 144.164062 Z M 197.84375 144.164062 " fill-opacity="1" fill-rule="nonzero"/><path fill="#253036" d="M 197.84375 53.183594 C 197.84375 51.484375 199.222656 50.105469 200.925781 50.105469 L 272.179688 50.105469 C 273.882812 50.105469 275.261719 51.484375 275.261719 53.183594 C 275.261719 54.882812 273.882812 56.257812 272.179688 56.257812 L 200.925781 56.257812 C 199.222656 56.257812 197.84375 54.882812 197.84375 53.183594 Z M 197.84375 53.183594 " fill-opacity="1" fill-rule="nonzero"/><path fill="#253036" d="M 197.84375 105.925781 C 197.84375 104.226562 199.222656 102.847656 200.925781 102.847656 L 272.179688 102.847656 C 273.882812 102.847656 275.261719 104.226562 275.261719 105.925781 C 275.261719 107.625 273.882812 109 272.179688 109 L 200.925781 109 C 199.222656 109 197.84375 107.625 197.84375 105.925781 Z M 197.84375 105.925781 " fill-opacity="1" fill-rule="nonzero"/><path fill="#253036" d="M 197.84375 158.667969 C 197.84375 156.96875 199.222656 155.589844 200.925781 155.589844 L 272.179688 155.589844 C 273.882812 155.589844 275.261719 156.96875 275.261719 158.667969 C 275.261719 160.367188 273.882812 161.742188 272.179688 161.742188 L 200.925781 161.742188 C 199.222656 161.742188 197.84375 160.367188 197.84375 158.667969 Z M 197.84375 158.667969 " fill-opacity="1" fill-rule="nonzero"/><path fill="#759df5" d="M 137.144531 318.214844 L 204.042969 318.214844 L 204.042969 374.472656 L 137.144531 374.472656 Z M 137.144531 318.214844 " fill-opacity="1" fill-rule="nonzero"/><path fill="#f2f2f2" d="M 165.625 318.214844 L 176.222656 318.214844 L 176.222656 346.671875 L 170.925781 343.363281 L 165.625 346.671875 Z M 165.625 318.214844 " fill-opacity="1" fill-rule="nonzero"/><path fill="#3e77f4" d="M 223.253906 318.214844 L 204.042969 318.214844 L 204.042969 374.472656 L 223.253906 374.472656 Z M 223.253906 318.214844 " fill-opacity="1" fill-rule="nonzero"/><path fill="#f2f2f2" d="M 180.863281 367.523438 C 180.863281 366.609375 181.601562 365.867188 182.519531 365.867188 L 195.101562 365.867188 C 196.015625 365.867188 196.757812 366.609375 196.757812 367.523438 C 196.757812 368.4375 196.015625 369.179688 195.101562 369.179688 L 182.519531 369.179688 C 181.601562 369.179688 180.863281 368.4375 180.863281 367.523438 Z M 180.863281 367.523438 " fill-opacity="1" fill-rule="nonzero"/><path fill="#759df5" d="M 211.332031 318.214844 L 278.230469 318.214844 L 278.230469 374.472656 L 211.332031 374.472656 Z M 211.332031 318.214844 " fill-opacity="1" fill-rule="nonzero"/><path fill="#f2f2f2" d="M 239.8125 318.214844 L 250.410156 318.214844 L 250.410156 346.671875 L 245.113281 343.363281 L 239.8125 346.671875 Z M 239.8125 318.214844 " fill-opacity="1" fill-rule="nonzero"/><path fill="#3e77f4" d="M 297.441406 318.214844 L 278.230469 318.214844 L 278.230469 374.472656 L 297.441406 374.472656 Z M 297.441406 318.214844 " fill-opacity="1" fill-rule="nonzero"/><path fill="#f2f2f2" d="M 255.046875 367.523438 C 255.046875 366.609375 255.789062 365.867188 256.703125 365.867188 L 269.289062 365.867188 C 270.203125 365.867188 270.945312 366.609375 270.945312 367.523438 C 270.945312 368.4375 270.203125 369.179688 269.289062 369.179688 L 256.703125 369.179688 C 255.789062 369.179688 255.046875 368.4375 255.046875 367.523438 Z M 255.046875 367.523438 " fill-opacity="1" fill-rule="nonzero"/><path fill="#759df5" d="M 285.515625 318.214844 L 352.414062 318.214844 L 352.414062 374.472656 L 285.515625 374.472656 Z M 285.515625 318.214844 " fill-opacity="1" fill-rule="nonzero"/><path fill="#f2f2f2" d="M 314 318.214844 L 324.597656 318.214844 L 324.597656 346.671875 L 319.296875 343.363281 L 314 346.671875 Z M 314 318.214844 " fill-opacity="1" fill-rule="nonzero"/><g clip-path="url(#9389805679)"><path fill="#3e77f4" d="M 371.625 318.214844 L 352.417969 318.214844 L 352.417969 374.472656 L 371.625 374.472656 Z M 371.625 318.214844 " fill-opacity="1" fill-rule="nonzero"/></g><path fill="#f2f2f2" d="M 329.234375 367.523438 C 329.234375 366.609375 329.972656 365.867188 330.890625 365.867188 L 343.472656 365.867188 C 344.386719 365.867188 345.128906 366.609375 345.128906 367.523438 C 345.128906 368.4375 344.386719 369.179688 343.472656 369.179688 L 330.890625 369.179688 C 329.972656 369.179688 329.234375 368.4375 329.234375 367.523438 Z M 329.234375 367.523438 " fill-opacity="1" fill-rule="nonzero"/><path fill="#759df5" d="M 168.941406 261.953125 L 235.839844 261.953125 L 235.839844 318.214844 L 168.941406 318.214844 Z M 168.941406 261.953125 " fill-opacity="1" fill-rule="nonzero"/><path fill="#f2f2f2" d="M 197.421875 261.953125 L 208.019531 261.953125 L 208.019531 290.414062 L 202.722656 287.105469 L 197.421875 290.414062 Z M 197.421875 261.953125 " fill-opacity="1" fill-rule="nonzero"/><path fill="#3e77f4" d="M 255.046875 261.953125 L 235.839844 261.953125 L 235.839844 318.214844 L 255.046875 318.214844 Z M 255.046875 261.953125 " fill-opacity="1" fill-rule="nonzero"/><path fill="#f2f2f2" d="M 212.65625 311.265625 C 212.65625 310.351562 213.398438 309.609375 214.3125 309.609375 L 226.898438 309.609375 C 227.8125 309.609375 228.554688 310.351562 228.554688 311.265625 C 228.554688 312.179688 227.8125 312.917969 226.898438 312.917969 L 214.3125 312.917969 C 213.398438 312.917969 212.65625 312.179688 212.65625 311.265625 Z M 212.65625 311.265625 " fill-opacity="1" fill-rule="nonzero"/><path fill="#759df5" d="M 212.046875 205.695312 L 278.945312 205.695312 L 278.945312 261.953125 L 212.046875 261.953125 Z M 212.046875 205.695312 " fill-opacity="1" fill-rule="nonzero"/><path fill="#f2f2f2" d="M 240.527344 205.695312 L 251.128906 205.695312 L 251.128906 234.15625 L 245.828125 230.847656 L 240.527344 234.15625 Z M 240.527344 205.695312 " fill-opacity="1" fill-rule="nonzero"/><path fill="#3e77f4" d="M 298.15625 205.695312 L 278.945312 205.695312 L 278.945312 261.953125 L 298.15625 261.953125 Z M 298.15625 205.695312 " fill-opacity="1" fill-rule="nonzero"/><path fill="#f2f2f2" d="M 255.761719 255.003906 C 255.761719 254.09375 256.503906 253.351562 257.417969 253.351562 L 270.003906 253.351562 C 270.917969 253.351562 271.660156 254.09375 271.660156 255.003906 C 271.660156 255.917969 270.917969 256.660156 270.003906 256.660156 L 257.417969 256.660156 C 256.503906 256.660156 255.761719 255.917969 255.761719 255.003906 Z M 255.761719 255.003906 " fill-opacity="1" fill-rule="nonzero"/><path fill="#759df5" d="M 247.097656 261.953125 L 314 261.953125 L 314 318.214844 L 247.097656 318.214844 Z M 247.097656 261.953125 " fill-opacity="1" fill-rule="nonzero"/><path fill="#f2f2f2" d="M 275.582031 261.953125 L 286.179688 261.953125 L 286.179688 290.414062 L 280.878906 287.105469 L 275.582031 290.414062 Z M 275.582031 261.953125 " fill-opacity="1" fill-rule="nonzero"/><path fill="#3e77f4" d="M 333.207031 261.953125 L 314 261.953125 L 314 318.214844 L 333.207031 318.214844 Z M 333.207031 261.953125 " fill-opacity="1" fill-rule="nonzero"/><path fill="#f2f2f2" d="M 290.816406 311.265625 C 290.816406 310.351562 291.558594 309.609375 292.472656 309.609375 L 305.058594 309.609375 C 305.972656 309.609375 306.710938 310.351562 306.710938 311.265625 C 306.710938 312.179688 305.972656 312.917969 305.058594 312.917969 L 292.472656 312.917969 C 291.558594 312.917969 290.816406 312.179688 290.816406 311.265625 Z M 290.816406 311.265625 " fill-opacity="1" fill-rule="nonzero"/><path fill="#fcbfbc" d="M 54.035156 362.847656 C 56.371094 360.609375 56.582031 342.363281 56.550781 341.949219 L 73.144531 340.851562 C 73.171875 341.265625 72.347656 356.648438 78.308594 358.722656 C 73.742188 364.6875 58.386719 363.652344 54.035156 362.847656 Z M 54.035156 362.847656 " fill-opacity="1" fill-rule="nonzero"/><path fill="#759df5" d="M 71.007812 352.351562 C 67.984375 353.628906 69.152344 355.15625 66.519531 357.804688 C 61.523438 362.824219 58.363281 353.5625 54.960938 356.554688 C 52.835938 358.425781 53.34375 368.054688 54.199219 372.863281 C 62.417969 374.015625 78.183594 375.035156 88.894531 374.875 C 92.113281 374.828125 95.921875 374.917969 97.941406 372.417969 C 100.945312 368.695312 91.492188 363.257812 85.210938 360.5625 C 84.140625 359.800781 83.109375 359.023438 82.15625 358.296875 L 81.886719 358.089844 C 81.25 357.597656 80.628906 357.101562 80.027344 356.613281 C 79.105469 355.867188 78.222656 355.144531 77.378906 354.503906 C 75.003906 352.703125 72.910156 351.546875 71.007812 352.351562 Z M 71.007812 352.351562 " fill-opacity="1" fill-rule="nonzero"/><path fill="#253036" d="M 73.855469 352.859375 C 72.867188 352.472656 71.992188 352.414062 71.179688 352.757812 C 70.460938 353.058594 70.023438 353.367188 69.714844 353.679688 C 69.410156 353.992188 69.214844 354.332031 69.015625 354.753906 C 68.960938 354.867188 68.90625 354.980469 68.851562 355.105469 C 68.488281 355.90625 68.03125 356.910156 66.832031 358.113281 C 65.511719 359.441406 64.25 359.875 63.035156 359.742188 C 61.859375 359.613281 60.808594 358.957031 59.886719 358.296875 C 59.65625 358.136719 59.449219 357.980469 59.246094 357.832031 C 59.011719 357.660156 58.785156 357.488281 58.542969 357.320312 C 58.109375 357.015625 57.707031 356.765625 57.324219 356.597656 C 56.941406 356.433594 56.597656 356.359375 56.273438 356.394531 C 55.953125 356.425781 55.617188 356.5625 55.25 356.886719 C 55.066406 357.046875 54.789062 357.027344 54.628906 356.847656 C 54.46875 356.664062 54.484375 356.386719 54.667969 356.226562 C 55.152344 355.800781 55.65625 355.570312 56.183594 355.519531 C 56.703125 355.464844 57.203125 355.585938 57.671875 355.792969 C 58.140625 355.992188 58.601562 356.285156 59.046875 356.601562 C 59.28125 356.765625 59.539062 356.953125 59.789062 357.140625 C 60 357.292969 60.203125 357.445312 60.398438 357.582031 C 61.3125 358.238281 62.203125 358.765625 63.132812 358.871094 C 64.019531 358.96875 65.027344 358.679688 66.207031 357.492188 C 67.292969 356.40625 67.6875 355.535156 68.050781 354.742188 C 68.109375 354.621094 68.164062 354.496094 68.21875 354.375 C 68.4375 353.925781 68.679688 353.480469 69.085938 353.0625 C 69.496094 352.648438 70.042969 352.28125 70.835938 351.945312 C 71.925781 351.488281 73.050781 351.601562 74.175781 352.042969 C 75.292969 352.480469 76.449219 353.25 77.644531 354.152344 C 78.363281 354.699219 79.105469 355.300781 79.871094 355.921875 C 80.015625 356.039062 80.15625 356.152344 80.304688 356.273438 C 80.90625 356.757812 81.519531 357.253906 82.152344 357.738281 L 82.425781 357.949219 C 83.363281 358.664062 84.378906 359.429688 85.425781 360.175781 C 88.574219 361.53125 92.523438 363.574219 95.328125 365.757812 C 96.730469 366.851562 97.886719 368.011719 98.492188 369.171875 C 98.796875 369.753906 98.972656 370.359375 98.953125 370.964844 C 98.933594 371.578125 98.710938 372.160156 98.28125 372.695312 C 98.128906 372.882812 97.851562 372.914062 97.664062 372.761719 C 97.472656 372.605469 97.445312 372.332031 97.597656 372.140625 C 97.917969 371.746094 98.058594 371.34375 98.074219 370.9375 C 98.085938 370.519531 97.96875 370.070312 97.710938 369.578125 C 97.195312 368.585938 96.15625 367.519531 94.785156 366.453125 C 92.09375 364.351562 88.269531 362.363281 85.167969 361.023438 C 84.351562 361.21875 83.164062 361.582031 82.09375 362.070312 C 81.53125 362.328125 81.007812 362.617188 80.597656 362.925781 C 80.183594 363.238281 79.917969 363.546875 79.800781 363.828125 C 79.710938 364.054688 79.453125 364.164062 79.230469 364.070312 C 79.003906 363.980469 78.894531 363.722656 78.988281 363.5 C 79.1875 363 79.597656 362.578125 80.070312 362.222656 C 80.550781 361.863281 81.128906 361.546875 81.730469 361.273438 C 82.554688 360.894531 83.441406 360.589844 84.195312 360.371094 C 83.480469 359.851562 82.792969 359.332031 82.136719 358.835938 C 81.890625 358.980469 81.582031 359.121094 81.273438 359.257812 C 81.167969 359.304688 81.058594 359.351562 80.945312 359.402344 C 80.5625 359.570312 80.148438 359.753906 79.734375 359.957031 C 79.203125 360.222656 78.691406 360.519531 78.269531 360.855469 C 77.847656 361.191406 77.539062 361.554688 77.378906 361.945312 C 77.289062 362.171875 77.03125 362.28125 76.804688 362.1875 C 76.582031 362.097656 76.472656 361.839844 76.5625 361.617188 C 76.800781 361.035156 77.230469 360.558594 77.71875 360.167969 C 78.210938 359.773438 78.785156 359.449219 79.339844 359.171875 C 79.777344 358.957031 80.214844 358.761719 80.605469 358.59375 C 80.710938 358.546875 80.816406 358.5 80.914062 358.453125 C 81.085938 358.378906 81.238281 358.308594 81.371094 358.246094 C 80.882812 357.867188 80.402344 357.484375 79.9375 357.109375 C 79.882812 357.125 79.824219 357.140625 79.765625 357.15625 C 79.6875 357.183594 79.597656 357.207031 79.503906 357.234375 L 79.472656 357.242188 C 79.367188 357.273438 79.25 357.304688 79.128906 357.339844 C 78.644531 357.480469 78.050781 357.660156 77.457031 357.894531 C 76.863281 358.125 76.277344 358.402344 75.804688 358.730469 C 75.324219 359.058594 74.992188 359.414062 74.839844 359.789062 C 74.746094 360.015625 74.492188 360.125 74.265625 360.03125 C 74.042969 359.941406 73.933594 359.683594 74.023438 359.460938 C 74.265625 358.859375 74.753906 358.382812 75.304688 358.007812 C 75.859375 357.625 76.511719 357.320312 77.140625 357.074219 C 77.769531 356.828125 78.390625 356.636719 78.886719 356.496094 C 78.960938 356.472656 79.035156 356.453125 79.105469 356.433594 C 78.484375 355.929688 77.886719 355.449219 77.308594 355.003906 C 77.28125 355.011719 77.257812 355.023438 77.230469 355.03125 C 76.761719 355.210938 75.929688 355.53125 75.039062 355.96875 C 74.46875 356.25 73.898438 356.570312 73.417969 356.917969 C 72.929688 357.265625 72.574219 357.621094 72.394531 357.953125 C 72.277344 358.167969 72.011719 358.246094 71.796875 358.128906 C 71.585938 358.015625 71.503906 357.746094 71.621094 357.535156 C 71.894531 357.03125 72.375 356.585938 72.902344 356.203125 C 73.4375 355.816406 74.058594 355.472656 74.652344 355.179688 C 75.320312 354.851562 75.984375 354.574219 76.472656 354.382812 C 75.539062 353.710938 74.671875 353.179688 73.855469 352.859375 Z M 55.621094 366.695312 C 55.652344 366.453125 55.871094 366.285156 56.113281 366.316406 C 60.882812 366.917969 68.078125 367.652344 75.289062 368.050781 C 82.507812 368.449219 89.707031 368.511719 94.492188 367.789062 C 94.734375 367.753906 94.957031 367.917969 94.992188 368.160156 C 95.03125 368.398438 94.863281 368.625 94.625 368.660156 C 89.742188 369.394531 82.464844 369.328125 75.242188 368.925781 C 68.007812 368.527344 60.789062 367.792969 56.003906 367.1875 C 55.761719 367.15625 55.589844 366.9375 55.621094 366.695312 Z M 55.621094 366.695312 " fill-opacity="1" fill-rule="evenodd"/><path fill="#fcbfbc" d="M 4.769531 362.847656 C 7.105469 360.609375 7.316406 342.359375 7.285156 341.949219 L 23.878906 340.851562 C 23.90625 341.261719 23.082031 356.644531 29.042969 358.722656 C 24.476562 364.6875 9.121094 363.652344 4.769531 362.847656 Z M 4.769531 362.847656 " fill-opacity="1" fill-rule="nonzero"/><path fill="#759df5" d="M 21.742188 352.351562 C 18.71875 353.628906 19.886719 355.15625 17.253906 357.804688 C 12.257812 362.824219 9.097656 353.5625 5.691406 356.554688 C 3.570312 358.425781 4.078125 368.054688 4.933594 372.863281 C 13.152344 374.015625 28.917969 375.035156 39.628906 374.875 C 42.847656 374.828125 46.65625 374.917969 48.675781 372.417969 C 51.679688 368.695312 42.226562 363.257812 35.945312 360.5625 C 34.875 359.800781 33.84375 359.023438 32.890625 358.296875 L 32.621094 358.089844 C 31.984375 357.597656 31.363281 357.101562 30.761719 356.613281 C 29.839844 355.867188 28.957031 355.144531 28.113281 354.503906 C 25.738281 352.703125 23.644531 351.546875 21.742188 352.351562 Z M 21.742188 352.351562 " fill-opacity="1" fill-rule="nonzero"/><path fill="#253036" d="M 24.589844 352.859375 C 23.601562 352.472656 22.726562 352.414062 21.914062 352.757812 C 21.199219 353.058594 20.757812 353.367188 20.453125 353.679688 C 20.144531 353.992188 19.949219 354.332031 19.75 354.753906 C 19.695312 354.867188 19.644531 354.980469 19.589844 355.105469 C 19.222656 355.90625 18.765625 356.910156 17.566406 358.113281 C 16.246094 359.441406 14.984375 359.875 13.769531 359.742188 C 12.59375 359.613281 11.542969 358.957031 10.621094 358.296875 C 10.394531 358.136719 10.183594 357.980469 9.984375 357.832031 C 9.746094 357.660156 9.519531 357.488281 9.277344 357.320312 C 8.84375 357.015625 8.445312 356.765625 8.058594 356.597656 C 7.675781 356.433594 7.332031 356.359375 7.007812 356.394531 C 6.691406 356.425781 6.351562 356.5625 5.984375 356.886719 C 5.800781 357.046875 5.523438 357.027344 5.363281 356.847656 C 5.203125 356.664062 5.21875 356.386719 5.402344 356.226562 C 5.886719 355.800781 6.390625 355.570312 6.917969 355.519531 C 7.4375 355.464844 7.9375 355.585938 8.40625 355.792969 C 8.875 355.992188 9.335938 356.285156 9.78125 356.601562 C 10.015625 356.765625 10.273438 356.953125 10.527344 357.140625 C 10.734375 357.292969 10.941406 357.445312 11.132812 357.582031 C 12.050781 358.238281 12.9375 358.765625 13.867188 358.871094 C 14.753906 358.96875 15.765625 358.679688 16.941406 357.492188 C 18.027344 356.40625 18.425781 355.535156 18.785156 354.742188 C 18.84375 354.621094 18.898438 354.496094 18.957031 354.375 C 19.171875 353.925781 19.414062 353.480469 19.824219 353.0625 C 20.230469 352.648438 20.777344 352.28125 21.570312 351.945312 C 22.660156 351.488281 23.785156 351.601562 24.910156 352.042969 C 26.027344 352.480469 27.183594 353.25 28.378906 354.152344 C 29.097656 354.699219 29.839844 355.300781 30.605469 355.921875 C 30.75 356.039062 30.894531 356.152344 31.039062 356.273438 C 31.640625 356.757812 32.257812 357.253906 32.890625 357.738281 L 33.160156 357.949219 C 34.097656 358.664062 35.113281 359.429688 36.160156 360.175781 C 39.3125 361.53125 43.261719 363.574219 46.0625 365.757812 C 47.464844 366.851562 48.621094 368.011719 49.226562 369.171875 C 49.53125 369.753906 49.707031 370.359375 49.6875 370.964844 C 49.667969 371.578125 49.449219 372.160156 49.015625 372.695312 C 48.863281 372.882812 48.585938 372.914062 48.398438 372.761719 C 48.210938 372.605469 48.179688 372.332031 48.332031 372.140625 C 48.652344 371.746094 48.796875 371.34375 48.808594 370.9375 C 48.824219 370.519531 48.703125 370.070312 48.445312 369.578125 C 47.929688 368.585938 46.890625 367.519531 45.523438 366.453125 C 42.828125 364.351562 39.007812 362.363281 35.90625 361.023438 C 35.089844 361.21875 33.898438 361.582031 32.828125 362.070312 C 32.265625 362.328125 31.746094 362.617188 31.335938 362.925781 C 30.917969 363.238281 30.652344 363.546875 30.539062 363.828125 C 30.445312 364.054688 30.191406 364.164062 29.964844 364.070312 C 29.738281 363.980469 29.632812 363.722656 29.722656 363.5 C 29.925781 363 30.332031 362.578125 30.804688 362.222656 C 31.285156 361.863281 31.863281 361.546875 32.464844 361.273438 C 33.289062 360.894531 34.175781 360.589844 34.929688 360.371094 C 34.214844 359.851562 33.527344 359.332031 32.875 358.835938 C 32.625 358.980469 32.320312 359.121094 32.007812 359.257812 C 31.902344 359.304688 31.792969 359.351562 31.683594 359.402344 C 31.296875 359.570312 30.882812 359.753906 30.46875 359.957031 C 29.9375 360.222656 29.425781 360.519531 29.003906 360.855469 C 28.582031 361.191406 28.273438 361.554688 28.113281 361.945312 C 28.023438 362.171875 27.765625 362.28125 27.542969 362.1875 C 27.316406 362.097656 27.207031 361.839844 27.300781 361.617188 C 27.535156 361.035156 27.964844 360.558594 28.453125 360.167969 C 28.945312 359.773438 29.519531 359.449219 30.078125 359.171875 C 30.511719 358.957031 30.949219 358.761719 31.339844 358.59375 C 31.445312 358.546875 31.550781 358.5 31.648438 358.453125 C 31.820312 358.378906 31.972656 358.308594 32.105469 358.246094 C 31.617188 357.867188 31.140625 357.484375 30.671875 357.109375 C 30.617188 357.125 30.558594 357.140625 30.5 357.15625 C 30.421875 357.183594 30.332031 357.207031 30.238281 357.234375 L 30.207031 357.242188 C 30.101562 357.273438 29.988281 357.304688 29.863281 357.339844 C 29.378906 357.480469 28.785156 357.660156 28.191406 357.894531 C 27.597656 358.125 27.015625 358.402344 26.539062 358.730469 C 26.058594 359.058594 25.726562 359.414062 25.574219 359.789062 C 25.484375 360.015625 25.226562 360.125 25 360.03125 C 24.777344 359.941406 24.667969 359.683594 24.757812 359.460938 C 25.003906 358.859375 25.492188 358.382812 26.039062 358.007812 C 26.59375 357.625 27.246094 357.320312 27.875 357.074219 C 28.503906 356.828125 29.125 356.636719 29.621094 356.496094 C 29.695312 356.472656 29.769531 356.453125 29.839844 356.433594 C 29.21875 355.929688 28.621094 355.449219 28.042969 355.003906 C 28.019531 355.011719 27.992188 355.023438 27.964844 355.03125 C 27.496094 355.210938 26.664062 355.53125 25.777344 355.96875 C 25.203125 356.25 24.632812 356.570312 24.152344 356.917969 C 23.664062 357.265625 23.308594 357.621094 23.128906 357.953125 C 23.015625 358.167969 22.746094 358.246094 22.535156 358.128906 C 22.320312 358.015625 22.238281 357.746094 22.355469 357.535156 C 22.628906 357.03125 23.109375 356.585938 23.636719 356.203125 C 24.171875 355.816406 24.792969 355.472656 25.386719 355.179688 C 26.054688 354.851562 26.722656 354.574219 27.210938 354.382812 C 26.273438 353.710938 25.40625 353.179688 24.589844 352.859375 Z M 6.355469 366.695312 C 6.386719 366.453125 6.605469 366.285156 6.847656 366.316406 C 11.617188 366.917969 18.816406 367.652344 26.023438 368.050781 C 33.246094 368.449219 40.441406 368.511719 45.226562 367.789062 C 45.46875 367.753906 45.691406 367.917969 45.726562 368.160156 C 45.765625 368.398438 45.597656 368.625 45.359375 368.660156 C 40.476562 369.394531 33.199219 369.328125 25.976562 368.925781 C 18.742188 368.527344 11.523438 367.792969 6.738281 367.1875 C 6.496094 367.15625 6.324219 366.9375 6.355469 366.695312 Z M 6.355469 366.695312 " fill-opacity="1" fill-rule="evenodd"/><path fill="#253036" d="M 13.003906 225.035156 C 11.242188 213.433594 16.667969 199.691406 19.601562 194.269531 C 29.71875 198.515625 55.316406 204.464844 73.265625 194.269531 C 76.929688 218.003906 80.84375 268.441406 80.84375 276.460938 C 80.84375 296.238281 77.765625 310.742188 73.367188 346.34375 C 66.328125 349.417969 60.316406 348.6875 55.332031 346.34375 C 57.089844 304.148438 54.453125 297.554688 58.410156 279.097656 C 56.941406 272.039062 50.476562 245.644531 46.085938 227.507812 L 36.417969 278.21875 L 24.542969 348.101562 C 16.449219 350.5625 9.734375 348.394531 6.507812 346.34375 C 8.707031 301.074219 4.746094 302.832031 10.867188 276.460938 C 12.644531 253.121094 14 231.613281 13.003906 225.035156 Z M 13.003906 225.035156 " fill-opacity="1" fill-rule="nonzero"/><path fill="#f2f2f2" d="M 55.546875 214.621094 C 55.714844 214.796875 55.710938 215.074219 55.535156 215.242188 L 47.378906 223.058594 L 46.515625 227.589844 C 46.472656 227.828125 46.242188 227.984375 46 227.9375 C 45.761719 227.894531 45.605469 227.664062 45.652344 227.425781 L 46.570312 222.617188 L 54.925781 214.609375 C 55.101562 214.441406 55.378906 214.445312 55.546875 214.621094 Z M 55.546875 214.621094 " fill-opacity="1" fill-rule="evenodd"/><path fill="#fcbfbc" d="M 50.902344 99.613281 C 57.730469 98.136719 59.804688 86.964844 59.988281 81.558594 C 60.53125 83.957031 64.804688 95.851562 73.617188 97.402344 C 73.441406 98.75 73.273438 101.25 73.539062 103.25 C 73.730469 104.699219 73.875 106.332031 72.980469 107.488281 C 67.34375 114.792969 56.144531 105.585938 50.902344 99.613281 Z M 50.902344 99.613281 " fill-opacity="1" fill-rule="nonzero"/><path fill="#fcbfbc" d="M 64.289062 73.503906 C 74.957031 74.011719 79.601562 66.988281 80.695312 63.136719 C 82.953125 64.175781 87.40625 67.484375 87.160156 72.417969 C 86.855469 78.585938 86.621094 97.03125 76.117188 97.554688 C 75.246094 97.597656 74.414062 97.542969 73.617188 97.402344 C 64.804688 95.851562 60.53125 83.957031 59.984375 81.558594 C 55.125 78.269531 55.519531 72.621094 57.796875 70.964844 C 59.621094 69.640625 62.886719 72.105469 64.289062 73.503906 Z M 64.289062 73.503906 " fill-opacity="1" fill-rule="nonzero"/><path fill="#253036" d="M 75.628906 89.953125 C 75.414062 90.0625 75.328125 90.328125 75.4375 90.542969 C 76.015625 91.671875 77.101562 91.980469 78.015625 91.949219 C 78.476562 91.933594 78.914062 91.832031 79.269531 91.695312 C 79.449219 91.625 79.613281 91.546875 79.75 91.457031 C 79.882812 91.371094 80.019531 91.257812 80.113281 91.121094 C 80.253906 90.921875 80.199219 90.648438 80 90.511719 C 79.800781 90.371094 79.527344 90.425781 79.390625 90.625 C 79.390625 90.625 79.382812 90.632812 79.363281 90.652344 C 79.34375 90.667969 79.3125 90.691406 79.273438 90.714844 C 79.195312 90.765625 79.085938 90.824219 78.953125 90.875 C 78.683594 90.976562 78.34375 91.058594 77.988281 91.070312 C 77.273438 91.09375 76.589844 90.859375 76.222656 90.144531 C 76.109375 89.925781 75.84375 89.839844 75.628906 89.953125 Z M 75.628906 89.953125 " fill-opacity="1" fill-rule="evenodd"/><path fill="#253036" d="M 60.578125 75.316406 C 60.074219 74.660156 59.4375 74.167969 59.019531 73.925781 L 59.460938 73.164062 C 59.964844 73.457031 60.691406 74.023438 61.277344 74.78125 C 61.859375 75.542969 62.328125 76.542969 62.222656 77.683594 L 61.347656 77.605469 C 61.421875 76.757812 61.082031 75.976562 60.578125 75.316406 Z M 64.074219 89.558594 C 66.285156 92.988281 69.46875 96.222656 73.695312 96.96875 L 73.542969 97.835938 C 68.957031 97.027344 65.597656 93.539062 63.332031 90.035156 C 61.066406 86.523438 59.839844 82.902344 59.558594 81.65625 L 60.417969 81.460938 C 60.679688 82.613281 61.863281 86.136719 64.074219 89.558594 Z M 64.074219 89.558594 " fill-opacity="1" fill-rule="evenodd"/><path fill="#253036" d="M 64.289062 73.503906 C 74.957031 74.011719 79.601562 66.988281 80.699219 63.136719 C 82.953125 64.175781 87.40625 67.484375 87.164062 72.417969 C 86.855469 78.585938 86.625 97.03125 76.117188 97.554688 C 75.246094 97.597656 74.414062 97.542969 73.617188 97.402344 C 73.4375 98.804688 73.261719 101.449219 73.570312 103.484375 C 76.882812 109 80.289062 115.988281 81.722656 119.109375 C 82.375 120.53125 82.714844 121.574219 83.480469 124.824219 L 91.316406 116.785156 C 94.660156 112.136719 92.800781 107.292969 90.246094 102.816406 C 87.617188 98.195312 91.148438 96.066406 93.351562 91.710938 C 95.554688 87.355469 93.035156 83.09375 91.371094 79.804688 C 89.707031 76.519531 90.933594 73.015625 91.605469 64.550781 C 92.140625 57.78125 82.199219 53.152344 77.164062 51.683594 C 71.410156 50.15625 58.757812 49.84375 54.195312 60.816406 C 50.582031 69.820312 53.757812 71.1875 46.316406 72.339844 C 37.179688 73.75 44.703125 82.5 38.289062 85.855469 C 34.519531 88.058594 29.492188 96.960938 36.417969 105.046875 L 50.902344 99.613281 C 57.730469 98.136719 59.804688 86.964844 59.988281 81.558594 C 55.128906 78.269531 55.519531 72.621094 57.796875 70.964844 C 59.621094 69.640625 62.886719 72.105469 64.289062 73.503906 Z M 64.289062 73.503906 " fill-opacity="1" fill-rule="nonzero"/><path fill="#253036" d="M 72.148438 74.339844 C 71.292969 75.28125 70.621094 76.679688 70.359375 78.328125 C 70.097656 79.976562 70.304688 81.515625 70.828125 82.671875 C 71.355469 83.832031 72.167969 84.554688 73.109375 84.703125 C 74.046875 84.851562 75.046875 84.417969 75.902344 83.476562 C 76.757812 82.539062 77.429688 81.136719 77.691406 79.488281 C 77.953125 77.84375 77.746094 76.300781 77.222656 75.144531 C 76.699219 73.984375 75.882812 73.261719 74.945312 73.113281 C 74.003906 72.964844 73.007812 73.402344 72.148438 74.339844 Z M 71.5 73.75 C 72.484375 72.671875 73.757812 72.035156 75.082031 72.246094 C 76.40625 72.457031 77.421875 73.453125 78.023438 74.78125 C 78.558594 75.960938 78.789062 77.441406 78.640625 79.007812 C 78.90625 78.972656 79.207031 78.957031 79.503906 78.976562 C 79.804688 78.992188 80.140625 79.050781 80.449219 79.191406 C 80.742188 77.855469 81.320312 76.691406 82.0625 75.851562 C 82.902344 74.90625 83.996094 74.328125 85.148438 74.511719 C 86.300781 74.691406 87.164062 75.582031 87.667969 76.738281 C 88.171875 77.90625 88.347656 79.40625 88.101562 80.96875 C 87.855469 82.53125 87.222656 83.902344 86.382812 84.855469 C 85.542969 85.800781 84.449219 86.378906 83.296875 86.195312 C 82.167969 86.019531 81.3125 85.160156 80.804688 84.03125 C 80.320312 82.949219 80.121094 81.570312 80.289062 80.117188 C 80.113281 79.96875 79.828125 79.875 79.449219 79.851562 C 79.121094 79.832031 78.78125 79.867188 78.511719 79.921875 C 78.195312 81.589844 77.484375 83.046875 76.554688 84.066406 C 75.570312 85.144531 74.296875 85.78125 72.96875 85.570312 C 71.644531 85.359375 70.628906 84.363281 70.027344 83.035156 C 69.421875 81.703125 69.207031 79.984375 69.492188 78.191406 C 69.773438 76.398438 70.511719 74.832031 71.5 73.75 Z M 82.722656 76.433594 C 82.007812 77.242188 81.4375 78.453125 81.210938 79.878906 C 81.203125 79.929688 81.195312 79.980469 81.1875 80.035156 C 80.996094 81.425781 81.175781 82.714844 81.609375 83.671875 C 82.039062 84.636719 82.695312 85.210938 83.433594 85.328125 C 84.183594 85.449219 85.003906 85.085938 85.722656 84.273438 C 86.4375 83.464844 87.007812 82.253906 87.234375 80.832031 C 87.457031 79.40625 87.289062 78.082031 86.859375 77.089844 C 86.429688 76.09375 85.761719 75.5 85.011719 75.378906 C 84.257812 75.261719 83.441406 75.621094 82.722656 76.433594 Z M 82.722656 76.433594 " fill-opacity="1" fill-rule="evenodd"/><path fill="#253036" d="M 76.394531 80.339844 C 76.265625 81.15625 75.71875 81.746094 75.175781 81.660156 C 74.632812 81.574219 74.296875 80.84375 74.425781 80.027344 C 74.554688 79.214844 75.097656 78.625 75.640625 78.710938 C 76.1875 78.796875 76.523438 79.527344 76.394531 80.339844 Z M 76.394531 80.339844 " fill-opacity="1" fill-rule="nonzero"/><path fill="#253036" d="M 85.199219 82.070312 C 85.070312 82.886719 84.523438 83.476562 83.980469 83.390625 C 83.4375 83.304688 83.101562 82.574219 83.230469 81.757812 C 83.359375 80.945312 83.90625 80.351562 84.449219 80.441406 C 84.992188 80.527344 85.328125 81.253906 85.199219 82.070312 Z M 85.199219 82.070312 " fill-opacity="1" fill-rule="nonzero"/><path fill="#253036" d="M 70.601562 75.785156 L 64.167969 73.925781 L 64.414062 73.082031 L 70.84375 74.9375 Z M 70.601562 75.785156 " fill-opacity="1" fill-rule="evenodd"/><path fill="#3e77f4" d="M 51.8125 99.332031 C 68.085938 115.15625 72.386719 107.683594 73.707031 104.167969 C 84.261719 121.746094 88.449219 132.453125 78.105469 142.40625 C 72.472656 168.425781 76.929688 193.097656 78.105469 198.664062 C 70.011719 216.597656 31.183594 204.230469 16.523438 195.585938 C 18.722656 181.523438 29.128906 176.25 26.050781 140.648438 C 23.941406 131.9375 23.195312 124.082031 25.320312 115.59375 C 27.519531 106.804688 37.296875 102.410156 51.8125 99.332031 Z M 51.8125 99.332031 " fill-opacity="1" fill-rule="nonzero"/><path fill="#253036" d="M 73.480469 103.789062 C 73.6875 103.664062 73.957031 103.730469 74.082031 103.941406 C 79.355469 112.726562 83.085938 119.859375 84.175781 126.070312 C 84.722656 129.1875 84.605469 132.082031 83.683594 134.84375 C 82.769531 137.566406 81.078125 140.132812 78.503906 142.628906 C 72.9375 168.511719 77.367188 193.035156 78.535156 198.574219 C 78.585938 198.8125 78.433594 199.042969 78.195312 199.09375 C 77.957031 199.144531 77.722656 198.992188 77.671875 198.753906 C 76.496094 193.164062 72.023438 168.421875 77.675781 142.3125 L 77.703125 142.183594 L 77.796875 142.089844 C 80.34375 139.640625 81.976562 137.160156 82.847656 134.5625 C 83.71875 131.96875 83.835938 129.222656 83.308594 126.222656 C 82.25 120.195312 78.609375 113.191406 73.328125 104.390625 C 73.203125 104.183594 73.269531 103.914062 73.480469 103.789062 Z M 73.480469 103.789062 " fill-opacity="1" fill-rule="evenodd"/><path fill="#253036" d="M 77.664062 126.144531 L 79.863281 123.945312 C 81.894531 126.859375 85.742188 132.363281 86.972656 134.023438 L 85.582031 135.371094 Z M 77.664062 126.144531 " fill-opacity="1" fill-rule="nonzero"/><path fill="#fcbfbc" d="M 99.21875 158.667969 C 96.753906 160.074219 82.390625 161.597656 75.519531 162.183594 C 75.625 160.171875 75.777344 158.117188 75.984375 156.03125 L 97.898438 155.589844 C 96.722656 154.859375 94.464844 153.128906 94.816406 152.074219 C 95.171875 151.019531 97.898438 152.808594 99.21875 153.832031 C 97.75 151.925781 95.171875 148.03125 96.578125 147.679688 C 97.984375 147.328125 100.390625 150.464844 101.417969 152.074219 C 100.390625 150.167969 98.601562 146.359375 99.65625 146.359375 C 100.839844 146.359375 102.496094 149.542969 103.035156 150.832031 C 102.851562 150.265625 102.5625 149.121094 102.296875 147.238281 C 101.855469 144.164062 104.933594 147.238281 106.253906 150.316406 C 107.574219 153.394531 102.296875 156.910156 99.21875 158.667969 Z M 99.21875 158.667969 " fill-opacity="1" fill-rule="nonzero"/><path fill="#fcbfbc" d="M 77.664062 148.996094 C 49.074219 158.667969 43.355469 164.820312 37.636719 163.941406 C 34.472656 163.457031 32.210938 156.335938 31.277344 151.636719 L 42.914062 147.679688 C 57.429688 141.527344 61.828125 143.285156 78.984375 140.207031 C 79.714844 138.742188 81.621094 135.722656 83.382812 135.371094 C 85.140625 135.019531 89.101562 132.882812 90.417969 133.613281 C 97.898438 137.128906 88.574219 148.996094 77.664062 148.996094 Z M 77.664062 148.996094 " fill-opacity="1" fill-rule="nonzero"/><path fill="#253036" d="M 88.660156 164.382812 L 71.507812 156.03125 L 114.613281 116.035156 L 125.167969 135.8125 Z M 88.660156 164.382812 " fill-opacity="1" fill-rule="nonzero"/><path fill="#fcbfbc" d="M 106.253906 150.316406 C 107.574219 153.394531 102.296875 156.910156 99.21875 158.667969 L 97.898438 155.589844 C 96.722656 154.859375 94.464844 153.128906 94.816406 152.074219 C 95.171875 151.019531 97.898438 152.808594 99.21875 153.832031 C 97.75 151.925781 95.171875 148.03125 96.578125 147.679688 C 97.984375 147.328125 100.390625 150.464844 101.417969 152.074219 C 100.390625 150.167969 98.601562 146.359375 99.65625 146.359375 C 100.839844 146.359375 102.496094 149.542969 103.035156 150.832031 C 102.851562 150.265625 102.5625 149.121094 102.296875 147.238281 C 101.855469 144.164062 104.933594 147.238281 106.253906 150.316406 Z M 106.253906 150.316406 " fill-opacity="1" fill-rule="nonzero"/><path fill="#253036" d="M 39.605469 121.375 C 39.8125 121.246094 40.085938 121.3125 40.210938 121.515625 C 44.300781 128.160156 47.394531 136.558594 49.164062 144.507812 L 49.222656 144.785156 L 48.996094 144.953125 C 46.832031 146.578125 42.871094 148.390625 39.007812 149.828125 C 35.144531 151.265625 31.285156 152.359375 29.3125 152.511719 L 28.960938 152.539062 L 28.859375 152.203125 C 27.566406 148.011719 26.410156 144.082031 25.515625 140.308594 C 25.460938 140.074219 25.605469 139.835938 25.84375 139.78125 C 26.078125 139.722656 26.316406 139.871094 26.371094 140.105469 C 27.234375 143.75 28.347656 147.539062 29.59375 151.601562 C 31.53125 151.367188 35.070312 150.351562 38.699219 149.003906 C 42.414062 147.621094 46.136719 145.917969 48.242188 144.417969 C 46.480469 136.625 43.441406 128.441406 39.460938 121.976562 C 39.335938 121.769531 39.398438 121.5 39.605469 121.375 Z M 39.605469 121.375 " fill-opacity="1" fill-rule="evenodd"/></svg>