<svg xmlns="http://www.w3.org/2000/svg" xmlns:xlink="http://www.w3.org/1999/xlink" width="500" zoomAndPan="magnify" viewBox="0 0 375 374.999991" height="500" preserveAspectRatio="xMidYMid meet" version="1.0"><rect x="-37.5" width="450" fill="#ffffff" y="-37.499999" height="449.999989" fill-opacity="1"/><rect x="-37.5" width="450" fill="#ffffff" y="-37.499999" height="449.999989" fill-opacity="1"/><path fill="#000000" d="M 187.5 133.804688 C 185.742188 133.804688 183.988281 133.890625 182.238281 134.0625 C 180.488281 134.238281 178.75 134.496094 177.023438 134.835938 C 175.300781 135.179688 173.597656 135.609375 171.914062 136.117188 C 170.230469 136.628906 168.578125 137.222656 166.953125 137.894531 C 165.328125 138.566406 163.742188 139.316406 162.191406 140.148438 C 160.636719 140.976562 159.132812 141.878906 157.671875 142.855469 C 156.207031 143.832031 154.796875 144.878906 153.4375 145.996094 C 152.078125 147.113281 150.777344 148.292969 149.535156 149.535156 C 148.289062 150.777344 147.109375 152.082031 145.996094 153.441406 C 144.878906 154.800781 143.835938 156.210938 142.855469 157.671875 C 141.878906 159.132812 140.976562 160.640625 140.148438 162.191406 C 139.320312 163.742188 138.570312 165.332031 137.894531 166.957031 C 137.222656 168.582031 136.632812 170.234375 136.121094 171.917969 C 135.609375 173.601562 135.183594 175.304688 134.839844 177.027344 C 134.5 178.753906 134.242188 180.492188 134.070312 182.242188 C 133.898438 183.992188 133.808594 185.746094 133.8125 187.503906 C 133.8125 189.261719 133.898438 191.015625 134.070312 192.765625 C 134.242188 194.515625 134.5 196.253906 134.84375 197.980469 C 135.1875 199.703125 135.613281 201.40625 136.125 203.089844 C 136.632812 204.773438 137.226562 206.425781 137.898438 208.050781 C 138.570312 209.675781 139.324219 211.265625 140.152344 212.816406 C 140.980469 214.367188 141.882812 215.871094 142.863281 217.335938 C 143.839844 218.796875 144.886719 220.207031 146 221.566406 C 147.117188 222.925781 148.296875 224.226562 149.539062 225.46875 C 150.78125 226.714844 152.085938 227.894531 153.445312 229.007812 C 154.804688 230.125 156.214844 231.171875 157.675781 232.148438 C 159.140625 233.125 160.644531 234.027344 162.195312 234.855469 C 163.746094 235.683594 165.335938 236.4375 166.960938 237.109375 C 168.585938 237.78125 170.238281 238.375 171.921875 238.882812 C 173.605469 239.394531 175.308594 239.820312 177.03125 240.164062 C 178.757812 240.507812 180.496094 240.765625 182.246094 240.9375 C 183.996094 241.109375 185.75 241.195312 187.507812 241.195312 C 189.265625 241.195312 191.019531 241.109375 192.769531 240.9375 C 194.519531 240.765625 196.257812 240.507812 197.984375 240.164062 C 199.707031 239.820312 201.410156 239.394531 203.09375 238.882812 C 204.777344 238.371094 206.429688 237.78125 208.054688 237.105469 C 209.679688 236.433594 211.269531 235.683594 212.820312 234.855469 C 214.371094 234.027344 215.875 233.121094 217.339844 232.144531 C 218.800781 231.167969 220.210938 230.121094 221.570312 229.007812 C 222.929688 227.890625 224.230469 226.710938 225.476562 225.46875 C 226.71875 224.222656 227.898438 222.921875 229.011719 221.5625 C 230.128906 220.203125 231.175781 218.792969 232.152344 217.332031 C 233.128906 215.867188 234.03125 214.363281 234.859375 212.8125 C 235.691406 211.261719 236.441406 209.671875 237.113281 208.046875 C 237.785156 206.421875 238.378906 204.769531 238.890625 203.085938 C 239.398438 201.402344 239.828125 199.699219 240.167969 197.976562 C 240.511719 196.25 240.769531 194.511719 240.941406 192.761719 C 241.113281 191.011719 241.203125 189.257812 241.199219 187.5 C 241.199219 185.742188 241.109375 183.988281 240.9375 182.238281 C 240.761719 180.488281 240.503906 178.753906 240.160156 177.027344 C 239.8125 175.304688 239.386719 173.601562 238.875 171.917969 C 238.363281 170.238281 237.769531 168.585938 237.097656 166.960938 C 236.421875 165.335938 235.671875 163.75 234.839844 162.199219 C 234.011719 160.648438 233.109375 159.144531 232.132812 157.683594 C 231.152344 156.21875 230.105469 154.808594 228.992188 153.453125 C 227.875 152.09375 226.695312 150.792969 225.453125 149.546875 C 224.210938 148.304688 222.910156 147.125 221.550781 146.011719 C 220.191406 144.894531 218.78125 143.847656 217.320312 142.871094 C 215.859375 141.894531 214.351562 140.992188 212.800781 140.160156 C 211.25 139.332031 209.664062 138.582031 208.039062 137.90625 C 206.417969 137.234375 204.761719 136.640625 203.082031 136.128906 C 201.398438 135.617188 199.695312 135.191406 197.972656 134.847656 C 196.246094 134.5 194.511719 134.242188 192.761719 134.070312 C 191.011719 133.894531 189.257812 133.804688 187.5 133.804688 Z M 187.5 229.476562 C 186.125 229.476562 184.753906 229.410156 183.386719 229.273438 C 182.019531 229.140625 180.660156 228.9375 179.3125 228.667969 C 177.960938 228.402344 176.632812 228.066406 175.316406 227.667969 C 174 227.269531 172.707031 226.804688 171.4375 226.277344 C 170.167969 225.753906 168.925781 225.164062 167.714844 224.515625 C 166.5 223.871094 165.324219 223.164062 164.179688 222.398438 C 163.039062 221.636719 161.933594 220.816406 160.871094 219.945312 C 159.808594 219.074219 158.792969 218.152344 157.820312 217.179688 C 156.847656 216.207031 155.925781 215.1875 155.054688 214.125 C 154.183594 213.0625 153.363281 211.960938 152.601562 210.816406 C 151.835938 209.675781 151.132812 208.496094 150.484375 207.285156 C 149.835938 206.070312 149.25 204.828125 148.722656 203.558594 C 148.195312 202.289062 147.734375 200.996094 147.335938 199.679688 C 146.9375 198.367188 146.601562 197.035156 146.335938 195.683594 C 146.066406 194.335938 145.867188 192.980469 145.730469 191.609375 C 145.597656 190.242188 145.527344 188.871094 145.527344 187.496094 C 145.53125 186.121094 145.597656 184.75 145.730469 183.382812 C 145.867188 182.011719 146.066406 180.65625 146.335938 179.308594 C 146.605469 177.957031 146.9375 176.625 147.335938 175.3125 C 147.738281 173.996094 148.199219 172.703125 148.726562 171.433594 C 149.253906 170.164062 149.839844 168.921875 150.488281 167.710938 C 151.136719 166.496094 151.839844 165.320312 152.605469 164.175781 C 153.371094 163.035156 154.1875 161.929688 155.058594 160.867188 C 155.933594 159.804688 156.855469 158.789062 157.824219 157.816406 C 158.796875 156.84375 159.816406 155.921875 160.878906 155.050781 C 161.941406 154.179688 163.042969 153.359375 164.1875 152.597656 C 165.332031 151.832031 166.507812 151.125 167.71875 150.480469 C 168.933594 149.832031 170.175781 149.242188 171.445312 148.71875 C 172.714844 148.191406 174.007812 147.730469 175.324219 147.332031 C 176.636719 146.929688 177.96875 146.597656 179.320312 146.328125 C 180.667969 146.0625 182.023438 145.859375 183.394531 145.726562 C 184.761719 145.589844 186.132812 145.523438 187.507812 145.523438 C 188.882812 145.523438 190.253906 145.589844 191.621094 145.726562 C 192.992188 145.859375 194.347656 146.0625 195.695312 146.332031 C 197.046875 146.597656 198.378906 146.933594 199.691406 147.332031 C 201.007812 147.730469 202.300781 148.191406 203.570312 148.71875 C 204.839844 149.246094 206.082031 149.832031 207.292969 150.480469 C 208.507812 151.128906 209.683594 151.835938 210.828125 152.597656 C 211.972656 153.363281 213.074219 154.179688 214.136719 155.050781 C 215.199219 155.925781 216.214844 156.847656 217.1875 157.820312 C 218.160156 158.789062 219.082031 159.808594 219.953125 160.871094 C 220.828125 161.933594 221.644531 163.035156 222.410156 164.179688 C 223.171875 165.324219 223.878906 166.5 224.527344 167.714844 C 225.175781 168.925781 225.761719 170.167969 226.289062 171.4375 C 226.8125 172.707031 227.277344 174 227.675781 175.316406 C 228.074219 176.628906 228.40625 177.960938 228.675781 179.3125 C 228.945312 180.660156 229.144531 182.015625 229.28125 183.386719 C 229.414062 184.753906 229.480469 186.125 229.480469 187.5 C 229.480469 188.875 229.414062 190.246094 229.277344 191.613281 C 229.140625 192.980469 228.9375 194.339844 228.667969 195.6875 C 228.398438 197.035156 228.0625 198.367188 227.664062 199.679688 C 227.265625 200.996094 226.800781 202.289062 226.273438 203.558594 C 225.746094 204.828125 225.160156 206.066406 224.511719 207.28125 C 223.863281 208.492188 223.15625 209.667969 222.394531 210.8125 C 221.628906 211.953125 220.8125 213.058594 219.9375 214.121094 C 219.066406 215.179688 218.144531 216.199219 217.171875 217.171875 C 216.199219 218.140625 215.183594 219.0625 214.121094 219.9375 C 213.058594 220.808594 211.957031 221.625 210.8125 222.390625 C 209.671875 223.152344 208.492188 223.859375 207.28125 224.507812 C 206.070312 225.15625 204.828125 225.742188 203.558594 226.269531 C 202.289062 226.796875 200.996094 227.261719 199.679688 227.660156 C 198.367188 228.058594 197.035156 228.394531 195.6875 228.664062 C 194.339844 228.933594 192.980469 229.136719 191.613281 229.269531 C 190.246094 229.40625 188.875 229.476562 187.5 229.476562 Z M 285.566406 211.691406 C 286.667969 211.375 287.738281 210.972656 288.773438 210.480469 C 289.8125 209.992188 290.800781 209.421875 291.746094 208.773438 C 292.691406 208.121094 293.582031 207.402344 294.410156 206.609375 C 295.238281 205.816406 295.996094 204.960938 296.6875 204.046875 C 297.378906 203.132812 297.992188 202.167969 298.527344 201.152344 C 299.066406 200.136719 299.515625 199.085938 299.882812 198 C 300.246094 196.914062 300.523438 195.804688 300.710938 194.671875 C 300.898438 193.539062 300.992188 192.402344 300.996094 191.253906 L 300.996094 183.746094 C 300.992188 182.597656 300.898438 181.460938 300.710938 180.328125 C 300.523438 179.195312 300.246094 178.085938 299.882812 177 C 299.515625 175.914062 299.066406 174.863281 298.527344 173.847656 C 297.992188 172.832031 297.378906 171.867188 296.6875 170.953125 C 295.996094 170.039062 295.238281 169.183594 294.410156 168.390625 C 293.578125 167.597656 292.691406 166.878906 291.746094 166.226562 C 290.800781 165.578125 289.8125 165.007812 288.773438 164.519531 C 287.738281 164.027344 286.667969 163.625 285.566406 163.308594 L 264.101562 157.21875 L 263.074219 154.746094 L 273.945312 135.257812 C 274.5 134.253906 274.972656 133.210938 275.359375 132.132812 C 275.746094 131.054688 276.042969 129.949219 276.253906 128.824219 C 276.460938 127.695312 276.578125 126.558594 276.605469 125.410156 C 276.628906 124.265625 276.5625 123.125 276.40625 121.988281 C 276.246094 120.851562 276 119.738281 275.660156 118.640625 C 275.324219 117.546875 274.898438 116.484375 274.390625 115.457031 C 273.878906 114.429688 273.292969 113.449219 272.625 112.515625 C 271.957031 111.585938 271.21875 110.710938 270.410156 109.898438 L 265.09375 104.585938 C 264.28125 103.777344 263.410156 103.039062 262.476562 102.371094 C 261.542969 101.703125 260.566406 101.117188 259.539062 100.605469 C 258.511719 100.097656 257.449219 99.671875 256.351562 99.332031 C 255.257812 98.996094 254.140625 98.746094 253.003906 98.589844 C 251.867188 98.429688 250.726562 98.363281 249.582031 98.390625 C 248.433594 98.414062 247.296875 98.53125 246.167969 98.742188 C 245.042969 98.953125 243.9375 99.25 242.859375 99.636719 C 241.78125 100.023438 240.738281 100.496094 239.734375 101.050781 L 220.246094 111.921875 L 217.785156 110.90625 L 211.683594 89.433594 C 211.367188 88.332031 210.964844 87.261719 210.476562 86.226562 C 209.988281 85.1875 209.417969 84.199219 208.769531 83.25 C 208.121094 82.304688 207.398438 81.417969 206.609375 80.589844 C 205.816406 79.761719 204.960938 79 204.046875 78.308594 C 203.132812 77.617188 202.167969 77.003906 201.152344 76.46875 C 200.140625 75.933594 199.089844 75.480469 198.003906 75.113281 C 196.914062 74.75 195.808594 74.472656 194.675781 74.285156 C 193.542969 74.097656 192.40625 74 191.257812 73.996094 L 183.742188 73.996094 C 182.59375 74 181.453125 74.097656 180.324219 74.285156 C 179.191406 74.472656 178.082031 74.75 176.996094 75.113281 C 175.910156 75.480469 174.859375 75.933594 173.84375 76.46875 C 172.832031 77.003906 171.867188 77.617188 170.953125 78.308594 C 170.035156 79 169.183594 79.761719 168.390625 80.589844 C 167.597656 81.417969 166.878906 82.304688 166.230469 83.25 C 165.578125 84.199219 165.011719 85.1875 164.523438 86.226562 C 164.03125 87.261719 163.628906 88.332031 163.3125 89.433594 L 157.203125 110.949219 L 154.792969 111.945312 L 135.257812 101.050781 C 134.253906 100.496094 133.214844 100.023438 132.132812 99.636719 C 131.054688 99.25 129.953125 98.953125 128.824219 98.742188 C 127.695312 98.535156 126.558594 98.414062 125.414062 98.390625 C 124.265625 98.363281 123.125 98.429688 121.992188 98.589844 C 120.855469 98.746094 119.738281 98.996094 118.644531 99.335938 C 117.546875 99.671875 116.488281 100.097656 115.460938 100.605469 C 114.433594 101.117188 113.453125 101.703125 112.519531 102.371094 C 111.589844 103.039062 110.714844 103.777344 109.902344 104.585938 L 104.585938 109.898438 C 103.78125 110.710938 103.042969 111.585938 102.375 112.515625 C 101.707031 113.449219 101.117188 114.429688 100.609375 115.457031 C 100.097656 116.484375 99.675781 117.546875 99.335938 118.640625 C 99 119.738281 98.75 120.851562 98.59375 121.988281 C 98.433594 123.125 98.367188 124.265625 98.394531 125.414062 C 98.421875 126.558594 98.539062 127.695312 98.75 128.824219 C 98.957031 129.949219 99.253906 131.054688 99.644531 132.132812 C 100.03125 133.214844 100.503906 134.253906 101.058594 135.257812 L 111.945312 154.792969 L 110.949219 157.195312 L 89.433594 163.308594 C 88.332031 163.625 87.261719 164.027344 86.226562 164.519531 C 85.1875 165.007812 84.199219 165.578125 83.253906 166.226562 C 82.308594 166.878906 81.421875 167.597656 80.589844 168.390625 C 79.761719 169.183594 79.003906 170.039062 78.3125 170.953125 C 77.621094 171.867188 77.007812 172.832031 76.472656 173.847656 C 75.933594 174.863281 75.484375 175.914062 75.117188 177 C 74.753906 178.085938 74.476562 179.195312 74.289062 180.328125 C 74.101562 181.460938 74.007812 182.597656 74.003906 183.746094 L 74.003906 191.253906 C 74.007812 192.402344 74.101562 193.539062 74.289062 194.671875 C 74.476562 195.804688 74.753906 196.914062 75.117188 198 C 75.484375 199.085938 75.933594 200.136719 76.472656 201.152344 C 77.007812 202.167969 77.621094 203.132812 78.3125 204.046875 C 79.003906 204.960938 79.761719 205.816406 80.589844 206.609375 C 81.421875 207.402344 82.308594 208.121094 83.253906 208.773438 C 84.199219 209.421875 85.1875 209.992188 86.226562 210.480469 C 87.261719 210.972656 88.332031 211.375 89.433594 211.691406 L 110.894531 217.78125 L 111.921875 220.253906 L 101.050781 239.742188 C 100.492188 240.746094 100.023438 241.785156 99.632812 242.863281 C 99.246094 243.945312 98.949219 245.046875 98.738281 246.175781 C 98.527344 247.300781 98.410156 248.4375 98.386719 249.585938 C 98.359375 250.730469 98.425781 251.871094 98.585938 253.007812 C 98.742188 254.144531 98.992188 255.257812 99.328125 256.355469 C 99.667969 257.449219 100.09375 258.511719 100.601562 259.535156 C 101.113281 260.5625 101.703125 261.542969 102.371094 262.476562 C 103.039062 263.40625 103.777344 264.277344 104.585938 265.089844 L 109.902344 270.414062 C 110.714844 271.222656 111.585938 271.960938 112.519531 272.625 C 113.453125 273.292969 114.433594 273.882812 115.460938 274.390625 C 116.488281 274.902344 117.550781 275.324219 118.644531 275.664062 C 119.742188 276 120.855469 276.25 121.992188 276.40625 C 123.128906 276.566406 124.269531 276.632812 125.417969 276.605469 C 126.5625 276.578125 127.699219 276.460938 128.828125 276.25 C 129.957031 276.039062 131.058594 275.742188 132.136719 275.355469 C 133.21875 274.964844 134.257812 274.492188 135.261719 273.9375 L 154.789062 263.054688 L 157.199219 264.050781 L 163.3125 285.566406 C 163.628906 286.667969 164.03125 287.738281 164.519531 288.773438 C 165.007812 289.8125 165.578125 290.800781 166.226562 291.746094 C 166.875 292.695312 167.597656 293.582031 168.390625 294.410156 C 169.179688 295.238281 170.035156 296 170.949219 296.691406 C 171.863281 297.382812 172.828125 297.996094 173.84375 298.53125 C 174.855469 299.066406 175.90625 299.519531 176.992188 299.886719 C 178.082031 300.25 179.191406 300.527344 180.320312 300.714844 C 181.453125 300.902344 182.589844 301 183.738281 301.003906 L 191.257812 301.003906 C 192.402344 301 193.542969 300.902344 194.675781 300.714844 C 195.804688 300.527344 196.914062 300.25 198 299.886719 C 199.089844 299.519531 200.140625 299.066406 201.152344 298.53125 C 202.167969 297.996094 203.132812 297.382812 204.046875 296.691406 C 204.960938 296 205.816406 295.238281 206.605469 294.410156 C 207.398438 293.582031 208.121094 292.695312 208.769531 291.746094 C 209.417969 290.800781 209.988281 289.8125 210.476562 288.773438 C 210.964844 287.738281 211.367188 286.667969 211.683594 285.566406 L 217.785156 264.09375 L 220.246094 263.078125 L 239.734375 273.9375 C 240.738281 274.492188 241.777344 274.964844 242.859375 275.351562 C 243.9375 275.738281 245.039062 276.035156 246.167969 276.246094 C 247.296875 276.457031 248.433594 276.574219 249.578125 276.597656 C 250.726562 276.625 251.867188 276.558594 253 276.402344 C 254.136719 276.242188 255.253906 275.996094 256.347656 275.65625 C 257.445312 275.320312 258.507812 274.898438 259.535156 274.386719 C 260.5625 273.878906 261.542969 273.292969 262.472656 272.625 C 263.40625 271.957031 264.28125 271.21875 265.09375 270.414062 L 270.40625 265.089844 C 271.214844 264.277344 271.953125 263.40625 272.621094 262.476562 C 273.289062 261.542969 273.878906 260.566406 274.390625 259.539062 C 274.898438 258.511719 275.324219 257.449219 275.664062 256.355469 C 276.003906 255.257812 276.25 254.144531 276.410156 253.007812 C 276.566406 251.871094 276.632812 250.730469 276.609375 249.585938 C 276.582031 248.4375 276.464844 247.300781 276.253906 246.175781 C 276.042969 245.046875 275.746094 243.945312 275.355469 242.863281 C 274.96875 241.785156 274.496094 240.746094 273.941406 239.742188 L 263.050781 220.207031 L 264.046875 217.804688 Z M 263.707031 245.441406 C 263.957031 245.890625 264.167969 246.355469 264.34375 246.839844 C 264.515625 247.324219 264.652344 247.820312 264.746094 248.324219 C 264.839844 248.828125 264.890625 249.339844 264.90625 249.851562 C 264.917969 250.367188 264.886719 250.878906 264.816406 251.386719 C 264.746094 251.894531 264.632812 252.398438 264.484375 252.886719 C 264.332031 253.378906 264.140625 253.855469 263.914062 254.316406 C 263.683594 254.777344 263.421875 255.214844 263.121094 255.632812 C 262.820312 256.050781 262.488281 256.441406 262.128906 256.804688 L 256.8125 262.128906 C 256.074219 262.851562 255.242188 263.441406 254.316406 263.898438 C 253.386719 264.355469 252.414062 264.652344 251.390625 264.796875 C 250.367188 264.9375 249.347656 264.914062 248.332031 264.730469 C 247.316406 264.542969 246.351562 264.203125 245.445312 263.707031 L 220.996094 250.078125 L 208.058594 255.445312 L 200.414062 282.359375 C 200.128906 283.355469 199.695312 284.28125 199.109375 285.132812 C 198.523438 285.984375 197.816406 286.726562 196.992188 287.347656 C 196.167969 287.972656 195.261719 288.453125 194.28125 288.78125 C 193.300781 289.113281 192.292969 289.28125 191.257812 289.285156 L 183.742188 289.285156 C 182.707031 289.28125 181.699219 289.113281 180.71875 288.78125 C 179.738281 288.449219 178.832031 287.972656 178.007812 287.347656 C 177.183594 286.726562 176.476562 285.984375 175.890625 285.132812 C 175.304688 284.28125 174.871094 283.355469 174.585938 282.359375 L 166.929688 255.394531 L 154.039062 250.046875 L 129.554688 263.703125 C 128.648438 264.199219 127.6875 264.542969 126.671875 264.730469 C 125.65625 264.921875 124.632812 264.941406 123.609375 264.800781 C 122.585938 264.65625 121.609375 264.359375 120.683594 263.898438 C 119.757812 263.441406 118.925781 262.851562 118.191406 262.121094 L 112.867188 256.800781 C 112.140625 256.066406 111.546875 255.238281 111.085938 254.308594 C 110.628906 253.382812 110.324219 252.40625 110.183594 251.382812 C 110.042969 250.359375 110.066406 249.335938 110.253906 248.320312 C 110.441406 247.304688 110.789062 246.339844 111.289062 245.4375 L 124.925781 221.003906 L 119.558594 208.050781 L 92.640625 200.40625 C 92.148438 200.261719 91.667969 200.082031 91.203125 199.863281 C 90.738281 199.644531 90.292969 199.390625 89.871094 199.097656 C 89.445312 198.808594 89.046875 198.484375 88.675781 198.128906 C 88.304688 197.773438 87.964844 197.390625 87.65625 196.980469 C 87.34375 196.570312 87.070312 196.140625 86.828125 195.683594 C 86.589844 195.230469 86.386719 194.757812 86.222656 194.273438 C 86.058594 193.785156 85.933594 193.289062 85.851562 192.78125 C 85.765625 192.273438 85.726562 191.761719 85.722656 191.25 L 85.722656 183.742188 C 85.726562 182.707031 85.894531 181.699219 86.226562 180.71875 C 86.554688 179.738281 87.03125 178.832031 87.65625 178.007812 C 88.28125 177.179688 89.019531 176.472656 89.871094 175.886719 C 90.722656 175.300781 91.648438 174.863281 92.640625 174.574219 L 119.605469 166.921875 L 124.953125 154.035156 L 111.296875 129.558594 C 110.796875 128.652344 110.449219 127.691406 110.261719 126.671875 C 110.070312 125.65625 110.046875 124.632812 110.191406 123.609375 C 110.332031 122.582031 110.632812 121.605469 111.09375 120.675781 C 111.554688 119.75 112.148438 118.917969 112.878906 118.183594 L 118.191406 112.871094 C 118.925781 112.144531 119.757812 111.546875 120.683594 111.085938 C 121.609375 110.625 122.585938 110.324219 123.609375 110.183594 C 124.632812 110.039062 125.65625 110.0625 126.671875 110.25 C 127.691406 110.4375 128.652344 110.78125 129.558594 111.28125 L 154.042969 124.945312 L 166.933594 119.601562 L 174.589844 92.636719 C 174.875 91.644531 175.308594 90.71875 175.894531 89.863281 C 176.480469 89.011719 177.183594 88.273438 178.011719 87.648438 C 178.835938 87.023438 179.738281 86.546875 180.71875 86.214844 C 181.699219 85.882812 182.707031 85.71875 183.742188 85.714844 L 191.261719 85.714844 C 192.296875 85.71875 193.304688 85.882812 194.285156 86.214844 C 195.265625 86.546875 196.167969 87.023438 196.996094 87.648438 C 197.820312 88.273438 198.527344 89.011719 199.113281 89.863281 C 199.695312 90.71875 200.132812 91.644531 200.417969 92.636719 L 208.0625 119.554688 L 221.003906 124.921875 L 245.445312 111.28125 C 246.351562 110.78125 247.3125 110.4375 248.332031 110.25 C 249.347656 110.0625 250.367188 110.039062 251.394531 110.183594 C 252.417969 110.328125 253.394531 110.628906 254.320312 111.089844 C 255.25 111.546875 256.078125 112.140625 256.8125 112.871094 L 262.128906 118.179688 C 262.859375 118.914062 263.453125 119.746094 263.914062 120.675781 C 264.375 121.601562 264.675781 122.578125 264.816406 123.605469 C 264.960938 124.628906 264.9375 125.652344 264.75 126.671875 C 264.558594 127.6875 264.214844 128.648438 263.714844 129.554688 L 250.078125 153.992188 L 255.4375 166.945312 L 282.359375 174.589844 C 282.855469 174.734375 283.332031 174.914062 283.796875 175.132812 C 284.265625 175.351562 284.707031 175.605469 285.132812 175.898438 C 285.554688 176.1875 285.953125 176.511719 286.324219 176.867188 C 286.695312 177.222656 287.039062 177.605469 287.347656 178.015625 C 287.65625 178.425781 287.933594 178.855469 288.171875 179.3125 C 288.410156 179.765625 288.613281 180.238281 288.777344 180.722656 C 288.941406 181.210938 289.066406 181.707031 289.148438 182.214844 C 289.234375 182.722656 289.277344 183.230469 289.277344 183.746094 L 289.277344 191.253906 C 289.273438 192.289062 289.105469 193.296875 288.777344 194.277344 C 288.445312 195.257812 287.96875 196.164062 287.34375 196.988281 C 286.722656 197.816406 285.984375 198.523438 285.132812 199.109375 C 284.277344 199.695312 283.355469 200.132812 282.359375 200.421875 L 255.394531 208.078125 L 250.050781 220.960938 Z M 43.734375 247.96875 C 44.300781 246.871094 44.753906 245.726562 45.09375 244.539062 C 45.433594 243.347656 45.652344 242.136719 45.753906 240.90625 C 45.851562 239.671875 45.828125 238.441406 45.683594 237.214844 C 45.539062 235.984375 45.273438 234.785156 44.890625 233.609375 C 40.058594 218.617188 37.652344 203.25 37.667969 187.5 C 37.667969 104.875 104.882812 37.664062 187.5 37.664062 C 193.839844 37.671875 200.15625 38.082031 206.441406 38.894531 C 212.730469 39.707031 218.941406 40.914062 225.078125 42.515625 C 231.210938 44.117188 237.222656 46.101562 243.101562 48.46875 C 248.984375 50.835938 254.695312 53.566406 260.230469 56.660156 L 255.761719 61.832031 C 255.535156 62.09375 255.316406 62.367188 255.105469 62.644531 C 254.898438 62.921875 254.699219 63.203125 254.507812 63.496094 C 254.316406 63.785156 254.136719 64.082031 253.964844 64.382812 C 253.792969 64.6875 253.632812 64.992188 253.480469 65.304688 C 253.328125 65.617188 253.1875 65.9375 253.058594 66.257812 C 252.925781 66.582031 252.808594 66.90625 252.699219 67.238281 C 252.589844 67.566406 252.492188 67.898438 252.402344 68.234375 C 252.316406 68.570312 252.238281 68.910156 252.175781 69.253906 C 252.109375 69.59375 252.054688 69.9375 252.011719 70.28125 C 251.96875 70.625 251.9375 70.972656 251.917969 71.320312 C 251.898438 71.664062 251.890625 72.011719 251.894531 72.359375 C 251.894531 72.707031 251.910156 73.054688 251.933594 73.402344 C 251.960938 73.746094 251.996094 74.09375 252.046875 74.4375 C 252.09375 74.78125 252.152344 75.125 252.222656 75.464844 C 252.292969 75.804688 252.375 76.140625 252.46875 76.476562 C 252.558594 76.8125 252.664062 77.144531 252.777344 77.472656 C 252.890625 77.800781 253.015625 78.125 253.152344 78.445312 C 253.285156 78.761719 253.433594 79.078125 253.589844 79.390625 C 253.746094 79.699219 253.910156 80.003906 254.085938 80.304688 C 254.261719 80.605469 254.449219 80.898438 254.644531 81.183594 C 254.839844 81.472656 255.042969 81.753906 255.257812 82.027344 C 255.46875 82.300781 255.691406 82.566406 255.921875 82.828125 C 256.15625 83.085938 256.394531 83.339844 256.640625 83.582031 C 256.890625 83.828125 257.144531 84.0625 257.40625 84.289062 C 257.671875 84.515625 257.941406 84.734375 258.21875 84.945312 C 258.496094 85.152344 258.777344 85.351562 259.070312 85.542969 C 259.359375 85.734375 259.65625 85.917969 259.957031 86.085938 C 260.261719 86.257812 260.566406 86.421875 260.878906 86.570312 C 261.191406 86.722656 261.511719 86.863281 261.832031 86.996094 C 262.152344 87.125 262.480469 87.246094 262.808594 87.355469 C 263.140625 87.464844 263.472656 87.5625 263.808594 87.648438 C 264.144531 87.738281 264.484375 87.8125 264.824219 87.878906 L 322.445312 98.886719 C 323.820312 99.152344 325.203125 99.230469 326.59375 99.128906 C 327.988281 99.027344 329.347656 98.746094 330.664062 98.285156 C 331.984375 97.824219 333.222656 97.203125 334.378906 96.417969 C 335.535156 95.632812 336.566406 94.710938 337.480469 93.652344 C 338.394531 92.59375 339.15625 91.4375 339.761719 90.179688 C 340.371094 88.921875 340.804688 87.605469 341.066406 86.234375 C 341.328125 84.859375 341.410156 83.476562 341.308594 82.085938 C 341.203125 80.691406 340.921875 79.335938 340.464844 78.015625 L 321.179688 22.613281 C 321.066406 22.285156 320.941406 21.960938 320.804688 21.640625 C 320.667969 21.320312 320.523438 21.007812 320.367188 20.695312 C 320.210938 20.386719 320.046875 20.082031 319.871094 19.78125 C 319.691406 19.480469 319.507812 19.1875 319.3125 18.902344 C 319.117188 18.613281 318.914062 18.332031 318.699219 18.058594 C 318.484375 17.785156 318.261719 17.519531 318.03125 17.257812 C 317.800781 17 317.5625 16.746094 317.3125 16.503906 C 317.066406 16.257812 316.8125 16.023438 316.546875 15.796875 C 316.285156 15.570312 316.015625 15.351562 315.738281 15.140625 C 315.460938 14.933594 315.175781 14.734375 314.886719 14.542969 C 314.597656 14.351562 314.300781 14.171875 314 14 C 313.695312 13.828125 313.386719 13.667969 313.074219 13.515625 C 312.761719 13.363281 312.445312 13.222656 312.125 13.09375 C 311.800781 12.960938 311.476562 12.84375 311.144531 12.734375 C 310.816406 12.625 310.484375 12.523438 310.148438 12.4375 C 309.8125 12.351562 309.472656 12.273438 309.128906 12.210938 C 308.789062 12.144531 308.445312 12.089844 308.101562 12.046875 C 307.757812 12.003906 307.410156 11.972656 307.0625 11.953125 C 306.71875 11.933594 306.371094 11.925781 306.023438 11.925781 C 305.675781 11.929688 305.328125 11.945312 304.980469 11.96875 C 304.636719 11.996094 304.289062 12.03125 303.945312 12.078125 C 303.601562 12.125 303.261719 12.1875 302.917969 12.257812 C 302.578125 12.328125 302.242188 12.40625 301.90625 12.5 C 301.570312 12.59375 301.242188 12.695312 300.914062 12.8125 C 300.585938 12.925781 300.261719 13.050781 299.941406 13.183594 C 299.621094 13.320312 299.304688 13.464844 298.996094 13.621094 C 298.683594 13.777344 298.378906 13.945312 298.078125 14.121094 C 297.78125 14.296875 297.488281 14.480469 297.199219 14.675781 C 296.910156 14.871094 296.632812 15.078125 296.355469 15.289062 C 296.082031 15.503906 295.816406 15.726562 295.558594 15.957031 C 295.296875 16.1875 295.046875 16.425781 294.800781 16.675781 C 294.558594 16.921875 294.324219 17.175781 294.097656 17.441406 L 285.253906 27.683594 C 277.9375 23.1875 270.347656 19.214844 262.484375 15.761719 C 254.621094 12.308594 246.558594 9.414062 238.292969 7.074219 C 230.03125 4.734375 221.648438 2.972656 213.140625 1.785156 C 204.636719 0.601562 196.089844 0.0078125 187.5 0 C 84.113281 0 0 84.113281 0 187.5 C -0.015625 207.210938 3 226.441406 9.046875 245.199219 C 9.351562 246.144531 9.726562 247.054688 10.171875 247.9375 C 10.621094 248.820312 11.132812 249.664062 11.714844 250.464844 C 12.296875 251.265625 12.933594 252.015625 13.632812 252.714844 C 14.332031 253.417969 15.082031 254.058594 15.882812 254.640625 C 16.683594 255.222656 17.523438 255.738281 18.40625 256.1875 C 19.285156 256.636719 20.199219 257.015625 21.140625 257.320312 C 22.082031 257.625 23.039062 257.855469 24.015625 258.007812 C 24.996094 258.164062 25.976562 258.238281 26.96875 258.238281 C 28.945312 258.242188 30.875 257.933594 32.753906 257.3125 C 33.933594 256.9375 35.0625 256.449219 36.148438 255.847656 C 37.230469 255.25 38.242188 254.546875 39.183594 253.746094 C 40.125 252.945312 40.980469 252.058594 41.746094 251.085938 C 42.511719 250.113281 43.175781 249.074219 43.734375 247.96875 Z M 302.964844 25.09375 C 303.453125 24.523438 304.054688 24.117188 304.761719 23.867188 C 305.472656 23.621094 306.195312 23.566406 306.933594 23.707031 C 307.667969 23.847656 308.324219 24.164062 308.890625 24.65625 C 309.457031 25.144531 309.867188 25.746094 310.113281 26.457031 L 329.394531 81.855469 C 329.648438 82.566406 329.707031 83.289062 329.566406 84.03125 C 329.425781 84.769531 329.105469 85.421875 328.605469 85.988281 C 328.128906 86.574219 327.53125 86.992188 326.816406 87.238281 C 326.105469 87.488281 325.378906 87.53125 324.640625 87.371094 L 267.019531 76.367188 C 266.28125 76.226562 265.628906 75.910156 265.0625 75.421875 C 264.492188 74.933594 264.085938 74.332031 263.839844 73.625 C 263.59375 72.914062 263.539062 72.195312 263.679688 71.457031 C 263.820312 70.71875 264.136719 70.066406 264.628906 69.5 L 277.210938 54.925781 L 287.488281 43.023438 Z M 33.300781 242.636719 C 32.871094 243.480469 32.292969 244.210938 31.570312 244.824219 C 30.84375 245.4375 30.03125 245.886719 29.128906 246.171875 C 28.683594 246.308594 28.230469 246.402344 27.769531 246.449219 C 27.308594 246.496094 26.84375 246.5 26.382812 246.460938 C 25.921875 246.417969 25.464844 246.335938 25.019531 246.207031 C 24.574219 246.078125 24.144531 245.90625 23.730469 245.695312 C 23.320312 245.484375 22.929688 245.234375 22.566406 244.949219 C 22.199219 244.660156 21.867188 244.34375 21.5625 243.992188 C 21.257812 243.640625 20.992188 243.261719 20.761719 242.859375 C 20.53125 242.457031 20.339844 242.035156 20.191406 241.597656 C 14.523438 224.007812 11.699219 205.976562 11.71875 187.5 C 11.71875 90.566406 90.574219 11.71875 187.5 11.71875 C 195.382812 11.734375 203.230469 12.28125 211.042969 13.355469 C 218.855469 14.429688 226.558594 16.027344 234.152344 18.140625 C 241.75 20.257812 249.167969 22.875 256.410156 25.992188 C 263.652344 29.109375 270.652344 32.699219 277.410156 36.761719 L 267.976562 47.679688 C 261.886719 44.152344 255.597656 41.039062 249.101562 38.335938 C 242.605469 35.628906 235.960938 33.359375 229.167969 31.527344 C 222.375 29.691406 215.488281 28.308594 208.515625 27.371094 C 201.542969 26.4375 194.535156 25.960938 187.5 25.945312 C 98.417969 25.945312 25.949219 98.417969 25.949219 187.5 C 25.929688 204.476562 28.527344 221.042969 33.742188 237.203125 C 34.035156 238.101562 34.144531 239.019531 34.066406 239.964844 C 33.992188 240.90625 33.734375 241.796875 33.300781 242.636719 Z M 365.953125 129.808594 L 365.953125 129.785156 C 365.761719 129.199219 365.542969 128.625 365.292969 128.0625 C 365.046875 127.496094 364.773438 126.945312 364.46875 126.410156 C 364.167969 125.875 363.839844 125.351562 363.488281 124.847656 C 363.136719 124.34375 362.757812 123.855469 362.359375 123.386719 C 361.957031 122.921875 361.535156 122.472656 361.09375 122.046875 C 360.648438 121.621094 360.183594 121.214844 359.699219 120.835938 C 359.214844 120.453125 358.714844 120.097656 358.195312 119.765625 C 357.679688 119.433594 357.144531 119.125 356.597656 118.847656 C 356.046875 118.566406 355.484375 118.3125 354.914062 118.089844 C 354.339844 117.863281 353.757812 117.667969 353.164062 117.5 C 352.570312 117.332031 351.972656 117.191406 351.367188 117.082031 C 350.761719 116.972656 350.148438 116.894531 349.535156 116.84375 C 348.921875 116.796875 348.308594 116.777344 347.691406 116.789062 C 347.074219 116.796875 346.460938 116.839844 345.851562 116.910156 C 345.238281 116.980469 344.632812 117.082031 344.03125 117.210938 C 343.425781 117.339844 342.832031 117.5 342.246094 117.6875 C 341.660156 117.878906 341.082031 118.097656 340.519531 118.34375 C 339.953125 118.585938 339.398438 118.859375 338.863281 119.160156 C 338.324219 119.460938 337.800781 119.785156 337.292969 120.136719 C 336.785156 120.488281 336.296875 120.867188 335.828125 121.265625 C 335.359375 121.664062 334.910156 122.085938 334.480469 122.53125 C 334.054688 122.972656 333.648438 123.4375 333.265625 123.921875 C 332.882812 124.402344 332.523438 124.90625 332.191406 125.421875 C 331.855469 125.941406 331.550781 126.476562 331.269531 127.023438 C 330.988281 127.574219 330.734375 128.136719 330.507812 128.710938 C 330.28125 129.28125 330.085938 129.867188 329.917969 130.460938 C 329.746094 131.054688 329.609375 131.652344 329.5 132.257812 C 329.390625 132.867188 329.308594 133.476562 329.261719 134.09375 C 329.210938 134.707031 329.191406 135.324219 329.203125 135.9375 C 329.214844 136.554688 329.253906 137.171875 329.324219 137.78125 C 329.398438 138.394531 329.5 139.003906 329.628906 139.605469 C 329.761719 140.207031 329.921875 140.804688 330.109375 141.390625 C 334.941406 156.378906 337.347656 171.75 337.332031 187.5 C 337.332031 270.125 270.113281 337.335938 187.5 337.335938 C 181.160156 337.328125 174.84375 336.917969 168.558594 336.105469 C 162.269531 335.292969 156.058594 334.085938 149.921875 332.484375 C 143.789062 330.882812 137.777344 328.898438 131.898438 326.53125 C 126.015625 324.164062 120.304688 321.433594 114.769531 318.339844 L 119.238281 313.167969 C 119.464844 312.90625 119.683594 312.632812 119.894531 312.355469 C 120.101562 312.078125 120.300781 311.796875 120.492188 311.503906 C 120.683594 311.214844 120.863281 310.917969 121.035156 310.617188 C 121.207031 310.3125 121.367188 310.007812 121.519531 309.695312 C 121.671875 309.382812 121.8125 309.0625 121.941406 308.742188 C 122.074219 308.417969 122.191406 308.09375 122.300781 307.761719 C 122.410156 307.433594 122.507812 307.101562 122.597656 306.765625 C 122.683594 306.429688 122.761719 306.089844 122.824219 305.746094 C 122.890625 305.40625 122.945312 305.0625 122.988281 304.71875 C 123.03125 304.375 123.0625 304.027344 123.082031 303.679688 C 123.101562 303.335938 123.109375 302.988281 123.105469 302.640625 C 123.105469 302.292969 123.089844 301.945312 123.066406 301.597656 C 123.039062 301.253906 123.003906 300.90625 122.953125 300.5625 C 122.90625 300.21875 122.847656 299.875 122.777344 299.535156 C 122.707031 299.195312 122.625 298.859375 122.53125 298.523438 C 122.441406 298.1875 122.335938 297.855469 122.222656 297.527344 C 122.109375 297.199219 121.984375 296.875 121.847656 296.554688 C 121.714844 296.238281 121.566406 295.921875 121.410156 295.609375 C 121.253906 295.300781 121.089844 294.996094 120.914062 294.695312 C 120.738281 294.394531 120.550781 294.101562 120.355469 293.816406 C 120.160156 293.527344 119.957031 293.246094 119.742188 292.972656 C 119.53125 292.699219 119.308594 292.433594 119.078125 292.171875 C 118.84375 291.914062 118.605469 291.660156 118.359375 291.417969 C 118.109375 291.171875 117.855469 290.9375 117.59375 290.710938 C 117.328125 290.484375 117.058594 290.265625 116.78125 290.054688 C 116.503906 289.847656 116.222656 289.648438 115.929688 289.457031 C 115.640625 289.265625 115.34375 289.082031 115.042969 288.914062 C 114.738281 288.742188 114.433594 288.578125 114.121094 288.429688 C 113.808594 288.277344 113.488281 288.136719 113.167969 288.003906 C 112.847656 287.875 112.519531 287.753906 112.191406 287.644531 C 111.859375 287.535156 111.527344 287.4375 111.191406 287.351562 C 110.855469 287.261719 110.515625 287.1875 110.175781 287.121094 L 52.558594 276.109375 C 51.183594 275.847656 49.800781 275.769531 48.40625 275.871094 C 47.015625 275.972656 45.65625 276.253906 44.339844 276.714844 C 43.019531 277.175781 41.78125 277.796875 40.625 278.582031 C 39.46875 279.367188 38.433594 280.289062 37.523438 281.347656 C 36.609375 282.40625 35.847656 283.5625 35.242188 284.820312 C 34.632812 286.078125 34.199219 287.394531 33.9375 288.765625 C 33.675781 290.140625 33.59375 291.523438 33.695312 292.914062 C 33.800781 294.308594 34.078125 295.664062 34.539062 296.984375 L 53.824219 352.386719 C 53.9375 352.714844 54.0625 353.039062 54.195312 353.359375 C 54.332031 353.679688 54.476562 353.992188 54.632812 354.304688 C 54.789062 354.613281 54.957031 354.917969 55.132812 355.21875 C 55.308594 355.519531 55.492188 355.8125 55.6875 356.097656 C 55.882812 356.386719 56.089844 356.667969 56.300781 356.941406 C 56.515625 357.214844 56.738281 357.480469 56.96875 357.742188 C 57.199219 358 57.441406 358.253906 57.6875 358.496094 C 57.933594 358.742188 58.191406 358.976562 58.453125 359.203125 C 58.714844 359.429688 58.984375 359.648438 59.261719 359.859375 C 59.539062 360.066406 59.824219 360.265625 60.113281 360.457031 C 60.40625 360.648438 60.699219 360.828125 61.003906 361 C 61.304688 361.171875 61.613281 361.332031 61.925781 361.484375 C 62.238281 361.636719 62.554688 361.777344 62.878906 361.90625 C 63.199219 362.039062 63.527344 362.15625 63.855469 362.265625 C 64.183594 362.375 64.519531 362.476562 64.855469 362.5625 C 65.191406 362.648438 65.53125 362.726562 65.871094 362.789062 C 66.210938 362.855469 66.554688 362.910156 66.898438 362.953125 C 67.246094 362.996094 67.589844 363.027344 67.9375 363.046875 C 68.285156 363.066406 68.632812 363.074219 68.980469 363.074219 C 69.324219 363.070312 69.671875 363.054688 70.019531 363.03125 C 70.367188 363.003906 70.710938 362.96875 71.054688 362.921875 C 71.398438 362.875 71.742188 362.8125 72.082031 362.742188 C 72.421875 362.671875 72.757812 362.59375 73.09375 362.5 C 73.429688 362.40625 73.761719 362.304688 74.089844 362.1875 C 74.417969 362.074219 74.742188 361.949219 75.0625 361.816406 C 75.382812 361.679688 75.695312 361.535156 76.007812 361.378906 C 76.316406 361.222656 76.621094 361.054688 76.921875 360.878906 C 77.222656 360.703125 77.515625 360.519531 77.800781 360.324219 C 78.089844 360.128906 78.371094 359.921875 78.644531 359.710938 C 78.917969 359.496094 79.183594 359.273438 79.445312 359.042969 C 79.703125 358.8125 79.957031 358.574219 80.199219 358.324219 C 80.441406 358.078125 80.679688 357.824219 80.90625 357.558594 L 89.746094 347.316406 C 97.0625 351.8125 104.652344 355.789062 112.515625 359.238281 C 120.378906 362.691406 128.441406 365.585938 136.707031 367.925781 C 144.96875 370.265625 153.355469 372.027344 161.859375 373.214844 C 170.363281 374.398438 178.910156 374.992188 187.5 375 C 290.886719 375 375 290.886719 375 187.5 C 375.019531 167.792969 372.003906 148.5625 365.953125 129.808594 Z M 72.03125 349.902344 C 71.542969 350.472656 70.945312 350.878906 70.234375 351.128906 C 69.527344 351.375 68.800781 351.429688 68.066406 351.289062 C 67.328125 351.148438 66.675781 350.832031 66.105469 350.339844 C 65.539062 349.851562 65.132812 349.25 64.886719 348.542969 L 45.605469 293.140625 C 45.542969 292.964844 45.496094 292.789062 45.457031 292.609375 C 45.421875 292.429688 45.394531 292.25 45.382812 292.066406 C 45.371094 291.882812 45.367188 291.699219 45.378906 291.515625 C 45.390625 291.332031 45.410156 291.152344 45.445312 290.96875 C 45.480469 290.789062 45.527344 290.613281 45.585938 290.4375 C 45.640625 290.265625 45.710938 290.09375 45.789062 289.929688 C 45.871094 289.761719 45.960938 289.605469 46.0625 289.449219 C 46.164062 289.296875 46.273438 289.152344 46.394531 289.011719 C 46.511719 288.871094 46.640625 288.742188 46.777344 288.621094 C 46.914062 288.496094 47.058594 288.382812 47.210938 288.28125 C 47.363281 288.179688 47.519531 288.085938 47.683594 288.003906 C 47.847656 287.917969 48.015625 287.847656 48.191406 287.789062 C 48.363281 287.726562 48.539062 287.675781 48.71875 287.640625 C 48.898438 287.601562 49.082031 287.578125 49.265625 287.5625 C 49.449219 287.550781 49.628906 287.546875 49.8125 287.558594 C 49.996094 287.566406 50.179688 287.589844 50.359375 287.625 L 107.980469 298.632812 C 108.71875 298.773438 109.371094 299.089844 109.9375 299.578125 C 110.507812 300.066406 110.914062 300.667969 111.160156 301.375 C 111.40625 302.082031 111.460938 302.804688 111.320312 303.542969 C 111.179688 304.28125 110.863281 304.933594 110.371094 305.5 L 97.789062 320.074219 L 87.511719 331.972656 Z M 187.5 363.28125 C 179.617188 363.265625 171.769531 362.71875 163.957031 361.644531 C 156.144531 360.570312 148.441406 358.972656 140.847656 356.859375 C 133.25 354.742188 125.832031 352.125 118.589844 349.007812 C 111.347656 345.890625 104.347656 342.300781 97.589844 338.238281 L 107.023438 327.320312 C 113.113281 330.847656 119.402344 333.960938 125.898438 336.664062 C 132.394531 339.371094 139.039062 341.640625 145.832031 343.472656 C 152.625 345.308594 159.511719 346.691406 166.484375 347.628906 C 173.457031 348.5625 180.464844 349.039062 187.5 349.054688 C 276.582031 349.054688 349.050781 276.582031 349.050781 187.5 C 349.070312 170.523438 346.472656 153.957031 341.257812 137.796875 C 341.113281 137.355469 341.015625 136.898438 340.960938 136.433594 C 340.90625 135.96875 340.898438 135.503906 340.9375 135.039062 C 340.972656 134.574219 341.054688 134.117188 341.183594 133.664062 C 341.3125 133.214844 341.480469 132.785156 341.695312 132.367188 C 341.90625 131.953125 342.160156 131.558594 342.449219 131.191406 C 342.738281 130.828125 343.0625 130.492188 343.417969 130.1875 C 343.777344 129.886719 344.15625 129.621094 344.566406 129.394531 C 344.972656 129.167969 345.402344 128.980469 345.847656 128.835938 C 346.289062 128.699219 346.742188 128.601562 347.207031 128.550781 C 347.667969 128.5 348.132812 128.492188 348.597656 128.53125 C 349.0625 128.570312 349.519531 128.652344 349.964844 128.78125 C 350.414062 128.90625 350.84375 129.078125 351.261719 129.289062 C 351.675781 129.5 352.066406 129.75 352.433594 130.039062 C 352.796875 130.324219 353.132812 130.644531 353.4375 130.996094 C 353.742188 131.351562 354.007812 131.730469 354.238281 132.132812 C 354.46875 132.539062 354.660156 132.960938 354.808594 133.402344 C 360.472656 150.992188 363.300781 169.023438 363.28125 187.5 C 363.28125 284.429688 284.425781 363.28125 187.5 363.28125 Z M 187.5 363.28125 " fill-opacity="1" fill-rule="nonzero"/></svg>