<svg xmlns="http://www.w3.org/2000/svg" xmlns:xlink="http://www.w3.org/1999/xlink" width="500" zoomAndPan="magnify" viewBox="0 0 375 374.999991" height="500" preserveAspectRatio="xMidYMid meet" version="1.0"><rect x="-37.5" width="450" fill="#ffffff" y="-37.499999" height="449.999989" fill-opacity="1"/><rect x="-37.5" width="450" fill="#ffffff" y="-37.499999" height="449.999989" fill-opacity="1"/><path fill="#273240" d="M 345.601562 333.210938 C 344.445312 333.210938 343.503906 332.273438 343.503906 331.113281 L 343.503906 34.1875 C 343.503906 33.03125 344.445312 32.089844 345.601562 32.089844 C 346.761719 32.089844 347.703125 33.03125 347.703125 34.1875 L 347.703125 331.113281 C 347.703125 332.273438 346.761719 333.210938 345.601562 333.210938 Z M 345.601562 333.210938 " fill-opacity="1" fill-rule="nonzero"/><path fill="#273240" d="M 372.601562 342.457031 C 371.742188 342.457031 370.910156 341.996094 370.480469 341.179688 L 343.9375 291.019531 C 343.316406 289.847656 343.761719 288.394531 344.933594 287.777344 C 346.105469 287.15625 347.558594 287.601562 348.175781 288.773438 L 374.71875 338.9375 C 375.339844 340.109375 374.894531 341.558594 373.722656 342.179688 C 373.363281 342.367188 372.980469 342.457031 372.601562 342.457031 Z M 372.601562 342.457031 " fill-opacity="1" fill-rule="nonzero"/><path fill="#273240" d="M 318.605469 342.457031 C 319.464844 342.457031 320.296875 341.996094 320.726562 341.179688 L 347.269531 291.019531 C 347.890625 289.847656 347.441406 288.394531 346.273438 287.777344 C 345.101562 287.15625 343.648438 287.601562 343.027344 288.773438 L 316.484375 338.9375 C 315.867188 340.109375 316.3125 341.558594 317.484375 342.179688 C 317.84375 342.367188 318.226562 342.457031 318.605469 342.457031 Z M 318.605469 342.457031 " fill-opacity="1" fill-rule="nonzero"/><path fill="#273240" d="M 29.980469 333.210938 C 31.140625 333.210938 32.082031 332.273438 32.082031 331.113281 L 32.082031 34.1875 C 32.082031 33.03125 31.140625 32.089844 29.980469 32.089844 C 28.824219 32.089844 27.882812 33.03125 27.882812 34.1875 L 27.882812 331.113281 C 27.882812 332.273438 28.824219 333.210938 29.980469 333.210938 Z M 29.980469 333.210938 " fill-opacity="1" fill-rule="nonzero"/><path fill="#273240" d="M 2.984375 342.457031 C 3.84375 342.457031 4.675781 341.996094 5.105469 341.179688 L 31.648438 291.019531 C 32.269531 289.847656 31.820312 288.394531 30.652344 287.777344 C 29.480469 287.15625 28.027344 287.601562 27.40625 288.773438 L 0.863281 338.9375 C 0.246094 340.109375 0.691406 341.558594 1.863281 342.179688 C 2.21875 342.367188 2.605469 342.457031 2.984375 342.457031 Z M 2.984375 342.457031 " fill-opacity="1" fill-rule="nonzero"/><path fill="#273240" d="M 56.980469 342.457031 C 56.121094 342.457031 55.289062 341.996094 54.859375 341.179688 L 28.316406 291.019531 C 27.695312 289.847656 28.140625 288.394531 29.3125 287.777344 C 30.484375 287.15625 31.9375 287.601562 32.554688 288.773438 L 59.097656 338.9375 C 59.71875 340.109375 59.273438 341.558594 58.101562 342.179688 C 57.742188 342.367188 57.359375 342.457031 56.980469 342.457031 Z M 56.980469 342.457031 " fill-opacity="1" fill-rule="nonzero"/><path fill="#273240" d="M 22.160156 29.601562 L 353.425781 29.601562 L 353.425781 36.203125 L 22.160156 36.203125 Z M 22.160156 29.601562 " fill-opacity="1" fill-rule="nonzero"/><path fill="#e1eaf3" d="M 51.523438 27.542969 L 322.296875 27.542969 L 322.296875 342.839844 L 51.523438 342.839844 Z M 51.523438 27.542969 " fill-opacity="1" fill-rule="nonzero"/><path fill="#cedded" d="M 322.289062 27.542969 L 327.191406 40.835938 L 56.421875 40.835938 L 51.519531 27.542969 Z M 322.289062 27.542969 " fill-opacity="1" fill-rule="nonzero"/><path fill="#cedded" d="M 345.695312 374.554688 L 28.113281 374.554688 L 51.519531 342.722656 L 322.289062 342.722656 Z M 345.695312 374.554688 " fill-opacity="1" fill-rule="nonzero"/><path fill="#9b673d" d="M 76.164062 365.679688 C 73.585938 368.988281 63.574219 369.046875 59.53125 367.914062 C 58.027344 367.488281 53.960938 365.070312 53.960938 365.070312 L 53.667969 366.492188 L 48.476562 365.710938 C 48.335938 364.871094 48.261719 364.023438 48.253906 363.152344 C 48.21875 361.257812 48.46875 359.292969 48.9375 357.257812 L 60.605469 355.085938 L 61.910156 357.757812 C 61.910156 357.757812 63.144531 360.28125 63.914062 360.746094 C 66.601562 362.359375 75.175781 363.503906 75.984375 364.171875 C 76.03125 364.207031 76.070312 364.261719 76.105469 364.328125 C 76.304688 364.695312 76.355469 365.425781 76.164062 365.679688 Z M 76.164062 365.679688 " fill-opacity="1" fill-rule="nonzero"/><path fill="#9b673d" d="M 131.695312 352.613281 C 129.117188 355.921875 119.101562 355.980469 115.0625 354.847656 C 113.558594 354.421875 109.488281 352.003906 109.488281 352.003906 L 109.199219 353.425781 L 104.007812 352.644531 C 103.863281 351.804688 103.792969 350.957031 103.78125 350.085938 C 103.746094 348.191406 103.996094 346.226562 104.46875 344.191406 L 116.132812 342.019531 L 117.441406 344.691406 C 117.441406 344.691406 118.675781 347.214844 119.441406 347.679688 C 122.128906 349.292969 130.707031 350.4375 131.515625 351.101562 C 131.5625 351.140625 131.601562 351.195312 131.636719 351.261719 C 131.835938 351.628906 131.886719 352.359375 131.695312 352.613281 Z M 131.695312 352.613281 " fill-opacity="1" fill-rule="nonzero"/><path fill="#f3a086" d="M 131.03125 214.820312 C 131.03125 214.820312 134.835938 215.898438 135.910156 211.40625 C 136.984375 206.914062 139.285156 202.515625 140.003906 199.4375 C 141.089844 194.792969 141.199219 183.457031 142.113281 180.472656 C 143.027344 177.492188 150.0625 172.363281 150.820312 171.449219 C 150.820312 171.449219 158.359375 162.691406 153.871094 161.226562 C 147.183594 159.039062 123.703125 205.152344 124.417969 203.890625 C 124.628906 204.476562 125.695312 209.125 126.886719 210.609375 C 127.042969 210.808594 131.03125 214.820312 131.03125 214.820312 Z M 131.03125 214.820312 " fill-opacity="1" fill-rule="nonzero"/><path fill="#496cb3" d="M 117.488281 169.800781 C 120.550781 170.949219 122.625 176.359375 123.886719 185.234375 L 126.898438 205.007812 L 131.03125 214.820312 C 125.238281 213.785156 120.0625 211.460938 115.675781 207.476562 L 114.351562 178.75 L 118.1875 175.4375 Z M 117.488281 169.800781 " fill-opacity="1" fill-rule="nonzero"/><path fill="#f6a98d" d="M 117.488281 169.800781 C 119.730469 168.191406 122.019531 167.261719 124.355469 167.183594 C 122.804688 164.550781 121.582031 162.03125 121.839844 160.003906 C 120.773438 157.648438 120.351562 155.207031 120.578125 152.683594 L 107.902344 152.535156 L 110.023438 164.46875 L 113.542969 169.214844 L 114.859375 173.734375 C 114.859375 173.734375 116.660156 173.621094 116.773438 173.734375 C 116.890625 173.847656 118.890625 173.933594 118.890625 173.933594 Z M 117.488281 169.800781 " fill-opacity="1" fill-rule="nonzero"/><path fill="#034861" d="M 101.210938 242.285156 C 101.210938 242.285156 135.597656 271.109375 136.902344 278.230469 C 137.828125 283.296875 117.441406 344.691406 117.441406 344.691406 C 110.609375 346.929688 109.140625 347.054688 104.46875 344.195312 L 113.105469 287.496094 L 99.269531 283.996094 C 99.269531 283.996094 93.515625 270.269531 93.515625 269.167969 C 93.515625 268.0625 94.585938 250.613281 94.601562 250.414062 C 94.617188 250.210938 101.210938 242.285156 101.210938 242.285156 Z M 101.210938 242.285156 " fill-opacity="1" fill-rule="nonzero"/><path fill="#115169" d="M 104.636719 295.351562 C 102.179688 302.371094 61.308594 356.519531 61.308594 356.519531 C 57.742188 362.800781 50.59375 359.671875 48.941406 357.257812 C 59.878906 337.953125 70.429688 309.550781 80.082031 299.136719 C 80.082031 299.136719 66.710938 268.167969 63.085938 256.757812 C 59.046875 244.296875 59.925781 235.171875 66.183594 228.910156 L 66.300781 228.445312 L 67.707031 223.121094 L 80.109375 223.53125 L 100.761719 233.183594 C 100.761719 233.183594 100.878906 235.289062 100.996094 238.390625 C 101.34375 244.238281 106.453125 290.261719 104.636719 295.351562 Z M 104.636719 295.351562 " fill-opacity="1" fill-rule="nonzero"/><path fill="#273240" d="M 100.996094 238.390625 L 66.300781 228.445312 L 67.707031 223.121094 L 80.109375 223.53125 L 100.761719 233.183594 C 100.761719 233.183594 100.878906 235.289062 100.996094 238.390625 Z M 100.996094 238.390625 " fill-opacity="1" fill-rule="nonzero"/><path fill="#5879bb" d="M 116.203125 172.933594 C 114.132812 165.902344 111.339844 159.730469 107.902344 152.535156 L 103.550781 156.136719 C 87.75 156.671875 80.371094 163.480469 76.496094 187.476562 C 74.324219 200.917969 68.4375 211.136719 67.710938 223.121094 C 78.273438 225.300781 88.980469 228.621094 100.761719 233.160156 C 100.761719 233.160156 113.675781 215.132812 116.195312 205.832031 C 119.449219 193.824219 125.101562 177.554688 117.488281 169.800781 Z M 116.203125 172.933594 " fill-opacity="1" fill-rule="nonzero"/><path fill="#f7b198" d="M 124.355469 167.183594 C 124.355469 167.183594 133.453125 172.105469 133.566406 168.617188 C 133.566406 168.617188 135.875 162.632812 136.949219 160.949219 C 138.027344 159.261719 139.117188 156.660156 139.03125 155 C 138.945312 153.339844 139 152.539062 139.285156 151.96875 C 139.574219 151.394531 140.289062 145.015625 139.773438 144.359375 C 139.257812 143.699219 130.707031 136.292969 130.707031 136.292969 C 130.707031 136.292969 118.121094 144.558594 118.035156 145.015625 C 117.949219 145.472656 115.03125 159.949219 115.03125 159.949219 C 115.03125 159.949219 116.347656 162.347656 116.460938 162.476562 C 116.574219 162.609375 124.355469 167.183594 124.355469 167.183594 Z M 124.355469 167.183594 " fill-opacity="1" fill-rule="nonzero"/><path fill="#7d5332" d="M 122.921875 150.769531 C 124.777344 150.226562 127.089844 151.976562 126.757812 155.800781 L 130.578125 155.800781 C 130.75 153.328125 131.269531 150.984375 133.828125 150.503906 C 137.585938 149.792969 130.726562 143.753906 135.855469 143.953125 C 139.320312 144.085938 139.984375 144.207031 140.414062 143.949219 C 141.953125 143.019531 141.359375 138.121094 136.421875 134.820312 C 134.171875 133.316406 131.542969 132.480469 128.910156 131.855469 C 125.964844 131.15625 122.808594 130.707031 119.957031 131.722656 C 114.554688 133.652344 110.429688 140.960938 109.375 146.710938 C 108.097656 153.675781 107.355469 152.691406 109.640625 154.765625 C 115.992188 160.519531 121.035156 151.316406 122.921875 150.769531 Z M 122.921875 150.769531 " fill-opacity="1" fill-rule="nonzero"/><path fill="#101b2b" d="M 150.019531 152.15625 L 150.019531 167.484375 L 139.488281 167.484375 L 139.488281 153.328125 C 139.488281 152.683594 140.015625 152.15625 140.71875 152.15625 Z M 150.019531 152.15625 " fill-opacity="1" fill-rule="nonzero"/><path fill="#101b2b" d="M 150.03125 152.140625 L 141.765625 152.140625 L 141.765625 150.761719 C 141.765625 150.167969 142.246094 149.6875 142.847656 149.6875 L 147.566406 149.6875 C 148.929688 149.6875 150.03125 150.785156 150.03125 152.140625 Z M 150.03125 152.140625 " fill-opacity="1" fill-rule="nonzero"/><path fill="#273240" d="M 149.855469 154.675781 L 156.769531 154.675781 L 156.769531 165.085938 L 149.855469 165.085938 Z M 149.855469 154.675781 " fill-opacity="1" fill-rule="nonzero"/><path fill="#101b2b" d="M 162.523438 153.585938 L 162.523438 165.1875 C 162.523438 165.71875 162.089844 166.152344 161.5625 166.152344 L 157.523438 166.152344 C 156.996094 166.152344 156.5625 165.71875 156.5625 165.1875 L 156.5625 153.585938 C 156.5625 153.054688 156.996094 152.621094 157.523438 152.621094 L 161.5625 152.621094 C 162.089844 152.621094 162.523438 153.054688 162.523438 153.585938 Z M 162.523438 153.585938 " fill-opacity="1" fill-rule="nonzero"/><path fill="#f6a98d" d="M 111.539062 204.152344 C 111.539062 204.152344 119.84375 208.546875 122.535156 207.535156 C 135.875 202.515625 141.492188 176.980469 143.679688 174.792969 C 146.082031 172.398438 152.585938 168.742188 153.554688 165.492188 C 154.503906 162.300781 153.535156 153.746094 150.433594 152.535156 C 147.59375 151.425781 140.304688 159.316406 140.304688 159.316406 C 140.304688 159.316406 141.769531 153.882812 140.367188 153.453125 C 139.074219 153.058594 137.761719 156.675781 137.375 157.976562 C 136.609375 160.550781 137.054688 166.066406 136.417969 168.679688 C 135.003906 174.515625 122.277344 187.542969 121.25 187.179688 L 113.617188 196.578125 C 113.617188 196.578125 109.347656 199.253906 109.347656 199.699219 C 109.347656 200.144531 111.539062 204.152344 111.539062 204.152344 Z M 111.539062 204.152344 " fill-opacity="1" fill-rule="nonzero"/><path fill="#496cb3" d="M 121.25 187.179688 C 116.710938 192.738281 113.890625 198.480469 111.539062 204.152344 C 111.539062 204.152344 108.316406 201.824219 104.222656 198.519531 C 97.882812 193.40625 89.46875 185.960938 87.679688 181.203125 C 85.246094 174.738281 89.195312 166.878906 94.601562 163.617188 C 100.484375 160.070312 105.746094 165.371094 109.871094 171.847656 C 113.660156 177.804688 120.804688 186.589844 121.25 187.179688 Z M 121.25 187.179688 " fill-opacity="1" fill-rule="nonzero"/><path fill="#3459a7" d="M 121.25 187.179688 C 116.710938 192.738281 113.890625 198.480469 111.539062 204.152344 C 111.539062 204.152344 108.316406 201.824219 104.222656 198.519531 C 107.113281 191.914062 111.289062 186.285156 117.078125 181.878906 C 119.476562 185.09375 121.25 187.179688 121.25 187.179688 Z M 121.25 187.179688 " fill-opacity="1" fill-rule="nonzero"/><path fill="#101b2b" d="M 81.789062 17.550781 L 75.660156 13.242188 C 75.402344 13.058594 75.25 12.753906 75.265625 12.4375 C 75.277344 12.121094 75.453125 11.832031 75.730469 11.671875 L 81.851562 8.109375 C 82.140625 7.941406 82.5 7.941406 82.789062 8.109375 L 88.917969 11.671875 C 89.191406 11.832031 89.367188 12.121094 89.382812 12.4375 C 89.394531 12.757812 89.246094 13.058594 88.984375 13.242188 L 82.863281 17.550781 C 82.703125 17.664062 82.511719 17.722656 82.324219 17.722656 C 82.136719 17.722656 81.949219 17.664062 81.789062 17.550781 Z M 82.320312 10 L 77.929688 12.554688 L 82.324219 15.644531 L 86.714844 12.554688 Z M 82.320312 10 " fill-opacity="1" fill-rule="nonzero"/><path fill="#101b2b" d="M 78.261719 33.25 L 74.664062 30.527344 C 74.421875 30.347656 74.285156 30.058594 74.292969 29.753906 C 74.300781 29.453125 74.457031 29.171875 74.707031 29.003906 L 81.808594 24.269531 C 82.121094 24.0625 82.53125 24.0625 82.84375 24.269531 L 89.9375 29.003906 C 90.191406 29.171875 90.34375 29.453125 90.355469 29.753906 C 90.363281 30.058594 90.226562 30.34375 89.984375 30.527344 L 86.390625 33.246094 C 86.226562 33.371094 86.03125 33.4375 85.824219 33.4375 L 78.824219 33.4375 C 78.621094 33.4375 78.421875 33.371094 78.261719 33.25 Z M 87.808594 29.832031 L 82.324219 26.171875 L 76.839844 29.832031 L 79.136719 31.566406 L 85.511719 31.566406 Z M 87.808594 29.832031 " fill-opacity="1" fill-rule="nonzero"/><path fill="#101b2b" d="M 81.808594 25.828125 L 75.777344 21.808594 C 75.523438 21.636719 75.367188 21.351562 75.363281 21.042969 C 75.359375 20.734375 75.507812 20.441406 75.757812 20.265625 L 81.789062 16.023438 C 82.109375 15.796875 82.539062 15.796875 82.863281 16.023438 L 88.890625 20.265625 C 89.144531 20.441406 89.292969 20.734375 89.289062 21.042969 C 89.285156 21.351562 89.128906 21.636719 88.871094 21.808594 L 82.84375 25.828125 C 82.6875 25.929688 82.507812 25.984375 82.324219 25.984375 C 82.144531 25.984375 81.964844 25.929688 81.808594 25.828125 Z M 82.324219 17.929688 L 77.949219 21.007812 L 82.324219 23.925781 L 86.699219 21.007812 Z M 82.324219 17.929688 " fill-opacity="1" fill-rule="nonzero"/><path fill="#101b2b" d="M 81.851562 9.726562 L 74.757812 5.601562 C 74.46875 5.433594 74.289062 5.125 74.292969 4.789062 C 74.292969 4.453125 74.476562 4.144531 74.765625 3.980469 L 81.867188 -0.0195312 C 82.152344 -0.179688 82.5 -0.179688 82.785156 -0.0195312 L 89.878906 3.980469 C 90.167969 4.144531 90.351562 4.453125 90.351562 4.789062 C 90.355469 5.125 90.179688 5.433594 89.886719 5.605469 L 82.789062 9.726562 C 82.644531 9.808594 82.484375 9.851562 82.320312 9.851562 C 82.160156 9.851562 81.996094 9.808594 81.851562 9.726562 Z M 82.324219 1.867188 L 77.109375 4.808594 L 82.320312 7.835938 L 87.535156 4.808594 Z M 82.324219 1.867188 " fill-opacity="1" fill-rule="nonzero"/><path fill="#101b2b" d="M 80.339844 32.578125 L 84.300781 32.578125 L 84.300781 40.097656 L 80.339844 40.097656 Z M 80.339844 32.578125 " fill-opacity="1" fill-rule="nonzero"/><path fill="#273240" d="M 117.324219 56.035156 L 89.949219 78.144531 C 89.34375 78.628906 88.453125 78.179688 88.472656 77.402344 L 88.554688 58.0625 L 79.273438 46.574219 C 77.183594 43.984375 77.621094 40.175781 80.210938 38.085938 C 82.800781 35.992188 86.582031 36.398438 88.671875 38.984375 L 97.949219 50.472656 L 116.910156 54.4375 C 117.671875 54.582031 117.925781 55.550781 117.324219 56.035156 Z M 117.324219 56.035156 " fill-opacity="1" fill-rule="nonzero"/><path fill="#101b2b" d="M 291.484375 17.722656 C 291.296875 17.722656 291.109375 17.664062 290.949219 17.550781 L 284.824219 13.242188 C 284.566406 13.058594 284.417969 12.753906 284.429688 12.4375 C 284.441406 12.117188 284.617188 11.828125 284.894531 11.667969 L 291.019531 8.109375 C 291.3125 7.9375 291.667969 7.941406 291.960938 8.109375 L 298.082031 11.667969 C 298.355469 11.828125 298.53125 12.117188 298.546875 12.4375 C 298.558594 12.753906 298.410156 13.058594 298.148438 13.242188 L 292.023438 17.550781 C 291.863281 17.664062 291.675781 17.722656 291.484375 17.722656 Z M 287.09375 12.554688 L 291.484375 15.644531 L 295.878906 12.550781 L 291.488281 10 Z M 287.09375 12.554688 " fill-opacity="1" fill-rule="nonzero"/><path fill="#101b2b" d="M 294.984375 33.4375 L 287.984375 33.4375 C 287.78125 33.4375 287.585938 33.371094 287.421875 33.25 L 283.828125 30.527344 C 283.585938 30.347656 283.449219 30.058594 283.457031 29.753906 C 283.464844 29.453125 283.621094 29.175781 283.871094 29.007812 L 290.964844 24.273438 C 291.28125 24.0625 291.691406 24.0625 292.003906 24.273438 L 299.101562 29.007812 C 299.355469 29.175781 299.507812 29.453125 299.519531 29.757812 C 299.527344 30.058594 299.390625 30.347656 299.148438 30.53125 L 295.550781 33.25 C 295.386719 33.371094 295.1875 33.4375 294.984375 33.4375 Z M 288.300781 31.566406 L 294.671875 31.566406 L 296.972656 29.832031 L 291.484375 26.171875 L 286.003906 29.832031 Z M 288.300781 31.566406 " fill-opacity="1" fill-rule="nonzero"/><path fill="#101b2b" d="M 291.484375 25.984375 C 291.304688 25.984375 291.125 25.929688 290.96875 25.828125 L 284.9375 21.808594 C 284.683594 21.636719 284.527344 21.351562 284.523438 21.042969 C 284.519531 20.734375 284.667969 20.441406 284.917969 20.265625 L 290.949219 16.023438 C 291.269531 15.796875 291.703125 15.796875 292.023438 16.023438 L 298.050781 20.265625 C 298.304688 20.441406 298.453125 20.734375 298.449219 21.042969 C 298.445312 21.351562 298.289062 21.636719 298.03125 21.808594 L 292.003906 25.828125 C 291.847656 25.929688 291.667969 25.984375 291.484375 25.984375 Z M 287.109375 21.007812 L 291.484375 23.925781 L 295.859375 21.007812 L 291.484375 17.929688 Z M 287.109375 21.007812 " fill-opacity="1" fill-rule="nonzero"/><path fill="#101b2b" d="M 291.488281 9.851562 C 291.328125 9.851562 291.167969 9.808594 291.019531 9.726562 L 283.921875 5.605469 C 283.632812 5.4375 283.453125 5.125 283.457031 4.789062 C 283.460938 4.453125 283.640625 4.144531 283.933594 3.980469 L 291.027344 -0.0195312 C 291.3125 -0.179688 291.660156 -0.179688 291.945312 -0.0195312 L 299.042969 3.980469 C 299.335938 4.144531 299.515625 4.453125 299.519531 4.789062 C 299.519531 5.125 299.34375 5.433594 299.054688 5.601562 L 291.960938 9.726562 C 291.816406 9.808594 291.652344 9.851562 291.488281 9.851562 Z M 286.273438 4.808594 L 291.488281 7.835938 L 296.703125 4.808594 L 291.484375 1.867188 Z M 286.273438 4.808594 " fill-opacity="1" fill-rule="nonzero"/><path fill="#101b2b" d="M 289.503906 32.578125 L 293.464844 32.578125 L 293.464844 40.097656 L 289.503906 40.097656 Z M 289.503906 32.578125 " fill-opacity="1" fill-rule="nonzero"/><path fill="#273240" d="M 256.488281 56.035156 L 283.863281 78.144531 C 284.464844 78.628906 285.359375 78.179688 285.339844 77.402344 L 285.257812 58.0625 L 294.535156 46.574219 C 296.625 43.984375 296.1875 40.175781 293.601562 38.085938 C 291.011719 35.992188 287.230469 36.398438 285.140625 38.984375 L 275.859375 50.472656 L 256.902344 54.4375 C 256.140625 54.582031 255.886719 55.550781 256.488281 56.035156 Z M 256.488281 56.035156 " fill-opacity="1" fill-rule="nonzero"/><path fill="#f6a98d" d="M 290.335938 350.316406 L 239.21875 286.214844 C 239.21875 286.214844 253.28125 268.542969 253.734375 268.46875 C 254.1875 268.394531 269.242188 263.675781 268.839844 264.378906 C 268.4375 265.082031 262.765625 274.609375 262.765625 274.609375 C 262.765625 274.609375 263.320312 281.039062 270.246094 289.167969 C 277.171875 297.296875 294.765625 343.238281 294.765625 343.238281 C 293.941406 346.707031 292.4375 349.019531 290.335938 350.316406 Z M 290.335938 350.316406 " fill-opacity="1" fill-rule="nonzero"/><path fill="#273240" d="M 242.914062 152.085938 C 243.632812 154.203125 244.933594 156.199219 244.933594 158.433594 C 247.425781 155.9375 250.015625 153.660156 252.507812 151.164062 C 252.421875 151.164062 252.339844 151.164062 252.253906 151.164062 C 252.425781 150.019531 252.597656 148.871094 252.765625 147.726562 C 253.015625 146.054688 253.234375 144.226562 252.367188 142.777344 C 251.476562 141.285156 248.796875 139.882812 247.265625 139.695312 C 243.160156 139.191406 241.332031 147.410156 242.914062 152.085938 Z M 242.914062 152.085938 " fill-opacity="1" fill-rule="nonzero"/><path fill="#f7b198" d="M 210.75 171.878906 L 229.285156 161.820312 C 229.152344 161.894531 229.039062 161.964844 228.945312 162.035156 C 226.378906 163.898438 224.035156 173.109375 224.035156 173.109375 C 221.703125 175.550781 220.269531 178.570312 219.511719 181.957031 L 219.507812 181.960938 C 219.507812 181.960938 200.101562 188.996094 196.894531 184.300781 C 191.351562 176.179688 210.863281 158.289062 214.925781 149.328125 C 217.160156 144.410156 220.300781 137.195312 224.195312 136.28125 C 226.472656 135.746094 231.789062 138.445312 232.441406 140.6875 C 233.089844 142.933594 228.820312 146.699219 227.746094 148.757812 C 223.523438 156.773438 223.167969 144.367188 210.75 171.878906 Z M 210.75 171.878906 " fill-opacity="1" fill-rule="nonzero"/><path fill="#f7b198" d="M 254.695312 322.632812 C 252.976562 328.148438 248.28125 347.621094 249.183594 349.972656 C 249.207031 350.035156 246.238281 355.742188 242.101562 352.285156 C 242.542969 350.722656 242.207031 339.785156 242.390625 337.921875 C 243.835938 323.152344 228.933594 272.9375 228.933594 272.9375 C 228.933594 272.9375 250.90625 271.660156 250.90625 272.203125 C 250.90625 272.746094 261.425781 269.144531 261.425781 269.144531 C 261.425781 269.144531 254.175781 284.007812 256.164062 292.871094 C 258.15625 301.738281 256.414062 317.117188 254.695312 322.632812 Z M 254.695312 322.632812 " fill-opacity="1" fill-rule="nonzero"/><path fill="#f05b57" d="M 289.890625 261.542969 C 288.632812 272.578125 224.425781 284.804688 208.546875 276.867188 C 205.6875 275.4375 219.363281 216.257812 221.40625 207.488281 C 221.410156 207.484375 221.410156 207.476562 221.410156 207.46875 C 221.574219 206.785156 221.566406 206.070312 221.386719 205.390625 C 221.296875 205.0625 221.214844 204.730469 221.128906 204.398438 C 219.125 196.550781 218.03125 188.558594 219.507812 181.960938 L 219.511719 181.957031 C 220.269531 178.570312 221.703125 175.550781 224.035156 173.109375 C 224.035156 173.109375 226.378906 163.898438 228.945312 162.035156 C 229.039062 161.964844 229.152344 161.894531 229.285156 161.820312 L 229.320312 161.800781 C 232.105469 160.289062 242.289062 157.945312 242.289062 157.945312 C 238.554688 161.730469 237.128906 165.703125 237.808594 169.847656 C 242.902344 166.070312 245.777344 164.722656 253.921875 161.433594 C 253.925781 161.433594 253.925781 161.433594 253.925781 161.433594 C 253.925781 161.433594 268.488281 166.679688 268.855469 170.320312 C 270.417969 185.882812 259.265625 198.121094 253.859375 203.070312 C 253.617188 203.289062 253.410156 203.535156 253.238281 203.800781 C 252.636719 204.703125 252.445312 205.808594 252.679688 206.84375 C 252.808594 207.40625 253.0625 207.949219 253.445312 208.425781 C 262.03125 219.097656 290.621094 255.179688 289.890625 261.542969 Z M 289.890625 261.542969 " fill-opacity="1" fill-rule="nonzero"/><path fill="#f6a98d" d="M 253.925781 161.433594 C 245.777344 164.722656 242.902344 166.070312 237.808594 169.847656 C 237.128906 165.703125 238.554688 161.730469 242.292969 157.945312 L 245.511719 148.179688 C 245.480469 156.050781 248.914062 158.941406 253.925781 161.433594 Z M 253.925781 161.433594 " fill-opacity="1" fill-rule="nonzero"/><path fill="#f7b198" d="M 266.921875 146.550781 C 266.175781 148.894531 266.101562 151.84375 265.175781 153.332031 C 264.074219 155.101562 262.03125 156.339844 259.191406 159.144531 C 256.242188 162.050781 253.925781 161.433594 253.925781 161.433594 C 248.914062 158.941406 245.480469 156.050781 245.511719 148.179688 C 243.066406 144.128906 241.570312 139.597656 244.878906 140.195312 L 246.796875 138.074219 C 248.292969 129.554688 255.234375 129.769531 262.496094 131.550781 C 262.65625 130.355469 268.230469 136.296875 268.410156 141.023438 C 268.464844 142.453125 267.664062 144.199219 266.921875 146.550781 Z M 266.921875 146.550781 " fill-opacity="1" fill-rule="nonzero"/><path fill="#273240" d="M 269.207031 143.023438 C 267.382812 145.671875 255.734375 131.457031 252.160156 135.074219 C 251.507812 135.734375 251.777344 136.828125 251.660156 137.75 C 251.457031 139.34375 247.9375 144.160156 245.25 141.226562 C 243.941406 139.804688 243.464844 137.722656 243.8125 135.820312 C 244.164062 133.921875 245.285156 132.210938 246.746094 130.949219 C 251.660156 126.710938 263.320312 124.964844 268.398438 134.277344 C 269.449219 136.207031 270.757812 140.769531 269.207031 143.023438 Z M 269.207031 143.023438 " fill-opacity="1" fill-rule="nonzero"/><path fill="#f6a98d" d="M 228.308594 147.878906 C 224.726562 152.828125 226.621094 150.886719 221.277344 153.8125 C 220.859375 153.324219 220.394531 150.496094 220.644531 149.710938 C 221.707031 146.367188 225.859375 149.605469 226.21875 143.71875 C 226.367188 141.328125 227.902344 140.9375 228.351562 141.558594 C 228.496094 141.757812 228.492188 142.078125 228.308594 147.878906 Z M 228.308594 147.878906 " fill-opacity="1" fill-rule="nonzero"/><path fill="#273240" d="M 246.238281 361.617188 L 246.238281 363.503906 C 243.078125 364.808594 237.683594 365.691406 236.902344 364.265625 C 235.9375 362.507812 237.367188 360.582031 237.4375 360.492188 C 237.304688 360.753906 237.210938 361 237.171875 361.234375 C 236.742188 363.75 245.152344 362.210938 246.074219 361.777344 C 246.125 361.75 246.179688 361.695312 246.238281 361.617188 Z M 246.238281 361.617188 " fill-opacity="1" fill-rule="nonzero"/><path fill="#273240" d="M 250.34375 352.535156 C 250.320312 353.679688 249.878906 362.066406 249.878906 362.066406 L 248.269531 362.066406 L 248.269531 355.511719 L 248.148438 355.878906 C 248.824219 353.144531 249.332031 350.300781 249.148438 349.417969 C 249.148438 349.417969 250.367188 351.390625 250.34375 352.535156 Z M 250.34375 352.535156 " fill-opacity="1" fill-rule="nonzero"/><path fill="#a67650" d="M 248.148438 355.878906 C 247.511719 358.460938 246.730469 360.949219 246.238281 361.613281 L 246.238281 361.617188 C 246.179688 361.695312 246.125 361.75 246.074219 361.777344 C 245.152344 362.210938 236.742188 363.753906 237.171875 361.234375 C 237.214844 361 237.304688 360.753906 237.4375 360.492188 L 237.4375 360.488281 C 238.320312 358.757812 240.984375 356.253906 242.238281 351.828125 L 242.238281 351.824219 C 247.933594 353.382812 249.148438 349.417969 249.148438 349.417969 C 249.332031 350.300781 248.820312 353.144531 248.148438 355.878906 Z M 248.148438 355.878906 " fill-opacity="1" fill-rule="nonzero"/><path fill="#273240" d="M 297.835938 348.457031 C 297.835938 348.457031 296.621094 352.742188 298.519531 355.882812 C 298.75 356.265625 298.746094 356.742188 298.515625 357.125 C 297.566406 358.703125 295.109375 362.515625 293.527344 362.457031 C 291.535156 362.378906 291.585938 360.328125 291.585938 360.328125 L 295.171875 349.078125 L 297.214844 344.925781 C 297.214844 344.925781 298.511719 345.066406 299.480469 346.511719 C 300.453125 347.957031 304.1875 351.320312 304.1875 351.320312 L 302.894531 353.238281 Z M 297.835938 348.457031 " fill-opacity="1" fill-rule="nonzero"/><path fill="#a67650" d="M 297.117188 347.105469 C 296.671875 349.234375 296.332031 354.113281 296.726562 355.457031 C 297.117188 356.804688 293.195312 361.175781 292.015625 360.953125 C 290.839844 360.726562 292.371094 356.851562 292.128906 355.515625 C 291.949219 354.515625 291.285156 352.601562 290.335938 350.316406 C 292.425781 349.484375 294.765625 343.238281 294.765625 343.238281 C 298.125 345.3125 297.566406 344.976562 297.117188 347.105469 Z M 297.117188 347.105469 " fill-opacity="1" fill-rule="nonzero"/><path fill="#f7b198" d="M 268.738281 169.828125 C 266.269531 168.261719 262.832031 169.285156 258.527344 175.523438 C 253.460938 182.875 254.925781 189.613281 259.765625 188.324219 C 259.765625 188.324219 263.492188 207.664062 265.089844 214.027344 C 267.761719 224.695312 276.8125 235.769531 279.285156 243.582031 C 279.90625 245.539062 280.09375 250.003906 281.757812 251.402344 C 283.425781 252.800781 284.15625 255.304688 285.253906 256.347656 C 286.074219 257.125 288.367188 258.660156 288.859375 256.347656 C 289.148438 254.988281 286.117188 251.507812 286.117188 251.507812 C 286.117188 251.507812 290.363281 251.347656 290.632812 253.285156 C 290.902344 255.21875 291.007812 257.476562 290.632812 258.5 C 290.257812 259.519531 291.871094 260.542969 292.730469 258.929688 C 293.589844 257.316406 293.929688 254.421875 293.75 252.90625 C 293.605469 251.660156 293.132812 249.09375 292.40625 248.066406 C 291.058594 246.160156 286.550781 243.96875 285.308594 241.988281 C 281.605469 236.089844 278.222656 216.425781 274.765625 207.488281 C 268.820312 192.117188 273.984375 173.15625 268.738281 169.828125 Z M 268.738281 169.828125 " fill-opacity="1" fill-rule="nonzero"/><path fill="#ee4743" d="M 232.972656 206.484375 C 229.851562 217.328125 230.164062 229.210938 233.933594 239.988281 C 229.785156 229.351562 229 217.367188 231.796875 206.167969 C 231.878906 205.839844 232.210938 205.644531 232.535156 205.722656 C 232.863281 205.804688 233.0625 206.136719 232.980469 206.460938 C 232.976562 206.46875 232.976562 206.476562 232.972656 206.484375 Z M 232.972656 206.484375 " fill-opacity="1" fill-rule="nonzero"/><path fill="#ee4743" d="M 227.824219 206.78125 C 222.144531 222.417969 220.605469 239.597656 223.460938 256.09375 C 220.207031 239.671875 221.308594 222.355469 226.675781 206.382812 C 226.78125 206.0625 227.128906 205.890625 227.445312 206 C 227.765625 206.105469 227.9375 206.449219 227.828125 206.769531 Z M 227.824219 206.78125 " fill-opacity="1" fill-rule="nonzero"/><path fill="#ee4743" d="M 225.039062 206.722656 C 218.679688 224.765625 216.484375 244.3125 218.714844 263.40625 C 216.085938 244.363281 217.851562 224.679688 223.886719 206.332031 C 223.988281 206.011719 224.335938 205.835938 224.652344 205.941406 C 224.972656 206.046875 225.148438 206.390625 225.042969 206.710938 C 225.042969 206.710938 225.039062 206.71875 225.039062 206.722656 Z M 225.039062 206.722656 " fill-opacity="1" fill-rule="nonzero"/><path fill="#ee4743" d="M 236.75 205.664062 C 234.453125 214.121094 234.140625 223.167969 235.890625 231.855469 C 233.746094 223.257812 233.621094 214.113281 235.570312 205.371094 C 235.644531 205.042969 235.96875 204.835938 236.296875 204.910156 C 236.625 204.984375 236.832031 205.308594 236.757812 205.636719 C 236.757812 205.644531 236.753906 205.65625 236.75 205.664062 Z M 236.75 205.664062 " fill-opacity="1" fill-rule="nonzero"/><path fill="#ee4743" d="M 241.28125 205.695312 C 239.066406 211.421875 238.28125 217.757812 239.078125 223.949219 C 237.882812 217.820312 238.230469 211.347656 240.132812 205.292969 C 240.234375 204.972656 240.574219 204.792969 240.894531 204.894531 C 241.214844 204.996094 241.394531 205.335938 241.292969 205.65625 C 241.292969 205.667969 241.285156 205.683594 241.28125 205.695312 Z M 241.28125 205.695312 " fill-opacity="1" fill-rule="nonzero"/><path fill="#ee4743" d="M 221.621094 205.40625 C 222.425781 197.332031 224.414062 189.40625 227.492188 181.957031 C 224.792969 189.550781 223.222656 197.507812 222.835938 205.496094 C 222.816406 205.832031 222.53125 206.09375 222.195312 206.078125 C 221.859375 206.058594 221.601562 205.773438 221.617188 205.4375 C 221.621094 205.429688 221.621094 205.417969 221.621094 205.40625 Z M 221.621094 205.40625 " fill-opacity="1" fill-rule="nonzero"/><path fill="#ee4743" d="M 224.074219 204.449219 C 225.238281 196.03125 228.109375 187.902344 232.433594 180.6875 C 228.460938 188.101562 226.023438 196.289062 225.28125 204.585938 C 225.253906 204.921875 224.957031 205.167969 224.621094 205.136719 C 224.289062 205.109375 224.039062 204.8125 224.070312 204.476562 C 224.070312 204.46875 224.070312 204.457031 224.074219 204.449219 Z M 224.074219 204.449219 " fill-opacity="1" fill-rule="nonzero"/><path fill="#ee4743" d="M 227.289062 203.621094 L 238.320312 181.917969 L 228.386719 204.144531 C 228.25 204.453125 227.890625 204.589844 227.585938 204.453125 C 227.277344 204.316406 227.140625 203.957031 227.277344 203.648438 C 227.28125 203.640625 227.285156 203.628906 227.289062 203.621094 Z M 227.289062 203.621094 " fill-opacity="1" fill-rule="nonzero"/><path fill="#ee4743" d="M 226.175781 204.847656 C 227.609375 197.011719 230.140625 189.410156 233.660156 182.332031 C 230.507812 189.582031 228.394531 197.25 227.378906 205.035156 C 227.335938 205.367188 227.03125 205.601562 226.699219 205.558594 C 226.363281 205.515625 226.128906 205.210938 226.171875 204.875 C 226.175781 204.867188 226.175781 204.855469 226.175781 204.847656 Z M 226.175781 204.847656 " fill-opacity="1" fill-rule="nonzero"/><path fill="#273240" d="M 252.679688 206.84375 C 249.457031 206.339844 236.421875 204.652344 221.40625 207.488281 C 221.410156 207.484375 221.410156 207.476562 221.410156 207.46875 C 221.574219 206.785156 221.566406 206.070312 221.386719 205.390625 C 221.296875 205.0625 221.214844 204.730469 221.128906 204.398438 C 236.734375 201.492188 249.910156 203.257812 253.238281 203.800781 C 252.636719 204.703125 252.445312 205.808594 252.679688 206.84375 Z M 252.679688 206.84375 " fill-opacity="1" fill-rule="nonzero"/></svg>