<svg xmlns="http://www.w3.org/2000/svg" xmlns:xlink="http://www.w3.org/1999/xlink" width="500" zoomAndPan="magnify" viewBox="0 0 375 374.999991" height="500" preserveAspectRatio="xMidYMid meet" version="1.0"><rect x="-37.5" width="450" fill="#ffffff" y="-37.499999" height="449.999989" fill-opacity="1"/><rect x="-37.5" width="450" fill="#ffffff" y="-37.499999" height="449.999989" fill-opacity="1"/><path fill="#000000" d="M 344.382812 38.863281 C 343.214844 34.886719 340.113281 31.785156 336.136719 30.617188 C 336.136719 30.617188 232.433594 -0.242188 147.109375 85.066406 C 105.066406 127.109375 61.316406 195.925781 57.953125 235.375 C 57.644531 238.945312 58.929688 242.484375 61.476562 245.015625 L 129.984375 313.523438 C 132.515625 316.070312 136.054688 317.355469 139.625 317.046875 C 179.074219 313.683594 247.890625 269.933594 289.933594 227.890625 C 375.242188 142.566406 344.382812 38.863281 344.382812 38.863281 Z M 322.566406 52.453125 C 326.898438 74.722656 335.128906 148.246094 272.710938 210.664062 C 236.527344 246.867188 179.203125 285.746094 142.972656 292.078125 C 142.972656 292.078125 82.921875 232.027344 82.921875 232.027344 C 89.269531 195.796875 128.132812 138.472656 164.335938 102.289062 C 226.753906 39.871094 300.292969 48.101562 322.546875 52.433594 Z M 322.566406 52.453125 " fill-opacity="1" fill-rule="evenodd"/><path fill="#000000" d="M 272.808594 102.191406 C 252.304688 81.6875 218.992188 81.6875 198.492188 102.191406 C 177.988281 122.695312 177.988281 156.007812 198.492188 176.507812 C 218.992188 197.011719 252.304688 197.011719 272.808594 176.507812 C 293.3125 156.007812 293.3125 122.695312 272.808594 102.191406 Z M 255.585938 119.414062 C 266.589844 130.421875 266.589844 148.277344 255.585938 159.285156 C 244.578125 170.292969 226.722656 170.292969 215.714844 159.285156 C 204.707031 148.277344 204.707031 130.421875 215.714844 119.414062 C 226.722656 108.410156 244.578125 108.410156 255.585938 119.414062 Z M 255.585938 119.414062 " fill-opacity="1" fill-rule="evenodd"/><path fill="#000000" d="M 204.625 268.992188 L 106.007812 170.375 C 101.265625 165.632812 93.539062 165.632812 88.796875 170.375 C 84.042969 175.128906 84.042969 182.839844 88.796875 187.597656 L 187.402344 286.203125 C 192.160156 290.957031 199.871094 290.957031 204.625 286.203125 C 209.367188 281.460938 209.367188 273.734375 204.625 268.992188 Z M 204.625 268.992188 " fill-opacity="1" fill-rule="evenodd"/><path fill="#000000" d="M 229.238281 258.148438 C 229.238281 258.148438 226.785156 284.984375 225.097656 303.570312 C 224.480469 310.355469 220.503906 316.363281 214.511719 319.59375 L 173.605469 341.625 C 173.605469 341.625 173.605469 304.917969 173.605469 304.917969 C 173.605469 298.199219 168.148438 292.742188 161.429688 292.742188 C 154.707031 292.742188 149.253906 298.199219 149.253906 304.917969 L 149.253906 362.011719 C 149.253906 366.296875 151.507812 370.277344 155.179688 372.46875 C 158.863281 374.660156 163.425781 374.773438 167.207031 372.726562 C 167.207031 372.726562 204.316406 352.742188 226.054688 341.039062 C 239.253906 333.945312 248.003906 320.699219 249.351562 305.777344 C 251.039062 287.191406 253.492188 260.339844 253.492188 260.339844 C 254.089844 253.652344 249.15625 247.726562 242.46875 247.125 C 235.761719 246.511719 229.835938 251.445312 229.238281 258.148438 Z M 229.238281 258.148438 " fill-opacity="1" fill-rule="evenodd"/><path fill="#000000" d="M 114.660156 121.507812 C 114.660156 121.507812 87.808594 123.960938 69.222656 125.648438 C 54.300781 126.996094 41.054688 135.746094 33.960938 148.945312 C 22.257812 170.683594 2.273438 207.792969 2.273438 207.792969 C 0.226562 211.574219 0.339844 216.136719 2.53125 219.820312 C 4.722656 223.492188 8.703125 225.746094 12.988281 225.746094 L 70.082031 225.746094 C 76.800781 225.746094 82.257812 220.292969 82.257812 213.570312 C 82.257812 206.851562 76.800781 201.394531 70.082031 201.394531 L 33.375 201.394531 L 55.40625 160.488281 C 58.636719 154.496094 64.644531 150.519531 71.429688 149.902344 C 90.015625 148.214844 116.851562 145.761719 116.851562 145.761719 C 123.554688 145.164062 128.492188 139.238281 127.875 132.53125 C 127.273438 125.84375 121.347656 120.910156 114.660156 121.507812 Z M 114.660156 121.507812 " fill-opacity="1" fill-rule="evenodd"/><path fill="#000000" d="M 35.894531 264.789062 L 10.082031 290.601562 C 5.339844 295.355469 5.339844 303.066406 10.082031 307.824219 C 14.835938 312.566406 22.546875 312.566406 27.304688 307.824219 L 53.117188 282.011719 C 57.875 277.257812 57.875 269.546875 53.117188 264.789062 C 48.359375 260.03125 40.648438 260.03125 35.894531 264.789062 Z M 35.894531 264.789062 " fill-opacity="1" fill-rule="evenodd"/><path fill="#000000" d="M 64.449219 293.34375 L 15.796875 341.980469 C 11.039062 346.738281 11.039062 354.449219 15.796875 359.203125 C 20.550781 363.960938 28.261719 363.960938 33.019531 359.203125 L 81.65625 310.550781 C 86.414062 305.8125 86.414062 298.085938 81.65625 293.34375 C 76.914062 288.585938 69.1875 288.585938 64.449219 293.34375 Z M 64.449219 293.34375 " fill-opacity="1" fill-rule="evenodd"/><path fill="#000000" d="M 92.988281 321.882812 L 67.175781 347.695312 C 62.433594 352.453125 62.433594 360.164062 67.175781 364.917969 C 71.933594 369.660156 79.644531 369.660156 84.398438 364.917969 L 110.210938 339.105469 C 114.96875 334.351562 114.96875 326.640625 110.210938 321.882812 C 105.453125 317.125 97.742188 317.125 92.988281 321.882812 Z M 92.988281 321.882812 " fill-opacity="1" fill-rule="evenodd"/></svg>